<svg width="414" height="414" viewBox="0 0 414 414" fill="none" xmlns="http://www.w3.org/2000/svg">
<path d="M109.822 396.849H113.923L109.822 395.478C109.822 395.478 109.895 395.969 109.822 396.849Z" fill="#171518"/>
<path d="M114.596 385.167C114.596 385.167 134.421 394.9 137.737 398.768C137.737 398.768 140.639 401.623 140.639 405.146C140.639 405.146 136.266 408.333 131.721 406.488C127.193 404.638 108.541 394.9 104.35 389.195C104.35 389.195 103.172 386.167 104.35 383.48H112.746L114.596 385.167Z" fill="#2E3546"/>
<path d="M112.871 380.811C112.871 380.811 112.901 383.291 112.746 383.481C112.746 383.481 110.447 384.994 109.468 385.193C109.468 385.193 105.648 384.865 104.289 383.601C104.289 383.601 104.276 382.855 104.427 380.811C104.427 380.811 102.668 364.695 102.301 362.104C102.301 362.104 108.904 362.677 112.543 362.104L112.871 380.811Z" fill="#DAC6BC"/>
<path d="M133.662 405.966C137.465 406.41 140.523 403.939 140.523 403.939C141.398 405.569 140.277 407.066 140.277 407.066C131.428 414.617 114.954 400.235 114.954 400.235C113.759 397.526 110.21 396.077 110.21 396.077L109.783 396.936C105.29 394.245 103.823 391.174 103.823 391.174C103.638 390.23 103.992 387.875 103.992 387.875C103.992 387.875 122.997 404.715 133.662 405.966Z" fill="#232833"/>
<path d="M114.596 385.167C114.596 385.167 113.018 382.782 112.668 382.588C112.668 382.588 110.672 383.127 109.261 383.455C109.261 383.455 108.766 383.61 108.908 384.132C109.05 384.649 109.412 386.029 109.412 386.154C109.412 386.284 113.794 386.215 114.596 385.167Z" fill="#2E3546"/>
<path d="M76.2579 396.849H72.1567L76.2579 395.478C76.2579 395.478 76.1846 395.969 76.2579 396.849Z" fill="#171518"/>
<path d="M71.484 385.167C71.484 385.167 51.6637 394.9 48.3431 398.768C48.3431 398.768 45.4408 401.623 45.4408 405.146C45.4408 405.146 49.8137 408.333 54.3547 406.488C58.8829 404.638 77.5387 394.9 81.7305 389.195C81.7305 389.195 82.9121 386.167 81.7305 383.48H73.3341L71.484 385.167Z" fill="#2E3546"/>
<path d="M73.2047 380.811C73.2047 380.811 73.1745 383.291 73.3341 383.481C73.3341 383.481 75.6369 384.994 76.6159 385.193C76.6159 385.193 80.4324 384.865 81.7866 383.601C81.7866 383.601 81.8081 382.855 81.6442 380.811C81.6442 380.811 83.4167 364.695 83.7789 362.104C83.7789 362.104 77.1765 362.677 73.5367 362.104L73.2047 380.811Z" fill="#DAC6BC"/>
<path d="M52.4184 405.966C48.6191 406.41 45.5572 403.939 45.5572 403.939C44.6861 405.569 45.8074 407.066 45.8074 407.066C54.6566 414.617 71.1347 400.235 71.1347 400.235C72.3292 397.526 75.8655 396.077 75.8655 396.077L76.2967 396.936C80.7904 394.245 82.2566 391.174 82.2566 391.174C82.4421 390.23 82.0884 387.875 82.0884 387.875C82.0884 387.875 63.0789 404.715 52.4184 405.966Z" fill="#232833"/>
<path d="M71.484 385.167C71.484 385.167 73.0624 382.782 73.4117 382.588C73.4117 382.588 75.4084 383.127 76.8186 383.455C76.8186 383.455 77.3102 383.61 77.1765 384.132C77.0342 384.649 76.6676 386.029 76.6676 386.154C76.6676 386.284 72.2904 386.215 71.484 385.167Z" fill="#2E3546"/>
<path d="M118.766 58.4305C118.766 58.4305 121.578 53.1778 123.613 54.6268C125.658 56.0758 124.105 72.8213 118.055 71.2731C112 69.7206 118.766 58.4305 118.766 58.4305Z" fill="#D68259"/>
<path d="M71.0872 58.4305C71.0872 58.4305 68.2755 53.1778 66.24 54.6268C64.1959 56.0758 65.7484 72.8213 71.7945 71.2731C77.8536 69.7206 71.0872 58.4305 71.0872 58.4305Z" fill="#D68259"/>
<path d="M122.488 218.338H64.4848C64.4115 221.749 64.584 225.307 64.8729 228.606L70.1946 377.555C74.6019 382.441 86.5993 377.719 86.5993 377.719C87.2505 373.597 91.2353 255.115 92.3953 242.522H94.5818C95.7375 255.115 99.7223 373.597 100.378 377.719C100.378 377.719 112.367 382.441 116.778 377.555L122.1 228.606C122.389 225.307 122.561 221.749 122.488 218.338Z" fill="#2D394D"/>
<path d="M109.555 155.504L111.267 107.187C107.092 106.311 99.6144 105.928 97.7385 105.483H90.2477C87.2117 106.199 78.8196 107.083 74.1319 108.256V155.504H109.555Z" fill="#F57F26"/>
<path d="M134.05 119.931C134.106 110.258 117.201 108.36 117.201 108.36C115.29 107.852 112.634 107.399 109.969 106.98C109.969 106.98 102.974 138.306 97.6221 147.41L95.4529 148.566L93.288 147.41C87.9319 138.306 80.9413 106.98 80.9413 106.98C78.2719 107.399 75.624 107.852 73.7049 108.36C73.7049 108.36 56.7956 110.258 56.8603 119.931C56.8603 119.931 65.7656 187.926 64.0708 200.829C64.0708 200.829 59.754 249.862 60.4699 274.215C60.4699 274.215 80.3764 280.779 94.9828 280.735C94.9828 280.735 95.1467 280.757 95.4529 280.779C95.7591 280.757 95.9229 280.735 95.9229 280.735C110.529 280.779 130.44 274.215 130.44 274.215C131.152 249.862 126.839 200.829 126.839 200.829C125.144 187.926 134.05 119.931 134.05 119.931Z" fill="#F57F26"/>
<path d="M85.5902 78.6729C85.5902 78.6729 87.0607 95.0129 84.5164 107.933C84.5164 107.933 90.0105 118.417 94.7715 119.551C94.7715 119.551 102.439 111.34 105.169 107.256C105.169 107.256 101.085 97.2252 102.875 78.6729H85.5902Z" fill="#D68259"/>
<path d="M103.966 103.069C103.366 100.438 102.728 96.6002 102.504 91.6279H85.9999C85.9697 93.6936 85.8964 95.893 85.7454 98.1139C89.5318 100.369 96.7984 103.884 103.966 103.069Z" fill="#C76747"/>
<path d="M122.747 65.2736C122.988 63.7728 123.174 62.2548 123.139 60.7584C123.109 60.0253 123.014 59.2533 122.695 58.6754C122.587 58.5331 122.54 58.4124 122.402 58.3391C122.367 58.3175 122.242 58.2959 122.121 58.3563C121.858 58.4512 121.587 58.7186 121.349 58.9773C120.875 59.5207 120.483 60.1633 120.103 60.8101C119.732 61.4527 119.383 62.1255 119.072 62.8068C118.753 63.4925 118.473 64.1911 118.223 64.9027C117.96 65.6013 117.731 66.3258 117.619 67.0503V67.0158C117.658 67.6282 117.761 68.2578 117.981 68.84C118.093 69.1203 118.257 69.392 118.495 69.5774C118.611 69.668 118.758 69.7327 118.909 69.7543C119.059 69.7974 119.219 69.7586 119.379 69.7413C119.228 69.7801 119.068 69.8405 118.9 69.8233C118.736 69.8276 118.564 69.7715 118.426 69.681C118.137 69.5041 117.925 69.2238 117.77 68.9349C117.464 68.3398 117.304 67.7015 117.227 67.0417V67.0115C117.391 65.4374 117.917 63.9798 118.525 62.5653C119.15 61.1594 119.836 59.7665 120.901 58.5719C121.186 58.283 121.462 57.9768 121.923 57.8043C122.147 57.7181 122.449 57.6793 122.742 57.8733C122.872 57.9768 122.872 57.9682 122.992 58.1191L123.178 58.3994C123.588 59.1714 123.579 59.9908 123.579 60.7584C123.527 62.3109 123.195 63.8203 122.747 65.2736Z" fill="#993F45"/>
<path d="M120 64.9078C120 64.9078 120.004 65.0458 120.064 65.2614C120.099 65.3649 120.151 65.4943 120.25 65.5891L120.422 65.7099L120.47 65.7358C120.345 65.6969 120.513 65.7358 120.44 65.7099L120.414 65.6668C120.578 65.3692 120.681 64.8991 120.797 64.4334C120.914 63.9547 121.03 63.4458 121.121 62.9326C121.22 62.4238 121.293 61.9106 121.341 61.4276C121.38 60.9575 121.41 60.5004 121.306 60.1597C121.229 59.819 120.992 59.6594 120.75 59.6853C120.53 59.6853 120.392 59.7414 120.392 59.7328C120.401 59.7414 120.496 59.6379 120.733 59.5603C120.849 59.5171 121.017 59.4999 121.207 59.5689C121.397 59.6422 121.552 59.8233 121.651 60.0303C122.027 60.8626 121.945 61.9882 121.759 63.0534C121.651 63.5881 121.518 64.1143 121.345 64.5973C121.173 65.0846 120.987 65.5072 120.711 65.8824C120.659 65.9255 120.651 65.9902 120.474 66.0463C120.366 66.0549 120.474 66.0678 120.314 66.0247L120.245 65.9686L120.051 65.7271C119.961 65.5589 119.948 65.4037 119.944 65.2786C119.944 65.0371 120 64.9078 120 64.9078Z" fill="#993F45"/>
<path d="M67.1068 65.2736C66.6583 63.8203 66.3262 62.3109 66.2745 60.7584C66.2745 59.9908 66.2616 59.1714 66.6756 58.3994L66.8567 58.1191C66.9731 57.9682 66.9731 57.9768 67.1111 57.8733C67.4001 57.6793 67.7062 57.7181 67.9305 57.8043C68.3876 57.9768 68.6679 58.283 68.9526 58.5719C70.0134 59.7665 70.7034 61.1594 71.3244 62.5653C71.9368 63.9798 72.4672 65.4374 72.6268 67.0115V67.0417C72.5492 67.7015 72.3939 68.3441 72.0834 68.9349C71.9282 69.2238 71.7169 69.5085 71.4279 69.681C71.2899 69.7715 71.1131 69.8276 70.9536 69.8233C70.7811 69.8405 70.6258 69.7801 70.4749 69.7413C70.6344 69.7586 70.7897 69.7974 70.9449 69.7543C71.0959 69.737 71.2425 69.668 71.3546 69.5774C71.4797 69.4912 71.5746 69.3661 71.6608 69.2454C71.7471 69.116 71.8117 68.978 71.8721 68.84C72.0921 68.2621 72.1956 67.6282 72.2344 67.0158V67.0503C72.1222 66.3258 71.8894 65.6013 71.6306 64.9027C71.3762 64.1911 71.1002 63.4925 70.7811 62.8068C70.4706 62.1255 70.1212 61.4527 69.7461 60.8101C69.3666 60.1633 68.9741 59.5207 68.4954 58.9773C68.2669 58.7186 67.9952 58.4512 67.7321 58.3563C67.6071 58.2959 67.482 58.3175 67.4518 58.3391C67.3095 58.4124 67.2621 58.5331 67.1586 58.6754C66.8394 59.2533 66.7446 60.0253 66.7101 60.7584C66.6799 62.2548 66.8653 63.7728 67.1068 65.2736Z" fill="#993F45"/>
<path d="M118.624 30.7354H70.9104C70.9104 30.7354 71.4064 76.5902 75.9647 85.5817C80.4669 94.487 89.8207 98.5235 94.7672 98.3898C99.8085 98.5235 109.063 94.487 113.574 85.5817C118.128 76.5902 118.624 30.7354 118.624 30.7354Z" fill="#F8A176"/>
<path d="M91.8907 86.927C91.8907 86.927 95.8712 87.5954 99.0236 86.707C99.0236 86.707 95.6987 92.3823 91.8907 86.927Z" fill="#D68259"/>
<path d="M88.0957 80.1611H103.496C103.496 80.1611 95.7979 90.8777 88.0957 80.1611Z" fill="#FFFDFC"/>
<path d="M96.9838 74.5679C96.9838 74.5679 97.7989 74.1754 98.8856 73.4423C99.4117 73.0628 100.033 72.597 100.455 71.9804C100.667 71.6785 100.792 71.3378 100.8 71.0144C100.792 70.8548 100.779 70.6909 100.718 70.5314C100.658 70.3761 100.559 70.1217 100.468 69.9621C100.115 69.2247 99.6446 68.4527 99.2824 67.6765C98.9201 66.9045 98.67 66.0981 98.6139 65.3779C98.5881 65.0243 98.5924 64.6879 98.6484 64.4033C98.6872 64.1144 98.7735 63.8772 98.8382 63.6874C98.9977 63.3079 99.1228 63.1182 99.1228 63.1182C99.1228 63.1182 99.1099 63.3554 99.0969 63.7392C99.1056 64.1187 99.1487 64.6534 99.3341 65.2442C99.5109 65.8437 99.8257 66.4992 100.218 67.2107C100.606 67.9266 101.059 68.6813 101.408 69.5826C101.508 69.8284 101.542 69.9923 101.624 70.2554C101.697 70.5227 101.723 70.8074 101.702 71.0834C101.633 71.6354 101.37 72.1011 101.068 72.4547C100.77 72.8127 100.421 73.0714 100.093 73.2957C99.7567 73.5242 99.4247 73.701 99.1185 73.8434C97.8722 74.4255 96.9838 74.5679 96.9838 74.5679Z" fill="#993F45"/>
<path d="M69.8539 64.9078C69.8539 64.9078 69.9099 65.0371 69.9099 65.2786C69.9056 65.4037 69.8884 65.5589 69.8021 65.7271L69.6081 65.9686L69.5434 66.0247C69.3795 66.0678 69.4916 66.0549 69.3795 66.0463C69.1984 65.9902 69.1941 65.9212 69.1466 65.8824C68.8706 65.5072 68.6809 65.0846 68.5041 64.5929C68.3359 64.1143 68.2022 63.5881 68.0944 63.0534C67.9089 61.9882 67.827 60.8583 68.2065 60.026C68.3014 59.8233 68.4523 59.6422 68.6464 59.5689C68.8361 59.4999 69.0043 59.5171 69.1207 59.5603C69.3622 59.6379 69.4571 59.7414 69.4614 59.7328C69.4614 59.7414 69.3234 59.6853 69.1035 59.6853C68.862 59.6594 68.6248 59.8147 68.5429 60.1597C68.4394 60.5004 68.4739 60.9532 68.5084 61.4276C68.5558 61.9063 68.6291 62.4238 68.7326 62.9326C68.8232 63.4458 68.9396 63.9547 69.0517 64.4334C69.1768 64.8991 69.276 65.3649 69.4399 65.6668L69.414 65.7099C69.3364 65.7358 69.5089 65.6969 69.3838 65.7358L69.4312 65.7142L69.5994 65.5891C69.7029 65.4943 69.7547 65.3649 69.7892 65.2614C69.8496 65.0458 69.8539 64.9078 69.8539 64.9078Z" fill="#993F45"/>
<path d="M87.9621 61.4445C87.9621 63.4024 86.8882 64.998 85.5643 64.998C84.2404 64.998 83.1622 63.4024 83.1622 61.4445C83.1622 59.4823 84.2404 57.8867 85.5643 57.8867C86.8882 57.8867 87.9621 59.4823 87.9621 61.4445Z" fill="#5A303A"/>
<path d="M108.17 61.4445C108.17 63.4024 107.092 64.998 105.768 64.998C104.444 64.998 103.366 63.4024 103.366 61.4445C103.366 59.4823 104.444 57.8867 105.768 57.8867C107.092 57.8867 108.17 59.4823 108.17 61.4445Z" fill="#5A303A"/>
<path d="M80.8335 53.6084C80.8335 53.6084 87.2203 51.5772 90.7781 51.5427C90.7781 51.5427 90.2434 48.9422 89.5146 48.6016C89.5146 48.6016 84.8096 49.3606 81.0664 51.8489C81.0664 51.8489 80.6437 52.651 80.8335 53.6084Z" fill="#2B3144"/>
<path d="M110.909 53.3369C110.909 53.3369 104.522 51.31 100.964 51.2755C100.964 51.2755 101.499 48.6751 102.223 48.3301C102.223 48.3301 106.928 49.0934 110.68 51.5774C110.68 51.5774 111.099 52.3838 110.909 53.3369Z" fill="#2B3144"/>
<path d="M81.9116 36.6043C78.0347 45.4535 74.3173 48.6016 74.3173 48.6016C74.6192 50.0161 74.3777 61.9359 73.3901 62.186C72.4112 62.4318 72.0188 59.6071 72.0188 59.6071C62.997 20.372 82.0798 17.9139 82.0798 17.9139C120.392 9.71582 121.186 37.1951 121.186 37.1951C121.203 58.6929 116.325 63.4108 115.536 63.1175C114.747 62.8199 115.536 50.0463 115.536 50.0463C112.949 48.3299 109.309 40.52 109.141 36.7681C109.141 36.7681 102.461 38.7346 95.7979 38.7346C89.1308 38.7346 81.9116 36.6043 81.9116 36.6043Z" fill="#2B3144"/>
<path d="M87.3411 60.2761C87.3411 60.9187 87.0306 61.4405 86.6597 61.4405C86.2845 61.4405 85.9826 60.9187 85.9826 60.2761C85.9826 59.6335 86.2845 59.1074 86.6597 59.1074C87.0306 59.1074 87.3411 59.6335 87.3411 60.2761Z" fill="#FFFDFC"/>
<path d="M107.511 60.2761C107.511 60.9187 107.204 61.4405 106.834 61.4405C106.463 61.4405 106.156 60.9187 106.156 60.2761C106.156 59.6335 106.463 59.1074 106.834 59.1074C107.204 59.1074 107.511 59.6335 107.511 60.2761Z" fill="#FFFDFC"/>
<path d="M57.8953 278.614L62.5701 183.782C69.9444 173.453 68.1461 108.701 68.1461 108.701L72.4931 107.8L78.4789 148.536C83.7832 148.717 89.7862 148.799 95.2372 148.833C100.697 148.799 106.696 148.717 112 148.536L117.986 107.8L122.337 108.701C122.337 108.701 120.526 173.453 127.909 183.782L132.583 278.614C132.583 278.614 98.4975 296.316 57.8953 278.614Z" fill="#C92C2C"/>
<path d="M132.583 154.965C132.583 155.685 131.997 156.276 131.277 156.276H61.5351C60.8149 156.276 60.2284 155.685 60.2284 154.965C60.2284 154.241 60.8149 153.654 61.5351 153.654H131.277C131.997 153.654 132.583 154.241 132.583 154.965Z" fill="#A3C4CA"/>
<path d="M35.4703 138.608L3.39392 165.557H17.6209L45.057 149.752L35.4703 138.608Z" fill="#D68259"/>
<path d="M60.2284 113.462L27.4577 140.803L34.086 159.584L60.2284 145.129V113.462Z" fill="#F57F26"/>
<path d="M28.8334 137.612L40.7574 157.221L33.8747 162.06L22.5026 142.421L28.8334 137.612Z" fill="#F6A33F"/>
<path d="M64.0579 156.492C64.0579 156.492 11.0702 177.442 4.80843 175.16C0.146621 173.461 -0.0388165 165.863 5.0715 163.68C10.1775 161.494 62.1129 150.527 62.1129 150.527L64.0579 156.492Z" fill="#F8A176"/>
<path d="M155.586 138.608L187.663 165.557H173.44L146 149.752L155.586 138.608Z" fill="#D68259"/>
<path d="M130.833 113.462L163.603 140.803L156.975 159.584L130.833 145.129V113.462Z" fill="#F57F26"/>
<path d="M162.228 137.612L150.299 157.221L157.186 162.06L168.558 142.421L162.228 137.612Z" fill="#F6A33F"/>
<path d="M127.003 156.492C127.003 156.492 179.991 177.442 186.248 175.16C190.914 173.461 191.1 165.863 185.989 163.68C180.879 161.494 128.948 150.527 128.948 150.527L127.003 156.492Z" fill="#F8A176"/>
<path d="M135.046 151.77C135.046 151.77 128.534 147.694 126.477 151.373L125.636 155.491C125.636 155.491 118.219 154.09 116.386 157.216C116.386 157.216 116.088 158.044 117.567 158.109C117.567 158.109 114.644 160.002 117.434 160.977C117.434 160.977 115.045 162.383 117.335 163.172C117.335 163.172 116.006 164.625 118.874 165.44C122.294 166.402 131.186 168.968 134.852 155.914L135.046 151.77Z" fill="#F8A176"/>
<path d="M56.1962 151.77C56.1962 151.77 62.7081 147.694 64.7651 151.373L65.6061 155.491C65.6061 155.491 73.0236 154.09 74.8607 157.216C74.8607 157.216 75.1539 158.044 73.6747 158.109C73.6747 158.109 76.5986 160.002 73.8084 160.977C73.8084 160.977 76.1976 162.383 73.9119 163.172C73.9119 163.172 75.2402 164.625 72.3681 165.44C68.9526 166.402 60.0516 168.968 56.3946 155.914L56.1962 151.77Z" fill="#F8A176"/>
<path d="M95.7979 75.3736C95.7979 75.3736 92.2487 74.5758 88.6219 75.9903C84.9907 77.4048 81.489 78.9357 79.3327 77.4048C79.3327 77.4048 86.4915 84.184 95.7979 78.6727V75.3736Z" fill="#4D2722"/>
<path d="M112.203 77.4051C110.046 78.9361 106.54 77.4051 102.913 75.9906C99.4549 74.6408 96.0825 75.3006 95.7634 75.3653C95.4529 75.3006 92.0719 74.6408 88.6219 75.9906C84.9907 77.4051 81.489 78.9361 79.3327 77.4051C79.3327 77.4051 86.4742 84.1628 95.7634 78.6903C105.061 84.1628 112.203 77.4051 112.203 77.4051Z" fill="#2B3144"/>
<path d="M73.8947 23.3564C73.8947 23.3564 99.8559 20.7301 116.882 26.1553C116.882 26.1553 112.755 6.58945 110.706 5.89513C101.542 2.78151 99.7352 1.1212 94.3057 0.176758C94.3057 0.176758 85.5988 3.75182 80.5791 5.8132C80.5791 5.8132 75.4386 13.3644 73.8947 23.3564Z" fill="#ABCCEA"/>
<path d="M74.1664 23.3301C75.4558 23.2094 81.2001 22.7178 88.5874 22.7178C90.7911 22.7178 93.15 22.7609 95.5693 22.873C93.1457 22.7652 90.7868 22.7178 88.5788 22.7178C81.2001 22.7178 75.4558 23.2094 74.1664 23.3301Z" fill="#484867"/>
<path d="M73.8947 23.3564C75.4386 13.3644 80.5791 5.8132 80.5791 5.8132C85.5988 3.75182 94.3057 0.176758 94.3057 0.176758C94.4998 0.211258 94.6896 0.245758 94.8707 0.280258C95.1122 0.327696 95.3407 0.379446 95.5693 0.426883V22.8734C93.15 22.7613 90.7911 22.7182 88.5874 22.7182C81.2001 22.7182 75.4558 23.2098 74.1664 23.3306C74.0111 23.3435 73.9206 23.3521 73.899 23.3564H73.8947Z" fill="#9AABD3"/>
<path d="M92.3048 3.84246C90.4849 2.93684 85.5083 4.17021 81.9418 5.25265C81.4718 5.44671 81.0103 5.63646 80.5791 5.81327C80.5791 5.81327 80.0443 6.60246 79.2681 8.00402C84.249 6.26609 90.3641 5.93834 90.3641 5.93834C92.7231 8.49996 93.15 18.8025 93.2276 22.7873C93.8788 22.8088 94.5429 22.8304 95.2071 22.8606C95.1467 18.3281 94.7456 5.06721 92.3048 3.84246Z" fill="#C5242A"/>
<path d="M112.116 8.22354C111.595 6.91254 111.107 6.03279 110.706 5.89479C110.102 5.68779 109.533 5.49372 108.994 5.29966C105.419 4.2086 100.322 2.92347 98.4802 3.84204C96.0307 5.06679 95.634 18.3579 95.5693 22.8731C96.2248 22.9033 96.8846 22.9378 97.5531 22.9766C97.6177 19.1385 98.0188 8.53403 100.425 5.93791C100.425 5.93791 107.032 6.29585 112.116 8.22354Z" fill="#C5242A"/>
<path d="M69.6771 151.408H69.6814C69.6814 152.602 70.6215 153.564 71.7773 153.564H99.2048C100.369 153.564 101.305 152.602 101.305 151.408V150.416H69.6771V151.408Z" fill="#E79731"/>
<path d="M101.577 149.536L100.874 149.221L70.0221 149.109L69.1466 149.342C69.1466 149.342 68.5515 150.205 68.6162 151.059L69.6512 150.748C69.6512 150.748 69.5692 151.291 69.6512 151.723C69.6512 151.723 70.7811 151.059 71.2339 151.097L70.9449 151.994C70.9449 151.994 72.6096 151.015 73.2521 150.981V151.723C73.2521 151.723 74.796 150.821 75.486 150.765V151.762C75.486 151.762 76.9436 150.709 77.7932 150.765L77.9959 151.684C77.9959 151.684 79.1689 151.015 79.902 150.765L80.1392 151.645C80.1392 151.645 81.1569 150.903 81.765 150.765L82.3299 151.762C82.3299 151.762 83.3822 150.903 83.8695 150.765L85.2883 151.529L86.7071 150.765C87.1944 150.903 88.2467 151.762 88.2467 151.762L88.8159 150.765C89.4197 150.903 90.4331 151.645 90.4331 151.645L90.6746 150.765C91.4077 151.015 92.5807 151.684 92.5807 151.684L92.7834 150.765C93.633 150.709 95.0949 151.762 95.0949 151.762V150.765C95.7849 150.821 97.3202 151.723 97.3202 151.723V150.981C97.9671 151.015 99.6317 151.994 99.6317 151.994L99.3471 151.097C99.7912 151.059 100.925 151.723 100.925 151.723C101.007 151.291 100.925 150.748 100.925 150.748L101.965 151.059C102.029 150.205 101.577 149.536 101.577 149.536Z" fill="#40B93C"/>
<path d="M101.814 146.901C101.814 148.001 100.559 148.898 99.0107 148.898H71.5659C70.0178 148.898 68.7628 148.001 68.7628 146.901V146.418C68.7628 145.314 70.0178 144.417 71.5659 144.417H99.0107C100.559 144.417 101.814 145.314 101.814 146.418V146.901Z" fill="#502C1C"/>
<path d="M69.207 144.404C69.207 144.404 72.6527 146.508 74.9297 147.561C74.9297 147.561 78.1943 146.741 84.7363 143.477C84.7363 143.477 71.484 140.73 69.207 144.404Z" fill="#E4A759"/>
<path d="M99.2134 145.309C99.2134 145.309 95.7634 147.409 93.4907 148.457C93.4907 148.457 90.2218 147.642 83.6841 144.373C83.6841 144.373 96.9364 141.635 99.2134 145.309Z" fill="#E4A759"/>
<path d="M101.577 143.477L100.925 142.148H69.6512L69 143.477C69 143.477 68.5515 144.137 68.6162 144.99L69.6512 144.68C69.6512 144.68 69.5692 145.223 69.6512 145.65C69.6512 145.65 70.7811 144.99 71.2339 145.034L70.9449 145.922C70.9449 145.922 72.6096 144.952 73.2521 144.913V145.65C73.2521 145.65 74.796 144.758 75.486 144.701V145.689C75.486 145.689 76.9436 144.637 77.7932 144.701L77.9959 145.611C77.9959 145.611 79.1689 144.952 79.902 144.701L80.1392 145.573C80.1392 145.573 81.1569 144.835 81.765 144.701L82.3299 145.689C82.3299 145.689 83.3822 144.835 83.8695 144.701L85.2883 145.46L86.7071 144.701C87.1944 144.835 88.2467 145.689 88.2467 145.689L88.8159 144.701C89.4197 144.835 90.4331 145.573 90.4331 145.573L90.6746 144.701C91.4077 144.952 92.5807 145.611 92.5807 145.611L92.7834 144.701C93.633 144.637 95.0949 145.689 95.0949 145.689V144.701C95.7849 144.758 97.3202 145.65 97.3202 145.65V144.913C97.9671 144.952 99.6317 145.922 99.6317 145.922L99.3471 145.034C99.7912 144.99 100.925 145.65 100.925 145.65C101.007 145.223 100.925 144.68 100.925 144.68L101.965 144.99C102.029 144.137 101.577 143.477 101.577 143.477Z" fill="#40B93C"/>
<path d="M102.392 142.813C102.392 143.175 101.982 143.477 101.469 143.477H69.2113C68.6938 143.477 68.2841 143.175 68.2841 142.813C68.2841 142.45 68.6938 142.148 69.2113 142.148H101.469C101.982 142.148 102.392 142.45 102.392 142.813Z" fill="#E93334"/>
<path d="M101.529 149.342C101.529 149.713 101.132 150.006 100.654 150.006H70.0264C69.5434 150.006 69.1466 149.713 69.1466 149.342C69.1466 148.98 69.5434 148.687 70.0264 148.687H100.654C101.132 148.687 101.529 148.98 101.529 149.342Z" fill="#E93334"/>
<path d="M102.284 141.26C102.284 131.91 94.8405 129.97 85.491 129.97C76.1415 129.97 68.4264 131.91 68.4264 141.26L69.0086 142.148H101.568L102.284 141.26Z" fill="#F5AA30"/>
<path d="M117.253 129.97L121.298 111.306C121.466 110.547 122.238 109.766 122.988 109.589L128.271 108.352L128.142 107.8L122.859 109.037C121.888 109.262 120.961 110.21 120.746 111.185L116.701 129.85L117.253 129.97Z" fill="#A6D1E3"/>
<path d="M107.373 153.443H121.25L123.23 123.622H105.389L107.373 153.443Z" fill="#E4273C"/>
<path d="M107.373 153.443L107.256 151.679C120.539 151.002 121.061 125.347 121.061 125.347H105.505L105.389 123.622H123.23L121.25 153.443H107.373Z" fill="#BA2631"/>
<path d="M104.824 123.838C104.798 123.739 104.781 123.631 104.781 123.527C104.781 122.833 105.341 122.264 106.036 122.264H122.587C123.277 122.264 123.842 122.833 123.842 123.527C123.842 123.631 123.825 123.739 123.799 123.838H104.824Z" fill="#A6D1E3"/>
<path d="M339.346 384.86H333.624V249.784H339.346V384.86Z" fill="#261E1F"/>
<path d="M333.568 382.704L315.675 397.682C315.675 397.682 313.683 399.98 313.187 402.52C313.187 402.52 313.057 405.931 319.526 403.827C325.999 401.727 339.169 396.556 343.396 389.725C343.396 389.725 344.159 385.525 342.788 381.915L333.568 382.704Z" fill="#1F2127"/>
<path d="M337.078 373.147V379.797L320.397 393.632C320.397 393.632 315.546 404.159 342.788 381.915V374.799L337.078 373.147Z" fill="#F29B68"/>
<path d="M313.752 400.765C313.752 400.765 312.372 404.776 322.23 401.727C322.23 401.727 339.605 395.016 343.56 388.302C343.56 388.302 343.93 389.85 343.611 391.321C343.611 391.321 342.421 394.288 336.517 397.569C336.517 397.569 308.452 412.573 313.752 400.765Z" fill="#1A191D"/>
<path d="M295.704 382.704L277.811 397.682C277.811 397.682 275.815 399.98 275.319 402.52C275.319 402.52 275.194 405.931 281.654 403.827C288.135 401.727 301.306 396.556 305.532 389.725C305.532 389.725 306.295 385.525 304.924 381.915L295.704 382.704Z" fill="#1F2127"/>
<path d="M299.206 373.147V379.797L282.533 393.632C282.533 393.632 277.682 404.159 304.924 381.915V374.799L299.206 373.147Z" fill="#F29B68"/>
<path d="M275.879 400.765C275.879 400.765 274.508 404.776 284.362 401.727C284.362 401.727 301.737 395.016 305.696 388.302C305.696 388.302 306.067 389.85 305.748 391.321C305.748 391.321 304.553 394.288 298.654 397.569C298.654 397.569 270.583 412.573 275.879 400.765Z" fill="#1A191D"/>
<path d="M405.263 198.518V384.861H399.54V198.518H405.263Z" fill="#261E1F"/>
<path d="M333.624 202.023C333.624 202.61 334.098 203.08 334.676 203.08H412.883C413.465 203.08 413.935 202.61 413.935 202.023V135.464C413.935 134.886 413.465 134.416 412.883 134.416H334.676C334.098 134.416 333.624 134.886 333.624 135.464V202.023Z" fill="#DAA78C"/>
<path d="M330.195 202.023C330.195 202.61 330.67 203.08 331.252 203.08H409.455C410.041 203.08 410.511 202.61 410.511 202.023V135.464C410.511 134.886 410.041 134.416 409.455 134.416H331.252C330.67 134.416 330.195 134.886 330.195 135.464V202.023Z" fill="#C18A67"/>
<path d="M365.01 76.8701C365.01 76.8701 362.634 111.944 366.213 114.945C369.784 117.938 380.444 123.712 377.335 133.588C374.226 143.464 344.672 133.588 344.672 133.588L326.926 131.923C326.926 131.923 320.259 120.431 328.479 111.422C336.694 102.4 336.996 91.8561 336.996 91.8561L365.01 76.8701Z" fill="#372122"/>
<path d="M329.014 125.502C329.014 125.502 342.029 128.047 319.962 172.763C319.962 172.763 309.469 177.006 305.183 162.974C305.183 162.974 318.513 121.612 329.014 125.502Z" fill="#B4358A"/>
<path d="M315.942 396.069H310.22V260.997H315.942V396.069Z" fill="#261E1F"/>
<path d="M366.153 396.069H360.43V260.997H366.153V396.069Z" fill="#261E1F"/>
<path d="M303.065 252.536H404.211C404.793 252.536 405.263 253.006 405.263 253.588V263.067C405.263 263.641 404.793 264.115 404.211 264.115H303.065V252.536Z" fill="#C18A67"/>
<path d="M303.065 258.323H405.263V263.067C405.263 263.641 404.793 264.115 404.211 264.115H303.065V258.323Z" fill="#9F7757"/>
<path d="M295.225 260.996L323.14 235.893C322.834 232.361 323.662 232.793 323.739 229.157H374.903C374.981 232.793 380.164 240.107 373.782 252.531L352.663 282.455L345.06 375.713C340.347 380.94 334.253 375.713 334.253 375.713C333.74 372.462 331.429 319.526 331.429 278.902C331.429 271.135 341.507 252.121 341.507 252.121C341.507 252.121 313.269 272.524 313.187 274.615C311.535 316.365 308.154 371.871 307.74 374.911C307.74 374.911 301.025 380.194 296.204 375.058L292.112 276.987C292.112 276.987 290.387 263.89 295.225 260.996Z" fill="#3D749A"/>
<path d="M321.531 237.334L323.14 235.893C322.834 232.361 323.662 232.793 323.739 229.157H374.903C374.98 232.793 380.164 240.107 373.782 252.531L352.663 282.455L345.06 375.713C344.336 376.52 343.573 377.072 342.814 377.443C342.917 360.732 343.4 288.105 343.741 283.193C344.125 277.643 369.34 242.578 369.34 242.578C344.754 246.55 327.202 239.934 321.531 237.334Z" fill="#3A6A8A"/>
<path d="M321.816 235.397C356.35 246.537 376.8 231.046 376.8 231.046C375.123 214.59 369.34 194.114 369.34 194.114C379.409 162.784 378.521 129.59 378.521 129.59C378.521 126.636 359.973 122.496 355.359 121.811L347.937 123.501L339.014 121.811C330.993 123.385 329.803 123.915 326.461 125.243C326.461 125.243 308.887 156.949 322.666 171.077C327.539 176.075 319.009 232.448 321.816 235.397Z" fill="#E744AA"/>
<path d="M346.143 239.43C339.437 239.43 331.735 238.447 323.136 235.816C331.73 238.447 339.437 239.43 346.143 239.43Z" fill="#6D5A8A"/>
<path d="M322.657 208.539C322.735 207.547 322.812 206.547 322.894 205.546V205.542C322.812 206.547 322.735 207.547 322.657 208.539Z" fill="#DDA5C9"/>
<path d="M369.34 194.114C371.841 186.326 373.67 178.425 374.998 170.948C373.67 178.425 371.845 186.326 369.34 194.114Z" fill="#BB687A"/>
<path d="M346.147 239.43C346.143 239.43 346.147 239.43 346.143 239.43C339.437 239.43 331.73 238.447 323.136 235.816C322.769 235.704 322.403 235.588 322.036 235.471C321.963 235.445 321.889 235.424 321.816 235.398C321.169 234.716 321.126 231.197 321.376 226.126C331.89 225.539 354.13 224.121 355.902 222.598C358.231 220.602 363.289 189.741 363.289 189.741C363.289 189.741 353.793 202.619 350.244 204.615C347.316 206.263 329.005 207.988 322.657 208.54C322.735 207.548 322.812 206.547 322.894 205.542C332.942 202.528 342.701 199.548 347.665 197.901C347.665 197.901 355.587 187.771 368.02 169.649L364.122 166.368L365.217 164.699L376.964 144.24L378.107 144.615C377.663 151.791 376.77 160.981 375.006 170.913C375.006 170.917 375.002 170.922 375.002 170.93C375.002 170.935 375.002 170.943 374.998 170.948C373.67 178.425 371.841 186.326 369.34 194.114C369.34 194.114 375.123 214.59 376.8 231.047V231.051C376.649 231.163 365.601 239.426 346.151 239.43C346.147 239.43 346.147 239.43 346.147 239.43Z" fill="#D23D9C"/>
<path d="M230.822 347.307V226.415H238.481V347.023L266.366 407.859H259.121L237.83 361.651V407.859H231.599V361.651L210.312 407.859H203.067L230.822 347.307Z" fill="#261E1F"/>
<path d="M363.604 226.877C363.604 226.976 363.552 227.071 363.436 227.161C359.982 230.107 303.643 232.448 234.647 232.448C163.431 232.448 105.695 229.956 105.695 226.877V215.746H363.604V226.877Z" fill="#99573C"/>
<path d="M105.695 215.746C105.695 218.816 163.431 221.309 234.647 221.309C305.868 221.309 363.604 218.816 363.604 215.746C363.604 212.666 305.868 210.174 234.647 210.174C163.431 210.174 105.695 212.666 105.695 215.746Z" fill="#CF7C52"/>
<path d="M361.681 93.8054C361.681 93.8054 358.421 100.615 355.902 102.318C353.388 104.017 355.902 93.3699 355.902 93.3699L358.127 91.0713L361.681 93.8054Z" fill="#372122"/>
<path d="M363.652 84.0551C363.652 84.0551 376.632 37.7992 332.869 46.6743C332.869 46.6743 307.417 47.1961 319.509 85.7887L356.087 88.7298L363.652 84.0551Z" fill="#372122"/>
<path d="M361.055 83.0676C361.055 83.0676 363.6 78.3152 365.437 79.6262C367.291 80.9458 365.885 96.1043 360.409 94.7027C354.923 93.2925 361.055 83.0676 361.055 83.0676Z" fill="#D68259"/>
<path d="M364.652 89.2728C364.876 87.91 365.049 86.5344 365.014 85.1845C364.988 84.5161 364.898 83.8218 364.609 83.2957C364.514 83.1663 364.471 83.0585 364.342 82.9895C364.311 82.9679 364.199 82.9507 364.087 83.0067C363.859 83.093 363.608 83.3345 363.397 83.5674C362.962 84.059 362.608 84.6455 362.272 85.2234C361.922 85.8099 361.612 86.4179 361.327 87.0389C361.038 87.6556 360.788 88.2895 360.559 88.9321C360.322 89.566 360.115 90.2215 360.012 90.8814V90.8469C360.046 91.4032 360.141 91.9767 360.34 92.4985C360.443 92.753 360.59 92.9988 360.81 93.167C360.913 93.2489 361.042 93.3136 361.18 93.3265C361.318 93.3654 361.461 93.3309 361.607 93.3179C361.469 93.3524 361.323 93.4085 361.172 93.3869C361.025 93.3955 360.87 93.3438 360.745 93.2619C360.482 93.1023 360.292 92.8479 360.15 92.5891C359.869 92.05 359.727 91.4722 359.658 90.8727L359.654 90.8598L359.658 90.8425C359.805 89.4194 360.283 88.0955 360.835 86.8147C361.396 85.5425 362.026 84.2832 362.987 83.1965C363.242 82.9377 363.496 82.666 363.91 82.5065C364.113 82.4332 364.389 82.3987 364.652 82.5712C364.829 82.6833 364.95 82.886 365.053 83.0455C365.42 83.7442 365.407 84.4816 365.407 85.1802C365.359 86.5861 365.066 87.9532 364.652 89.2728Z" fill="#993F45"/>
<path d="M362.172 88.9364C362.172 88.9364 362.177 89.0614 362.233 89.2555L362.401 89.5574L362.552 89.6652L362.591 89.6868C362.487 89.6523 362.634 89.6868 362.569 89.6609L362.543 89.6264C362.69 89.3547 362.785 88.9278 362.893 88.5094C362.996 88.0739 363.104 87.6168 363.186 87.151C363.345 86.2324 363.509 85.2664 363.358 84.6411C363.281 84.3263 363.065 84.184 362.849 84.2056C362.647 84.2099 362.526 84.2573 362.526 84.2487C362.53 84.2616 362.617 84.1624 362.832 84.0934C362.94 84.0546 363.091 84.0417 363.263 84.1021C363.44 84.1668 363.578 84.3306 363.665 84.5161C364.001 85.2664 363.932 86.2971 363.768 87.2588C363.669 87.7375 363.548 88.2205 363.389 88.6561C363.233 89.0959 363.061 89.4798 362.815 89.8204C362.768 89.8549 362.763 89.9196 362.599 89.9714C362.5 89.9757 362.599 89.9843 362.453 89.9498L362.397 89.8981L362.22 89.6824C362.138 89.5272 362.125 89.3849 362.121 89.2771C362.121 89.0485 362.172 88.9364 362.172 88.9364Z" fill="#993F45"/>
<path d="M353.521 96.5568C353.521 96.5568 353.422 112.297 355.902 124.864C355.902 124.864 351.909 134.947 343.141 136.719C343.141 136.719 336.996 135.395 335.827 124.204C335.827 124.204 339.795 114.458 338.057 96.4102L353.521 96.5568Z" fill="#D68259"/>
<path d="M336.996 120.137C337.069 119.818 337.143 119.473 337.216 119.124V119.119C337.716 116.67 338.204 113.367 338.402 109.235L338.419 109.007L353.789 106.199C353.927 108.235 354.281 113.216 354.518 115.428C350.783 117.619 343.853 120.909 336.996 120.137Z" fill="#C76747"/>
<path d="M358.981 62.0867C358.981 62.0867 360.71 92.8305 356.941 101.059C352.87 109.943 341.826 117.037 337.401 117.041C333.697 117.041 328.738 112.746 324.593 106.199C320.509 98.1306 318.746 79.0133 318.746 79.0133C318.746 79.0133 316.952 59.6933 325.456 53.548C330.665 49.7832 356.98 47.0878 358.981 62.0867Z" fill="#F8A176"/>
<path d="M337.401 117.041C336.233 117.041 334.948 116.61 333.598 115.83C356.389 109.391 352.982 83.2745 352.982 83.2745C334.922 83.6454 325.24 64.334 325.24 64.334C325.24 64.334 345.203 66.6843 359.24 68.4783C359.516 77.9399 359.624 95.2072 356.941 101.059C352.87 109.943 341.826 117.037 337.401 117.041Z" fill="#E69168"/>
<path d="M332.153 88.4795C332.623 89.0876 332.972 89.8466 333.102 90.6357C333.253 91.4379 333.218 92.2702 333.037 93.0551C332.86 93.8529 332.55 94.6076 332.136 95.2932C331.929 95.6382 331.713 95.9789 331.467 96.2894C331.213 96.5999 330.959 96.8932 330.648 97.1864L330.764 96.7336C330.795 96.8673 330.859 97.0571 330.928 97.2166C330.997 97.3805 331.079 97.5444 331.17 97.7082C331.347 98.0187 331.545 98.3336 331.795 98.6139C332.278 99.1831 332.903 99.6446 333.602 100.024C333.214 99.9551 332.822 99.8516 332.446 99.6834C332.071 99.5152 331.713 99.2952 331.39 99.0365C331.066 98.7777 330.764 98.4716 330.51 98.1309C330.385 97.9584 330.269 97.7816 330.161 97.5961C330.057 97.4064 329.967 97.2296 329.876 96.9881L329.794 96.7681L329.993 96.5309C330.2 96.2808 330.428 95.9746 330.622 95.6727C330.816 95.3709 331.019 95.069 331.187 94.7542C331.532 94.1202 331.834 93.4734 332.041 92.792C332.257 92.1192 332.386 91.4163 332.403 90.6961C332.429 89.9716 332.326 89.2428 332.153 88.4795Z" fill="#993F45"/>
<path d="M339.734 87.2677C339.734 88.6779 340.506 89.8207 341.459 89.8207C342.412 89.8207 343.189 88.6779 343.189 87.2677C343.189 85.8489 342.412 84.7061 341.459 84.7061C340.506 84.7061 339.734 85.8489 339.734 87.2677Z" fill="#5A303A"/>
<path d="M324.089 87.2677C324.089 88.6779 324.856 89.8207 325.809 89.8207C326.771 89.8207 327.543 88.6779 327.543 87.2677C327.543 85.8489 326.771 84.7061 325.809 84.7061C324.856 84.7061 324.089 85.8489 324.089 87.2677Z" fill="#5A303A"/>
<path d="M339.29 78.3497C339.29 78.3497 339.372 78.1902 339.648 77.9659C339.778 77.8279 339.946 77.746 340.157 77.6339C340.355 77.5088 340.597 77.3924 340.869 77.332C341.14 77.2587 341.447 77.1509 341.77 77.125C342.08 77.0991 342.421 77.0948 342.77 77.0991C343.124 77.0948 343.465 77.1897 343.814 77.2802C344.159 77.3665 344.517 77.4527 344.866 77.5433C345.216 77.6166 345.543 77.7719 345.88 77.8797C346.208 78.0047 346.531 78.1212 346.846 78.2376C347.156 78.3454 347.458 78.4576 347.721 78.6128C347.993 78.7508 348.247 78.8845 348.485 79.0009C349.416 79.4926 350.037 79.8203 350.037 79.8203L349.985 79.9367C349.985 79.9367 349.317 79.7297 348.316 79.4236C347.816 79.2812 347.255 79.0484 346.617 78.9319C346.302 78.8672 345.983 78.7939 345.651 78.7249C345.319 78.6602 344.991 78.5567 344.659 78.5309C343.982 78.4877 343.305 78.4015 342.701 78.4187C342.395 78.4101 342.102 78.3886 341.817 78.3497C341.541 78.3239 341.291 78.3497 341.041 78.3325C340.791 78.3109 340.567 78.3109 340.368 78.3368C340.174 78.3541 339.976 78.3411 339.842 78.367C339.562 78.3972 339.364 78.4532 339.364 78.4532L339.29 78.3497Z" fill="#372122"/>
<path d="M328.953 79.057C328.953 79.057 328.431 78.8802 327.642 78.6128C327.276 78.4791 326.862 78.3842 326.443 78.2635C326.228 78.2247 326.012 78.1384 325.784 78.1082C325.555 78.0435 325.318 78.0651 325.076 78.0608C324.835 78.0824 324.598 78.1427 324.356 78.1945C324.136 78.2894 323.89 78.354 323.679 78.4705C323.468 78.5912 323.256 78.7077 323.062 78.8198C322.877 78.9578 322.704 79.0872 322.549 79.2079C322.208 79.4365 322.001 79.7168 321.812 79.872C321.635 80.0359 321.536 80.1351 321.536 80.1351L321.432 80.0575C321.432 80.0575 321.506 79.941 321.635 79.7297C321.777 79.5314 321.937 79.2036 322.23 78.8888C322.368 78.7292 322.523 78.5481 322.687 78.3584C322.868 78.1902 323.08 78.022 323.291 77.8409C323.511 77.6727 323.778 77.5476 324.033 77.388C324.304 77.2673 324.598 77.1465 324.899 77.0646C325.512 76.918 326.172 76.8576 326.762 76.987C327.047 77.0732 327.323 77.1595 327.547 77.3104C327.785 77.4355 327.992 77.5864 328.164 77.7374C328.509 78.0435 328.738 78.3454 328.863 78.5912C329.001 78.8198 329.044 78.9707 329.044 78.9707L328.953 79.057Z" fill="#372122"/>
<path d="M359.503 86.1419C359.503 86.1419 355.238 83.0067 355.462 75.4555C355.462 75.4555 337.824 83.977 325.24 64.657C325.24 64.657 319.634 70.3538 319.634 79.3971L319.617 86.1419C319.617 86.1419 316.447 74.1143 316.632 72.3376C316.818 70.5608 320.906 54.2121 326.56 51.3271C332.213 48.442 344.207 48.2178 344.207 48.2178L358.813 54.1518L360.641 73.0793L359.503 86.1419Z" fill="#372122"/>
<path d="M341.942 102.499C341.942 102.499 336.78 104.621 328.651 102.775C328.651 102.775 335.301 112.487 341.942 102.499Z" fill="#E7E6E6"/>
<path d="M358.231 161.408L342.658 184.933L289.96 210.174L291.051 214.978C291.051 214.978 335.004 202.11 347.665 197.901C347.665 197.901 355.587 187.771 368.02 169.649L358.231 161.408Z" fill="#F8A176"/>
<path d="M360.892 179.879C357.562 178.085 354.41 173.656 352.361 170.279L358.231 161.408L368.02 169.649C365.437 173.41 363.052 176.825 360.892 179.879Z" fill="#DE815B"/>
<path d="M377.477 128.228C377.477 128.228 390.493 130.777 368.421 175.485C368.421 175.485 358.231 176.088 353.647 165.7C353.647 165.7 366.977 124.343 377.477 128.228Z" fill="#E56ABC"/>
<path d="M246.446 206.103C246.446 206.103 239.322 202.817 231.055 203.111C231.055 203.111 226.126 202.287 215.724 209.989C215.724 209.989 215.767 212.512 220.024 210.015C224.28 207.518 229.744 206.496 231.185 207.79C231.185 207.79 233.384 209.687 234.639 210.494C234.639 210.494 228.657 211.52 227.549 213.241C226.441 214.961 229.507 214.245 231.637 214.077C233.768 213.909 237.649 214 239.348 214.004C241.66 214.013 245.511 212.831 247.378 211.166L246.446 206.103Z" fill="#F8A176"/>
<path d="M306.938 274.314C306.938 274.314 315.942 260.997 321.531 256.56C327.12 252.126 341.507 252.122 341.507 252.122C341.507 252.122 313.269 272.525 313.187 274.616C311.535 316.365 308.154 371.872 307.74 374.912C307.74 374.912 306.627 375.787 304.984 376.482L306.938 274.314Z" fill="#3A6A8A"/>
<path d="M294.199 182.207L305.786 164.698C308.223 171.046 312.078 172.926 315.153 173.284C305.282 187.395 299.197 195.175 299.197 195.175C286.54 199.388 242.587 212.248 242.587 212.248L241.5 207.444L294.199 182.207Z" fill="#F8A176"/>
<path d="M184.7 214.081C184.7 214.995 185.442 215.745 186.356 215.745H274.529C275.448 215.745 276.185 214.995 276.185 214.081C276.185 213.167 275.448 212.425 274.529 212.425H186.356C185.442 212.425 184.7 213.167 184.7 214.081Z" fill="#A3C4CA"/>
<path d="M264.235 209.588C264.235 211.093 263.045 212.318 261.579 212.318H226.902C225.436 212.318 224.241 211.093 224.241 209.588V208.333H264.235V209.588Z" fill="#E79731"/>
<path d="M223.905 207.229L224.793 206.823L263.8 206.677L264.908 206.983C264.908 206.983 265.659 208.065 265.581 209.144L264.274 208.751C264.274 208.751 264.374 209.441 264.274 209.984C264.274 209.984 262.838 209.144 262.278 209.195L262.636 210.325C262.636 210.325 260.535 209.096 259.712 209.049V209.984C259.712 209.984 257.771 208.85 256.896 208.777V210.032C256.896 210.032 255.054 208.704 253.976 208.777L253.717 209.933C253.717 209.933 252.234 209.096 251.311 208.777L251 209.881C251 209.881 249.72 208.949 248.956 208.777L248.24 210.032C248.24 210.032 246.908 208.949 246.291 208.777L244.497 209.73L242.708 208.777C242.091 208.949 240.758 210.032 240.758 210.032L240.042 208.777C239.27 208.949 237.99 209.881 237.99 209.881L237.683 208.777C236.765 209.096 235.277 209.933 235.277 209.933L235.023 208.777C233.945 208.704 232.103 210.032 232.103 210.032V208.777C231.232 208.85 229.283 209.984 229.283 209.984V209.049C228.468 209.096 226.363 210.325 226.363 210.325L226.725 209.195C226.156 209.144 224.724 209.984 224.724 209.984C224.621 209.441 224.724 208.751 224.724 208.751L223.418 209.144C223.336 208.065 223.905 207.229 223.905 207.229Z" fill="#40B93C"/>
<path d="M223.607 203.891C223.607 205.284 225.194 206.418 227.148 206.418H261.851C263.804 206.418 265.387 205.284 265.387 203.891V203.274C265.387 201.881 263.804 200.747 261.851 200.747H227.148C225.194 200.747 223.607 201.881 223.607 203.274V203.891Z" fill="#502C1C"/>
<path d="M264.831 200.738C264.831 200.738 260.479 203.39 257.599 204.719C257.599 204.719 253.467 203.688 245.2 199.552C245.2 199.552 261.954 196.085 264.831 200.738Z" fill="#E4A759"/>
<path d="M226.898 201.876C226.898 201.876 231.249 204.524 234.13 205.857C234.13 205.857 238.261 204.822 246.528 200.695C246.528 200.695 229.774 197.223 226.898 201.876Z" fill="#E4A759"/>
<path d="M223.905 199.553L224.724 197.884H264.274L265.094 199.553C265.094 199.553 265.659 200.394 265.581 201.476L264.274 201.079C264.274 201.079 264.374 201.769 264.274 202.308C264.274 202.308 262.838 201.476 262.278 201.524L262.636 202.653C262.636 202.653 260.535 201.424 259.712 201.377V202.308C259.712 202.308 257.771 201.179 256.896 201.105V202.356C256.896 202.356 255.054 201.028 253.976 201.105L253.717 202.257C253.717 202.257 252.234 201.424 251.311 201.105L251 202.209C251 202.209 249.72 201.278 248.956 201.105L248.24 202.356C248.24 202.356 246.908 201.278 246.291 201.105L244.497 202.063L242.708 201.105C242.091 201.278 240.758 202.356 240.758 202.356L240.042 201.105C239.27 201.278 237.99 202.209 237.99 202.209L237.683 201.105C236.765 201.424 235.277 202.257 235.277 202.257L235.023 201.105C233.945 201.028 232.103 202.356 232.103 202.356V201.105C231.232 201.179 229.283 202.308 229.283 202.308V201.377C228.468 201.424 226.363 202.653 226.363 202.653L226.725 201.524C226.156 201.476 224.724 202.308 224.724 202.308C224.621 201.769 224.724 201.079 224.724 201.079L223.418 201.476C223.336 200.394 223.905 199.553 223.905 199.553Z" fill="#40B93C"/>
<path d="M222.87 198.72C222.87 199.182 223.396 199.553 224.039 199.553H264.831C265.473 199.553 265.999 199.182 265.999 198.72C265.999 198.259 265.473 197.884 264.831 197.884H224.039C223.396 197.884 222.87 198.259 222.87 198.72Z" fill="#E93334"/>
<path d="M223.965 206.983C223.965 207.445 224.457 207.815 225.078 207.815H263.796C264.408 207.815 264.908 207.445 264.908 206.983C264.908 206.522 264.408 206.146 263.796 206.146H225.078C224.457 206.146 223.965 206.522 223.965 206.983Z" fill="#E93334"/>
<path d="M223.008 196.753C223.008 184.937 232.418 182.483 244.243 182.483C256.063 182.483 265.814 184.937 265.814 196.753L265.085 197.883H223.922L223.008 196.753Z" fill="#F5AA30"/>
<path d="M204.08 182.483L198.966 158.881C198.759 157.924 197.776 156.927 196.827 156.712L190.151 155.142L190.315 154.443L196.986 156.009C198.22 156.306 199.397 157.497 199.664 158.73L204.783 182.332L204.08 182.483Z" fill="#A6D1E3"/>
<path d="M216.574 212.162H199.035L196.525 174.453H219.079L216.574 212.162Z" fill="#E4273C"/>
<path d="M216.574 212.162L216.725 209.928C199.932 209.074 199.268 176.635 199.268 176.635H218.933L219.079 174.453H196.525L199.035 212.162H216.574Z" fill="#BA2631"/>
<path d="M219.8 174.725C219.83 174.6 219.856 174.467 219.856 174.333C219.856 173.453 219.144 172.737 218.264 172.737H197.34C196.465 172.737 195.753 173.453 195.753 174.333C195.753 174.467 195.775 174.6 195.809 174.725H219.8Z" fill="#A6D1E3"/>
<path d="M291.085 209.631C291.085 209.631 283.965 206.34 275.689 206.634C275.689 206.634 270.76 205.814 260.363 213.516C260.363 213.516 260.402 216.039 264.662 213.542C268.923 211.045 274.383 210.023 275.823 211.317C275.823 211.317 278.027 213.214 279.277 214.021C279.277 214.021 273.296 215.043 272.188 216.768C271.084 218.484 274.15 217.773 276.276 217.6C278.411 217.436 282.288 217.527 283.987 217.527C286.298 217.531 290.154 216.358 292.012 214.694L291.085 209.631Z" fill="#F8A176"/>
</svg>
