<svg xmlns="http://www.w3.org/2000/svg" xmlns:xlink="http://www.w3.org/1999/xlink" width="1280" zoomAndPan="magnify" viewBox="0 0 960 453.749989" height="605" preserveAspectRatio="xMidYMid meet" version="1.0"><defs><clipPath id="07fab9b61e"><path d="M 0.265625 0 L 959.734375 0 L 959.734375 453.5 L 0.265625 453.5 Z M 0.265625 0 " clip-rule="nonzero"/></clipPath><clipPath id="9c593ce04e"><path d="M 0.265625 344 L 395 344 L 395 453.5 L 0.265625 453.5 Z M 0.265625 344 " clip-rule="nonzero"/></clipPath><clipPath id="d972d8055c"><path d="M 0.265625 331 L 959.734375 331 L 959.734375 453.5 L 0.265625 453.5 Z M 0.265625 331 " clip-rule="nonzero"/></clipPath><clipPath id="2e67220672"><path d="M 0.265625 368 L 959.734375 368 L 959.734375 453.5 L 0.265625 453.5 Z M 0.265625 368 " clip-rule="nonzero"/></clipPath></defs><g clip-path="url(#07fab9b61e)"><path fill="#ffffff" d="M 0.265625 0 L 959.734375 0 L 959.734375 453.5 L 0.265625 453.5 Z M 0.265625 0 " fill-opacity="1" fill-rule="nonzero"/><path fill="#ffffff" d="M 0.265625 0 L 959.734375 0 L 959.734375 453.5 L 0.265625 453.5 Z M 0.265625 0 " fill-opacity="1" fill-rule="nonzero"/><path fill="#ffffff" d="M 0.265625 0 L 960.410156 0 L 960.410156 453.5 L 0.265625 453.5 Z M 0.265625 0 " fill-opacity="1" fill-rule="nonzero"/></g><g clip-path="url(#9c593ce04e)"><path fill="#a82223" d="M 394.746094 459.613281 C 278.703125 367.589844 134.335938 327.871094 -3.703125 349.992188 L -3.703125 550.109375 L 394.746094 550.109375 Z M 394.746094 459.613281 " fill-opacity="1" fill-rule="nonzero"/></g><g clip-path="url(#d972d8055c)"><path fill="#a82223" d="M 959.910156 404.5 C 913.726562 355.800781 831.695312 332.175781 752.816406 331.941406 C 673.9375 331.703125 597.390625 351.972656 525.492188 376.6875 C 453.597656 401.402344 384.3125 430.84375 309.902344 450.78125 C 207.101562 478.324219 95.679688 486.984375 -12.304688 475.835938 L -12.304688 605.777344 L 959.910156 605.777344 Z M 959.910156 404.5 " fill-opacity="1" fill-rule="nonzero"/></g><g clip-path="url(#2e67220672)"><path fill="#dd3627" d="M 959.910156 370.902344 C 886.5625 372.136719 826.71875 416.1875 757.894531 436.339844 C 673.425781 461.078125 578.96875 448.628906 492.824219 427.855469 C 406.675781 407.085938 322.707031 378.148438 233.257812 369.96875 C 143.808594 361.789062 44.023438 378.75 -12.304688 434.460938 L -12.304688 605.773438 L 959.910156 605.773438 Z M 959.910156 370.902344 " fill-opacity="1" fill-rule="nonzero"/></g></svg>