<svg xmlns="http://www.w3.org/2000/svg" xmlns:xlink="http://www.w3.org/1999/xlink" width="910" zoomAndPan="magnify" viewBox="0 0 682.5 324.749988" height="433" preserveAspectRatio="xMidYMid meet" version="1.0"><defs><filter x="0%" y="0%" width="100%" height="100%" id="3da0666311"><feColorMatrix values="0 0 0 0 1 0 0 0 0 1 0 0 0 0 1 0 0 0 1 0" color-interpolation-filters="sRGB"/></filter><clipPath id="c151275472"><path d="M 0.0117188 0 L 681.988281 0 L 681.988281 324.5 L 0.0117188 324.5 Z M 0.0117188 0 " clip-rule="nonzero"/></clipPath><clipPath id="a33540cd6a"><path d="M 135 0 L 681.988281 0 L 681.988281 324.5 L 135 324.5 Z M 135 0 " clip-rule="nonzero"/></clipPath><mask id="732b763155"><g filter="url(#3da0666311)"><rect x="-68.25" width="819" fill="#000000" y="-32.474999" height="389.699985" fill-opacity="0.25"/></g></mask><clipPath id="4c0e995b5f"><path d="M 1 1 L 546.988281 1 L 546.988281 322 L 1 322 Z M 1 1 " clip-rule="nonzero"/></clipPath><clipPath id="3d497974ff"><path d="M 1.765625 324.226562 L 0.84375 2.273438 L 547.152344 0.703125 L 548.074219 322.660156 Z M 1.765625 324.226562 " clip-rule="nonzero"/></clipPath><clipPath id="88f7e29d55"><path d="M 1.46875 220.183594 L 1.140625 106.3125 C 1.113281 97.066406 7.792969 89.160156 16.914062 87.636719 L 530.234375 2.078125 C 534.179688 1.417969 538.214844 2.527344 541.269531 5.109375 C 544.324219 7.6875 546.089844 11.480469 546.101562 15.480469 L 546.941406 307.890625 C 546.953125 311.890625 545.207031 315.691406 542.167969 318.289062 C 539.128906 320.886719 535.101562 322.019531 531.152344 321.382812 L 17.347656 238.769531 C 8.21875 237.300781 1.496094 229.433594 1.46875 220.183594 Z M 1.46875 220.183594 " clip-rule="nonzero"/></clipPath><clipPath id="c9952feea6"><rect x="0" width="547" y="0" height="325"/></clipPath></defs><g clip-path="url(#c151275472)"><path fill="#ffffff" d="M 0.0117188 0 L 681.988281 0 L 681.988281 324.5 L 0.0117188 324.5 Z M 0.0117188 0 " fill-opacity="1" fill-rule="nonzero"/><path fill="#dd3627" d="M 0.0117188 0 L 681.988281 0 L 681.988281 324.5 L 0.0117188 324.5 Z M 0.0117188 0 " fill-opacity="1" fill-rule="nonzero"/></g><g clip-path="url(#a33540cd6a)"><g mask="url(#732b763155)"><g transform="matrix(1, 0, 0, 1, 135, 0)"><g clip-path="url(#c9952feea6)"><g clip-path="url(#4c0e995b5f)"><g clip-path="url(#3d497974ff)"><g clip-path="url(#88f7e29d55)"><path fill="#ffffff" d="M 1.769531 325.496094 L 0.839844 1.003906 L 545.878906 -0.558594 L 546.8125 323.929688 Z M 1.769531 325.496094 " fill-opacity="1" fill-rule="nonzero"/></g></g></g></g></g></g></g></svg>