<svg xmlns="http://www.w3.org/2000/svg" xmlns:xlink="http://www.w3.org/1999/xlink" width="500" zoomAndPan="magnify" viewBox="0 0 375 374.999991" height="500" preserveAspectRatio="xMidYMid meet" version="1.0"><defs><filter x="0%" y="0%" width="100%" height="100%" id="4d3a31d0b8"><feColorMatrix values="0 0 0 0 1 0 0 0 0 1 0 0 0 0 1 0 0 0 1 0" color-interpolation-filters="sRGB"/></filter><mask id="4f22815380"><g filter="url(#4d3a31d0b8)"><rect x="-37.5" width="450" fill="#000000" y="-37.499999" height="449.999989" fill-opacity="0.25"/></g></mask><clipPath id="abdf4f6f50"><path d="M 0.46875 0.46875 L 312.53125 0.46875 L 312.53125 312.53125 L 0.46875 312.53125 Z M 0.46875 0.46875 " clip-rule="nonzero"/></clipPath><clipPath id="9f2b930b74"><path d="M 156.5 0.46875 C 70.328125 0.46875 0.46875 70.328125 0.46875 156.5 C 0.46875 242.671875 70.328125 312.53125 156.5 312.53125 C 242.671875 312.53125 312.53125 242.671875 312.53125 156.5 C 312.53125 70.328125 242.671875 0.46875 156.5 0.46875 Z M 156.5 0.46875 " clip-rule="nonzero"/></clipPath><linearGradient x1="0" gradientTransform="matrix(1.218988, 0, 0, 1.218988, 0.46953, 0.469526)" y1="0" x2="256" gradientUnits="userSpaceOnUse" y2="256" id="9a71302793"><stop stop-opacity="1" stop-color="rgb(96.499634%, 52.89917%, 1.599121%)" offset="0"/><stop stop-opacity="1" stop-color="rgb(96.289062%, 52.792358%, 1.593018%)" offset="0.00390625"/><stop stop-opacity="1" stop-color="rgb(96.078491%, 52.685547%, 1.586914%)" offset="0.0078125"/><stop stop-opacity="1" stop-color="rgb(95.86792%, 52.577209%, 1.580811%)" offset="0.0117188"/><stop stop-opacity="1" stop-color="rgb(95.658875%, 52.470398%, 1.574707%)" offset="0.015625"/><stop stop-opacity="1" stop-color="rgb(95.448303%, 52.363586%, 1.568604%)" offset="0.0195312"/><stop stop-opacity="1" stop-color="rgb(95.237732%, 52.256775%, 1.5625%)" offset="0.0234375"/><stop stop-opacity="1" stop-color="rgb(95.027161%, 52.149963%, 1.554871%)" offset="0.0273438"/><stop stop-opacity="1" stop-color="rgb(94.818115%, 52.043152%, 1.548767%)" offset="0.03125"/><stop stop-opacity="1" stop-color="rgb(94.607544%, 51.93634%, 1.542664%)" offset="0.0351562"/><stop stop-opacity="1" stop-color="rgb(94.396973%, 51.829529%, 1.53656%)" offset="0.0390625"/><stop stop-opacity="1" stop-color="rgb(94.186401%, 51.721191%, 1.530457%)" offset="0.0429688"/><stop stop-opacity="1" stop-color="rgb(93.977356%, 51.61438%, 1.524353%)" offset="0.046875"/><stop stop-opacity="1" stop-color="rgb(93.766785%, 51.507568%, 1.51825%)" offset="0.0507812"/><stop stop-opacity="1" stop-color="rgb(93.557739%, 51.400757%, 1.512146%)" offset="0.0546875"/><stop stop-opacity="1" stop-color="rgb(93.347168%, 51.293945%, 1.506042%)" offset="0.0585938"/><stop stop-opacity="1" stop-color="rgb(93.136597%, 51.187134%, 1.499939%)" offset="0.0625"/><stop stop-opacity="1" stop-color="rgb(92.926025%, 51.078796%, 1.49231%)" offset="0.0664062"/><stop stop-opacity="1" stop-color="rgb(92.71698%, 50.971985%, 1.486206%)" offset="0.0703125"/><stop stop-opacity="1" stop-color="rgb(92.506409%, 50.865173%, 1.480103%)" offset="0.0742188"/><stop stop-opacity="1" stop-color="rgb(92.295837%, 50.758362%, 1.473999%)" offset="0.078125"/><stop stop-opacity="1" stop-color="rgb(92.085266%, 50.65155%, 1.467896%)" offset="0.0820312"/><stop stop-opacity="1" stop-color="rgb(91.876221%, 50.544739%, 1.461792%)" offset="0.0859375"/><stop stop-opacity="1" stop-color="rgb(91.665649%, 50.437927%, 1.455688%)" offset="0.0898438"/><stop stop-opacity="1" stop-color="rgb(91.455078%, 50.331116%, 1.449585%)" offset="0.09375"/><stop stop-opacity="1" stop-color="rgb(91.244507%, 50.222778%, 1.443481%)" offset="0.0976562"/><stop stop-opacity="1" stop-color="rgb(91.035461%, 50.115967%, 1.437378%)" offset="0.101562"/><stop stop-opacity="1" stop-color="rgb(90.82489%, 50.009155%, 1.429749%)" offset="0.105469"/><stop stop-opacity="1" stop-color="rgb(90.614319%, 49.902344%, 1.423645%)" offset="0.109375"/><stop stop-opacity="1" stop-color="rgb(90.403748%, 49.795532%, 1.417542%)" offset="0.113281"/><stop stop-opacity="1" stop-color="rgb(90.194702%, 49.688721%, 1.411438%)" offset="0.117188"/><stop stop-opacity="1" stop-color="rgb(89.984131%, 49.580383%, 1.405334%)" offset="0.121094"/><stop stop-opacity="1" stop-color="rgb(89.77356%, 49.473572%, 1.399231%)" offset="0.125"/><stop stop-opacity="1" stop-color="rgb(89.562988%, 49.36676%, 1.393127%)" offset="0.128906"/><stop stop-opacity="1" stop-color="rgb(89.353943%, 49.259949%, 1.387024%)" offset="0.132812"/><stop stop-opacity="1" stop-color="rgb(89.143372%, 49.153137%, 1.38092%)" offset="0.136719"/><stop stop-opacity="1" stop-color="rgb(88.934326%, 49.046326%, 1.374817%)" offset="0.140625"/><stop stop-opacity="1" stop-color="rgb(88.723755%, 48.939514%, 1.367188%)" offset="0.144531"/><stop stop-opacity="1" stop-color="rgb(88.513184%, 48.832703%, 1.361084%)" offset="0.148438"/><stop stop-opacity="1" stop-color="rgb(88.302612%, 48.724365%, 1.35498%)" offset="0.152344"/><stop stop-opacity="1" stop-color="rgb(88.093567%, 48.617554%, 1.348877%)" offset="0.15625"/><stop stop-opacity="1" stop-color="rgb(87.882996%, 48.510742%, 1.342773%)" offset="0.160156"/><stop stop-opacity="1" stop-color="rgb(87.672424%, 48.403931%, 1.33667%)" offset="0.164062"/><stop stop-opacity="1" stop-color="rgb(87.461853%, 48.297119%, 1.330566%)" offset="0.167969"/><stop stop-opacity="1" stop-color="rgb(87.252808%, 48.190308%, 1.324463%)" offset="0.171875"/><stop stop-opacity="1" stop-color="rgb(87.042236%, 48.08197%, 1.318359%)" offset="0.175781"/><stop stop-opacity="1" stop-color="rgb(86.831665%, 47.975159%, 1.312256%)" offset="0.179688"/><stop stop-opacity="1" stop-color="rgb(86.621094%, 47.868347%, 1.304626%)" offset="0.183594"/><stop stop-opacity="1" stop-color="rgb(86.412048%, 47.761536%, 1.298523%)" offset="0.1875"/><stop stop-opacity="1" stop-color="rgb(86.201477%, 47.654724%, 1.292419%)" offset="0.191406"/><stop stop-opacity="1" stop-color="rgb(85.990906%, 47.547913%, 1.286316%)" offset="0.195312"/><stop stop-opacity="1" stop-color="rgb(85.780334%, 47.441101%, 1.280212%)" offset="0.199219"/><stop stop-opacity="1" stop-color="rgb(85.571289%, 47.33429%, 1.274109%)" offset="0.203125"/><stop stop-opacity="1" stop-color="rgb(85.360718%, 47.225952%, 1.268005%)" offset="0.207031"/><stop stop-opacity="1" stop-color="rgb(85.150146%, 47.119141%, 1.261902%)" offset="0.210938"/><stop stop-opacity="1" stop-color="rgb(84.939575%, 47.012329%, 1.255798%)" offset="0.214844"/><stop stop-opacity="1" stop-color="rgb(84.73053%, 46.905518%, 1.249695%)" offset="0.21875"/><stop stop-opacity="1" stop-color="rgb(84.519958%, 46.798706%, 1.243591%)" offset="0.222656"/><stop stop-opacity="1" stop-color="rgb(84.310913%, 46.691895%, 1.237488%)" offset="0.226562"/><stop stop-opacity="1" stop-color="rgb(84.100342%, 46.583557%, 1.229858%)" offset="0.230469"/><stop stop-opacity="1" stop-color="rgb(83.889771%, 46.476746%, 1.223755%)" offset="0.234375"/><stop stop-opacity="1" stop-color="rgb(83.679199%, 46.369934%, 1.217651%)" offset="0.238281"/><stop stop-opacity="1" stop-color="rgb(83.470154%, 46.263123%, 1.211548%)" offset="0.242188"/><stop stop-opacity="1" stop-color="rgb(83.259583%, 46.156311%, 1.205444%)" offset="0.246094"/><stop stop-opacity="1" stop-color="rgb(83.049011%, 46.0495%, 1.199341%)" offset="0.25"/><stop stop-opacity="1" stop-color="rgb(82.83844%, 45.942688%, 1.193237%)" offset="0.253906"/><stop stop-opacity="1" stop-color="rgb(82.629395%, 45.835876%, 1.187134%)" offset="0.257812"/><stop stop-opacity="1" stop-color="rgb(82.418823%, 45.727539%, 1.18103%)" offset="0.261719"/><stop stop-opacity="1" stop-color="rgb(82.208252%, 45.620728%, 1.174927%)" offset="0.265625"/><stop stop-opacity="1" stop-color="rgb(81.997681%, 45.513916%, 1.167297%)" offset="0.269531"/><stop stop-opacity="1" stop-color="rgb(81.788635%, 45.407104%, 1.161194%)" offset="0.273438"/><stop stop-opacity="1" stop-color="rgb(81.578064%, 45.300293%, 1.15509%)" offset="0.277344"/><stop stop-opacity="1" stop-color="rgb(81.367493%, 45.193481%, 1.148987%)" offset="0.28125"/><stop stop-opacity="1" stop-color="rgb(81.156921%, 45.085144%, 1.142883%)" offset="0.285156"/><stop stop-opacity="1" stop-color="rgb(80.947876%, 44.978333%, 1.13678%)" offset="0.289062"/><stop stop-opacity="1" stop-color="rgb(80.737305%, 44.871521%, 1.130676%)" offset="0.292969"/><stop stop-opacity="1" stop-color="rgb(80.526733%, 44.764709%, 1.124573%)" offset="0.296875"/><stop stop-opacity="1" stop-color="rgb(80.316162%, 44.657898%, 1.118469%)" offset="0.300781"/><stop stop-opacity="1" stop-color="rgb(80.107117%, 44.551086%, 1.112366%)" offset="0.304688"/><stop stop-opacity="1" stop-color="rgb(79.896545%, 44.444275%, 1.104736%)" offset="0.308594"/><stop stop-opacity="1" stop-color="rgb(79.6875%, 44.337463%, 1.098633%)" offset="0.3125"/><stop stop-opacity="1" stop-color="rgb(79.476929%, 44.229126%, 1.092529%)" offset="0.316406"/><stop stop-opacity="1" stop-color="rgb(79.266357%, 44.122314%, 1.086426%)" offset="0.320312"/><stop stop-opacity="1" stop-color="rgb(79.055786%, 44.015503%, 1.080322%)" offset="0.324219"/><stop stop-opacity="1" stop-color="rgb(78.846741%, 43.908691%, 1.074219%)" offset="0.328125"/><stop stop-opacity="1" stop-color="rgb(78.636169%, 43.80188%, 1.068115%)" offset="0.332031"/><stop stop-opacity="1" stop-color="rgb(78.425598%, 43.695068%, 1.062012%)" offset="0.335938"/><stop stop-opacity="1" stop-color="rgb(78.215027%, 43.586731%, 1.055908%)" offset="0.339844"/><stop stop-opacity="1" stop-color="rgb(78.005981%, 43.479919%, 1.049805%)" offset="0.34375"/><stop stop-opacity="1" stop-color="rgb(77.79541%, 43.373108%, 1.042175%)" offset="0.347656"/><stop stop-opacity="1" stop-color="rgb(77.584839%, 43.266296%, 1.036072%)" offset="0.351562"/><stop stop-opacity="1" stop-color="rgb(77.374268%, 43.159485%, 1.029968%)" offset="0.355469"/><stop stop-opacity="1" stop-color="rgb(77.165222%, 43.052673%, 1.023865%)" offset="0.359375"/><stop stop-opacity="1" stop-color="rgb(76.954651%, 42.945862%, 1.017761%)" offset="0.363281"/><stop stop-opacity="1" stop-color="rgb(76.74408%, 42.83905%, 1.011658%)" offset="0.367188"/><stop stop-opacity="1" stop-color="rgb(76.533508%, 42.730713%, 1.005554%)" offset="0.371094"/><stop stop-opacity="1" stop-color="rgb(76.324463%, 42.623901%, 0.999451%)" offset="0.375"/><stop stop-opacity="1" stop-color="rgb(76.113892%, 42.51709%, 0.993347%)" offset="0.378906"/><stop stop-opacity="1" stop-color="rgb(75.90332%, 42.410278%, 0.987244%)" offset="0.382812"/><stop stop-opacity="1" stop-color="rgb(75.692749%, 42.303467%, 0.979614%)" offset="0.386719"/><stop stop-opacity="1" stop-color="rgb(75.483704%, 42.196655%, 0.973511%)" offset="0.390625"/><stop stop-opacity="1" stop-color="rgb(75.273132%, 42.088318%, 0.967407%)" offset="0.394531"/><stop stop-opacity="1" stop-color="rgb(75.062561%, 41.981506%, 0.961304%)" offset="0.398438"/><stop stop-opacity="1" stop-color="rgb(74.85199%, 41.874695%, 0.9552%)" offset="0.402344"/><stop stop-opacity="1" stop-color="rgb(74.642944%, 41.767883%, 0.949097%)" offset="0.40625"/><stop stop-opacity="1" stop-color="rgb(74.432373%, 41.661072%, 0.942993%)" offset="0.410156"/><stop stop-opacity="1" stop-color="rgb(74.223328%, 41.55426%, 0.93689%)" offset="0.414062"/><stop stop-opacity="1" stop-color="rgb(74.012756%, 41.445923%, 0.930786%)" offset="0.417969"/><stop stop-opacity="1" stop-color="rgb(73.802185%, 41.339111%, 0.924683%)" offset="0.421875"/><stop stop-opacity="1" stop-color="rgb(73.591614%, 41.2323%, 0.918579%)" offset="0.425781"/><stop stop-opacity="1" stop-color="rgb(73.382568%, 41.125488%, 0.912476%)" offset="0.429688"/><stop stop-opacity="1" stop-color="rgb(73.171997%, 41.018677%, 0.904846%)" offset="0.433594"/><stop stop-opacity="1" stop-color="rgb(72.961426%, 40.911865%, 0.898743%)" offset="0.4375"/><stop stop-opacity="1" stop-color="rgb(72.750854%, 40.805054%, 0.892639%)" offset="0.441406"/><stop stop-opacity="1" stop-color="rgb(72.541809%, 40.698242%, 0.886536%)" offset="0.445312"/><stop stop-opacity="1" stop-color="rgb(72.331238%, 40.589905%, 0.880432%)" offset="0.449219"/><stop stop-opacity="1" stop-color="rgb(72.120667%, 40.483093%, 0.874329%)" offset="0.453125"/><stop stop-opacity="1" stop-color="rgb(71.910095%, 40.376282%, 0.868225%)" offset="0.457031"/><stop stop-opacity="1" stop-color="rgb(71.70105%, 40.26947%, 0.862122%)" offset="0.460938"/><stop stop-opacity="1" stop-color="rgb(71.490479%, 40.162659%, 0.856018%)" offset="0.464844"/><stop stop-opacity="1" stop-color="rgb(71.279907%, 40.055847%, 0.849915%)" offset="0.46875"/><stop stop-opacity="1" stop-color="rgb(71.069336%, 39.94751%, 0.842285%)" offset="0.472656"/><stop stop-opacity="1" stop-color="rgb(70.860291%, 39.840698%, 0.836182%)" offset="0.476562"/><stop stop-opacity="1" stop-color="rgb(70.649719%, 39.733887%, 0.830078%)" offset="0.480469"/><stop stop-opacity="1" stop-color="rgb(70.439148%, 39.627075%, 0.823975%)" offset="0.484375"/><stop stop-opacity="1" stop-color="rgb(70.228577%, 39.520264%, 0.817871%)" offset="0.488281"/><stop stop-opacity="1" stop-color="rgb(70.019531%, 39.413452%, 0.811768%)" offset="0.492188"/><stop stop-opacity="1" stop-color="rgb(69.80896%, 39.306641%, 0.805664%)" offset="0.496094"/><stop stop-opacity="1" stop-color="rgb(69.599915%, 39.199829%, 0.799561%)" offset="0.5"/><stop stop-opacity="1" stop-color="rgb(69.389343%, 39.091492%, 0.793457%)" offset="0.503906"/><stop stop-opacity="1" stop-color="rgb(69.178772%, 38.98468%, 0.787354%)" offset="0.507812"/><stop stop-opacity="1" stop-color="rgb(68.968201%, 38.877869%, 0.779724%)" offset="0.511719"/><stop stop-opacity="1" stop-color="rgb(68.759155%, 38.771057%, 0.773621%)" offset="0.515625"/><stop stop-opacity="1" stop-color="rgb(68.548584%, 38.664246%, 0.767517%)" offset="0.519531"/><stop stop-opacity="1" stop-color="rgb(68.338013%, 38.557434%, 0.761414%)" offset="0.523438"/><stop stop-opacity="1" stop-color="rgb(68.127441%, 38.449097%, 0.75531%)" offset="0.527344"/><stop stop-opacity="1" stop-color="rgb(67.918396%, 38.342285%, 0.749207%)" offset="0.53125"/><stop stop-opacity="1" stop-color="rgb(67.707825%, 38.235474%, 0.743103%)" offset="0.535156"/><stop stop-opacity="1" stop-color="rgb(67.497253%, 38.128662%, 0.737%)" offset="0.539062"/><stop stop-opacity="1" stop-color="rgb(67.286682%, 38.021851%, 0.730896%)" offset="0.542969"/><stop stop-opacity="1" stop-color="rgb(67.077637%, 37.915039%, 0.724792%)" offset="0.546875"/><stop stop-opacity="1" stop-color="rgb(66.867065%, 37.808228%, 0.717163%)" offset="0.550781"/><stop stop-opacity="1" stop-color="rgb(66.656494%, 37.701416%, 0.71106%)" offset="0.554688"/><stop stop-opacity="1" stop-color="rgb(66.445923%, 37.593079%, 0.704956%)" offset="0.558594"/><stop stop-opacity="1" stop-color="rgb(66.236877%, 37.486267%, 0.698853%)" offset="0.5625"/><stop stop-opacity="1" stop-color="rgb(66.026306%, 37.379456%, 0.692749%)" offset="0.566406"/><stop stop-opacity="1" stop-color="rgb(65.815735%, 37.272644%, 0.686646%)" offset="0.570312"/><stop stop-opacity="1" stop-color="rgb(65.605164%, 37.165833%, 0.680542%)" offset="0.574219"/><stop stop-opacity="1" stop-color="rgb(65.396118%, 37.059021%, 0.674438%)" offset="0.578125"/><stop stop-opacity="1" stop-color="rgb(65.185547%, 36.950684%, 0.668335%)" offset="0.582031"/><stop stop-opacity="1" stop-color="rgb(64.976501%, 36.843872%, 0.662231%)" offset="0.585938"/><stop stop-opacity="1" stop-color="rgb(64.76593%, 36.737061%, 0.654602%)" offset="0.589844"/><stop stop-opacity="1" stop-color="rgb(64.555359%, 36.630249%, 0.648499%)" offset="0.59375"/><stop stop-opacity="1" stop-color="rgb(64.344788%, 36.523438%, 0.642395%)" offset="0.597656"/><stop stop-opacity="1" stop-color="rgb(64.135742%, 36.416626%, 0.636292%)" offset="0.601562"/><stop stop-opacity="1" stop-color="rgb(63.925171%, 36.309814%, 0.630188%)" offset="0.605469"/><stop stop-opacity="1" stop-color="rgb(63.7146%, 36.203003%, 0.624084%)" offset="0.609375"/><stop stop-opacity="1" stop-color="rgb(63.504028%, 36.094666%, 0.617981%)" offset="0.613281"/><stop stop-opacity="1" stop-color="rgb(63.294983%, 35.987854%, 0.611877%)" offset="0.617188"/><stop stop-opacity="1" stop-color="rgb(63.084412%, 35.881042%, 0.605774%)" offset="0.621094"/><stop stop-opacity="1" stop-color="rgb(62.87384%, 35.774231%, 0.59967%)" offset="0.625"/><stop stop-opacity="1" stop-color="rgb(62.663269%, 35.667419%, 0.593567%)" offset="0.628906"/><stop stop-opacity="1" stop-color="rgb(62.454224%, 35.560608%, 0.587463%)" offset="0.632812"/><stop stop-opacity="1" stop-color="rgb(62.243652%, 35.452271%, 0.579834%)" offset="0.636719"/><stop stop-opacity="1" stop-color="rgb(62.033081%, 35.345459%, 0.57373%)" offset="0.640625"/><stop stop-opacity="1" stop-color="rgb(61.82251%, 35.238647%, 0.567627%)" offset="0.644531"/><stop stop-opacity="1" stop-color="rgb(61.613464%, 35.131836%, 0.561523%)" offset="0.648438"/><stop stop-opacity="1" stop-color="rgb(61.402893%, 35.025024%, 0.55542%)" offset="0.652344"/><stop stop-opacity="1" stop-color="rgb(61.192322%, 34.918213%, 0.549316%)" offset="0.65625"/><stop stop-opacity="1" stop-color="rgb(60.98175%, 34.811401%, 0.543213%)" offset="0.660156"/><stop stop-opacity="1" stop-color="rgb(60.772705%, 34.70459%, 0.537109%)" offset="0.664062"/><stop stop-opacity="1" stop-color="rgb(60.562134%, 34.596252%, 0.531006%)" offset="0.667969"/><stop stop-opacity="1" stop-color="rgb(60.353088%, 34.489441%, 0.524902%)" offset="0.671875"/><stop stop-opacity="1" stop-color="rgb(60.142517%, 34.382629%, 0.517273%)" offset="0.675781"/><stop stop-opacity="1" stop-color="rgb(59.931946%, 34.275818%, 0.511169%)" offset="0.679688"/><stop stop-opacity="1" stop-color="rgb(59.721375%, 34.169006%, 0.505066%)" offset="0.683594"/><stop stop-opacity="1" stop-color="rgb(59.512329%, 34.062195%, 0.498962%)" offset="0.6875"/><stop stop-opacity="1" stop-color="rgb(59.301758%, 33.953857%, 0.492859%)" offset="0.691406"/><stop stop-opacity="1" stop-color="rgb(59.091187%, 33.847046%, 0.486755%)" offset="0.695312"/><stop stop-opacity="1" stop-color="rgb(58.880615%, 33.740234%, 0.480652%)" offset="0.699219"/><stop stop-opacity="1" stop-color="rgb(58.67157%, 33.633423%, 0.474548%)" offset="0.703125"/><stop stop-opacity="1" stop-color="rgb(58.460999%, 33.526611%, 0.468445%)" offset="0.707031"/><stop stop-opacity="1" stop-color="rgb(58.250427%, 33.4198%, 0.462341%)" offset="0.710938"/><stop stop-opacity="1" stop-color="rgb(58.039856%, 33.312988%, 0.454712%)" offset="0.714844"/><stop stop-opacity="1" stop-color="rgb(57.830811%, 33.206177%, 0.448608%)" offset="0.71875"/><stop stop-opacity="1" stop-color="rgb(57.620239%, 33.097839%, 0.442505%)" offset="0.722656"/><stop stop-opacity="1" stop-color="rgb(57.409668%, 32.991028%, 0.436401%)" offset="0.726562"/><stop stop-opacity="1" stop-color="rgb(57.199097%, 32.884216%, 0.430298%)" offset="0.730469"/><stop stop-opacity="1" stop-color="rgb(56.990051%, 32.777405%, 0.424194%)" offset="0.734375"/><stop stop-opacity="1" stop-color="rgb(56.77948%, 32.670593%, 0.418091%)" offset="0.738281"/><stop stop-opacity="1" stop-color="rgb(56.568909%, 32.563782%, 0.411987%)" offset="0.742188"/><stop stop-opacity="1" stop-color="rgb(56.358337%, 32.455444%, 0.405884%)" offset="0.746094"/><stop stop-opacity="1" stop-color="rgb(56.149292%, 32.348633%, 0.39978%)" offset="0.75"/><stop stop-opacity="1" stop-color="rgb(55.938721%, 32.241821%, 0.392151%)" offset="0.753906"/><stop stop-opacity="1" stop-color="rgb(55.729675%, 32.13501%, 0.386047%)" offset="0.757812"/><stop stop-opacity="1" stop-color="rgb(55.519104%, 32.028198%, 0.379944%)" offset="0.761719"/><stop stop-opacity="1" stop-color="rgb(55.308533%, 31.921387%, 0.37384%)" offset="0.765625"/><stop stop-opacity="1" stop-color="rgb(55.097961%, 31.814575%, 0.367737%)" offset="0.769531"/><stop stop-opacity="1" stop-color="rgb(54.888916%, 31.707764%, 0.361633%)" offset="0.773438"/><stop stop-opacity="1" stop-color="rgb(54.678345%, 31.599426%, 0.35553%)" offset="0.777344"/><stop stop-opacity="1" stop-color="rgb(54.467773%, 31.492615%, 0.349426%)" offset="0.78125"/><stop stop-opacity="1" stop-color="rgb(54.257202%, 31.385803%, 0.343323%)" offset="0.785156"/><stop stop-opacity="1" stop-color="rgb(54.048157%, 31.278992%, 0.337219%)" offset="0.789062"/><stop stop-opacity="1" stop-color="rgb(53.837585%, 31.17218%, 0.32959%)" offset="0.792969"/><stop stop-opacity="1" stop-color="rgb(53.627014%, 31.065369%, 0.323486%)" offset="0.796875"/><stop stop-opacity="1" stop-color="rgb(53.416443%, 30.957031%, 0.317383%)" offset="0.800781"/><stop stop-opacity="1" stop-color="rgb(53.207397%, 30.85022%, 0.311279%)" offset="0.804688"/><stop stop-opacity="1" stop-color="rgb(52.996826%, 30.743408%, 0.305176%)" offset="0.808594"/><stop stop-opacity="1" stop-color="rgb(52.786255%, 30.636597%, 0.299072%)" offset="0.8125"/><stop stop-opacity="1" stop-color="rgb(52.575684%, 30.529785%, 0.292969%)" offset="0.816406"/><stop stop-opacity="1" stop-color="rgb(52.366638%, 30.422974%, 0.286865%)" offset="0.820312"/><stop stop-opacity="1" stop-color="rgb(52.156067%, 30.316162%, 0.280762%)" offset="0.824219"/><stop stop-opacity="1" stop-color="rgb(51.945496%, 30.209351%, 0.274658%)" offset="0.828125"/><stop stop-opacity="1" stop-color="rgb(51.734924%, 30.101013%, 0.268555%)" offset="0.832031"/><stop stop-opacity="1" stop-color="rgb(51.525879%, 29.994202%, 0.262451%)" offset="0.835938"/><stop stop-opacity="1" stop-color="rgb(51.315308%, 29.88739%, 0.254822%)" offset="0.839844"/><stop stop-opacity="1" stop-color="rgb(51.104736%, 29.780579%, 0.248718%)" offset="0.84375"/><stop stop-opacity="1" stop-color="rgb(50.894165%, 29.673767%, 0.242615%)" offset="0.847656"/><stop stop-opacity="1" stop-color="rgb(50.68512%, 29.566956%, 0.236511%)" offset="0.851562"/><stop stop-opacity="1" stop-color="rgb(50.474548%, 29.458618%, 0.230408%)" offset="0.855469"/><stop stop-opacity="1" stop-color="rgb(50.265503%, 29.351807%, 0.224304%)" offset="0.859375"/><stop stop-opacity="1" stop-color="rgb(50.054932%, 29.244995%, 0.218201%)" offset="0.863281"/><stop stop-opacity="1" stop-color="rgb(49.84436%, 29.138184%, 0.212097%)" offset="0.867188"/><stop stop-opacity="1" stop-color="rgb(49.633789%, 29.031372%, 0.205994%)" offset="0.871094"/><stop stop-opacity="1" stop-color="rgb(49.424744%, 28.924561%, 0.19989%)" offset="0.875"/><stop stop-opacity="1" stop-color="rgb(49.214172%, 28.817749%, 0.192261%)" offset="0.878906"/><stop stop-opacity="1" stop-color="rgb(49.003601%, 28.710938%, 0.186157%)" offset="0.882812"/><stop stop-opacity="1" stop-color="rgb(48.79303%, 28.6026%, 0.180054%)" offset="0.886719"/><stop stop-opacity="1" stop-color="rgb(48.583984%, 28.495789%, 0.17395%)" offset="0.890625"/><stop stop-opacity="1" stop-color="rgb(48.373413%, 28.388977%, 0.167847%)" offset="0.894531"/><stop stop-opacity="1" stop-color="rgb(48.162842%, 28.282166%, 0.161743%)" offset="0.898438"/><stop stop-opacity="1" stop-color="rgb(47.952271%, 28.175354%, 0.15564%)" offset="0.902344"/><stop stop-opacity="1" stop-color="rgb(47.743225%, 28.068542%, 0.149536%)" offset="0.90625"/><stop stop-opacity="1" stop-color="rgb(47.532654%, 27.960205%, 0.143433%)" offset="0.910156"/><stop stop-opacity="1" stop-color="rgb(47.322083%, 27.853394%, 0.137329%)" offset="0.914062"/><stop stop-opacity="1" stop-color="rgb(47.111511%, 27.746582%, 0.1297%)" offset="0.917969"/><stop stop-opacity="1" stop-color="rgb(46.902466%, 27.639771%, 0.123596%)" offset="0.921875"/><stop stop-opacity="1" stop-color="rgb(46.691895%, 27.532959%, 0.117493%)" offset="0.925781"/><stop stop-opacity="1" stop-color="rgb(46.481323%, 27.426147%, 0.111389%)" offset="0.929688"/><stop stop-opacity="1" stop-color="rgb(46.270752%, 27.31781%, 0.105286%)" offset="0.933594"/><stop stop-opacity="1" stop-color="rgb(46.061707%, 27.210999%, 0.0991821%)" offset="0.9375"/><stop stop-opacity="1" stop-color="rgb(45.851135%, 27.104187%, 0.0930786%)" offset="0.941406"/><stop stop-opacity="1" stop-color="rgb(45.64209%, 26.997375%, 0.0869751%)" offset="0.945312"/><stop stop-opacity="1" stop-color="rgb(45.431519%, 26.890564%, 0.0808716%)" offset="0.949219"/><stop stop-opacity="1" stop-color="rgb(45.220947%, 26.783752%, 0.0747681%)" offset="0.953125"/><stop stop-opacity="1" stop-color="rgb(45.010376%, 26.676941%, 0.0671387%)" offset="0.957031"/><stop stop-opacity="1" stop-color="rgb(44.801331%, 26.570129%, 0.0610352%)" offset="0.960938"/><stop stop-opacity="1" stop-color="rgb(44.590759%, 26.461792%, 0.0549316%)" offset="0.964844"/><stop stop-opacity="1" stop-color="rgb(44.380188%, 26.35498%, 0.0488281%)" offset="0.96875"/><stop stop-opacity="1" stop-color="rgb(44.169617%, 26.248169%, 0.0427246%)" offset="0.972656"/><stop stop-opacity="1" stop-color="rgb(43.960571%, 26.141357%, 0.0366211%)" offset="0.976562"/><stop stop-opacity="1" stop-color="rgb(43.75%, 26.034546%, 0.0305176%)" offset="0.980469"/><stop stop-opacity="1" stop-color="rgb(43.539429%, 25.927734%, 0.0244141%)" offset="0.984375"/><stop stop-opacity="1" stop-color="rgb(43.328857%, 25.819397%, 0.0183105%)" offset="0.988281"/><stop stop-opacity="1" stop-color="rgb(43.119812%, 25.712585%, 0.012207%)" offset="0.992188"/><stop stop-opacity="1" stop-color="rgb(42.909241%, 25.605774%, 0.00610352%)" offset="0.996094"/><stop stop-opacity="1" stop-color="rgb(42.698669%, 25.498962%, 0%)" offset="1"/></linearGradient><clipPath id="30bf8e1025"><rect x="0" width="313" y="0" height="313"/></clipPath></defs><g mask="url(#4f22815380)"><g transform="matrix(1, 0, 0, 1, 31, 31)"><g clip-path="url(#30bf8e1025)"><g clip-path="url(#abdf4f6f50)"><g clip-path="url(#9f2b930b74)"><path fill="url(#9a71302793)" d="M 0.46875 0.46875 L 0.46875 312.53125 L 312.53125 312.53125 L 312.53125 0.46875 Z M 0.46875 0.46875 " fill-rule="nonzero"/></g></g></g></g></g><path fill="#adabac" d="M 121.890625 78.90625 L 131.84375 78.90625 L 131.84375 123.246094 L 121.890625 123.246094 Z M 121.890625 78.90625 " fill-opacity="1" fill-rule="nonzero"/><path fill="#adabac" d="M 243.15625 78.90625 L 253.109375 78.90625 L 253.109375 123.246094 L 243.15625 123.246094 Z M 243.15625 78.90625 " fill-opacity="1" fill-rule="nonzero"/><path fill="#c8c8c5" d="M 294.285156 282.066406 C 294.285156 283.425781 293.832031 284.78125 292.925781 285.6875 C 292.023438 286.59375 290.664062 287.046875 289.308594 287.046875 L 85.691406 287.046875 C 82.976562 287.046875 80.714844 284.78125 80.714844 282.066406 C 80.714844 280.710938 81.167969 279.351562 82.074219 278.449219 C 82.976562 277.542969 84.335938 277.089844 85.691406 277.089844 L 289.308594 277.089844 C 292.023438 277.089844 294.285156 279.351562 294.285156 282.066406 Z M 294.285156 282.066406 " fill-opacity="1" fill-rule="nonzero"/><path fill="#3d3e3c" d="M 265.777344 287.046875 C 265.777344 287.949219 265.328125 288.402344 264.875 288.855469 C 264.421875 289.308594 263.515625 289.761719 263.0625 289.761719 L 95.195312 289.761719 C 93.835938 290.210938 92.480469 288.855469 92.480469 287.046875 C 92.480469 286.140625 92.933594 285.6875 93.382812 285.234375 C 93.835938 284.78125 94.742188 284.332031 95.195312 284.332031 L 263.0625 284.332031 C 264.421875 284.332031 265.777344 285.6875 265.777344 287.046875 Z M 265.777344 287.046875 " fill-opacity="1" fill-rule="nonzero"/><path fill="#c8c8c5" d="M 255.371094 291.117188 C 255.371094 292.023438 254.917969 292.476562 254.46875 292.925781 C 254.015625 293.378906 253.109375 293.832031 252.65625 293.832031 L 120.984375 293.832031 C 119.628906 293.832031 118.269531 292.476562 118.269531 291.117188 C 118.269531 290.210938 118.722656 289.761719 119.175781 289.308594 C 119.628906 288.855469 120.53125 288.402344 120.984375 288.402344 L 252.65625 288.402344 C 254.015625 288.402344 255.371094 289.761719 255.371094 291.117188 Z M 255.371094 291.117188 " fill-opacity="1" fill-rule="nonzero"/><path fill="#3d3e3c" d="M 294.285156 291.117188 C 294.285156 291.570312 294.285156 291.570312 293.832031 292.023438 C 293.832031 292.023438 293.378906 292.476562 292.925781 292.476562 L 273.921875 292.476562 C 273.472656 292.476562 273.019531 292.023438 273.019531 291.570312 C 273.019531 291.117188 273.019531 291.117188 273.472656 290.664062 C 273.472656 290.664062 273.921875 290.210938 274.375 290.210938 L 293.378906 290.210938 C 293.832031 290.210938 294.285156 290.664062 294.285156 291.117188 Z M 294.285156 291.117188 " fill-opacity="1" fill-rule="nonzero"/><path fill="#3d3e3c" d="M 114.199219 294.285156 C 114.199219 294.738281 114.199219 295.191406 113.746094 295.640625 C 113.292969 295.640625 112.839844 296.09375 112.386719 296.09375 L 88.40625 296.09375 C 87.503906 296.09375 86.597656 295.191406 86.597656 294.285156 C 86.597656 293.832031 86.597656 293.378906 87.050781 292.925781 C 87.503906 292.476562 87.953125 292.476562 88.40625 292.476562 L 112.839844 292.476562 C 113.292969 292.476562 114.199219 293.378906 114.199219 294.285156 Z M 114.199219 294.285156 " fill-opacity="1" fill-rule="nonzero"/><path fill="#79bfd3" d="M 86.597656 127.320312 L 288.402344 127.320312 L 288.402344 280.710938 L 86.597656 280.710938 Z M 86.597656 127.320312 " fill-opacity="1" fill-rule="nonzero"/><path fill="#000000" d="M 86.597656 127.320312 L 288.402344 127.320312 L 288.402344 135.917969 L 86.597656 135.917969 Z M 86.597656 127.320312 " fill-opacity="0.1" fill-rule="nonzero"/><path fill="#000000" d="M 86.597656 153.113281 L 288.402344 153.113281 L 288.402344 155.828125 L 86.597656 155.828125 Z M 86.597656 153.113281 " fill-opacity="0.1" fill-rule="nonzero"/><path fill="#282826" d="M 293.378906 125.058594 L 293.378906 129.582031 C 293.378906 130.488281 292.476562 131.390625 291.570312 131.390625 L 83.882812 131.390625 C 82.976562 131.390625 82.074219 130.488281 82.074219 129.582031 L 82.074219 125.058594 C 82.074219 124.152344 82.976562 123.246094 83.882812 123.246094 L 291.117188 123.246094 C 292.476562 123.246094 293.378906 124.152344 293.378906 125.058594 Z M 293.378906 125.058594 " fill-opacity="1" fill-rule="nonzero"/><path fill="#6eb3c3" d="M 86.597656 157.636719 L 288.402344 157.636719 L 288.402344 160.804688 L 86.597656 160.804688 Z M 86.597656 157.636719 " fill-opacity="1" fill-rule="nonzero"/><path fill="#5897a2" d="M 86.597656 160.804688 L 288.402344 160.804688 L 288.402344 163.066406 L 86.597656 163.066406 Z M 86.597656 160.804688 " fill-opacity="1" fill-rule="nonzero"/><path fill="#6eb3c3" d="M 86.597656 171.664062 L 288.402344 171.664062 L 288.402344 174.832031 L 86.597656 174.832031 Z M 86.597656 171.664062 " fill-opacity="1" fill-rule="nonzero"/><path fill="#5897a2" d="M 86.597656 174.832031 L 288.402344 174.832031 L 288.402344 177.09375 L 86.597656 177.09375 Z M 86.597656 174.832031 " fill-opacity="1" fill-rule="nonzero"/><path fill="#6eb3c3" d="M 86.597656 185.238281 L 288.402344 185.238281 L 288.402344 188.40625 L 86.597656 188.40625 Z M 86.597656 185.238281 " fill-opacity="1" fill-rule="nonzero"/><path fill="#5897a2" d="M 86.597656 188.40625 L 288.402344 188.40625 L 288.402344 190.667969 L 86.597656 190.667969 Z M 86.597656 188.40625 " fill-opacity="1" fill-rule="nonzero"/><path fill="#6eb3c3" d="M 86.597656 199.265625 L 288.402344 199.265625 L 288.402344 202.433594 L 86.597656 202.433594 Z M 86.597656 199.265625 " fill-opacity="1" fill-rule="nonzero"/><path fill="#5897a2" d="M 86.597656 202.433594 L 288.402344 202.433594 L 288.402344 204.695312 L 86.597656 204.695312 Z M 86.597656 202.433594 " fill-opacity="1" fill-rule="nonzero"/><path fill="#6eb3c3" d="M 86.597656 212.839844 L 288.402344 212.839844 L 288.402344 216.007812 L 86.597656 216.007812 Z M 86.597656 212.839844 " fill-opacity="1" fill-rule="nonzero"/><path fill="#5897a2" d="M 86.597656 216.007812 L 288.402344 216.007812 L 288.402344 218.269531 L 86.597656 218.269531 Z M 86.597656 216.007812 " fill-opacity="1" fill-rule="nonzero"/><path fill="#6eb3c3" d="M 86.597656 226.867188 L 288.402344 226.867188 L 288.402344 230.03125 L 86.597656 230.03125 Z M 86.597656 226.867188 " fill-opacity="1" fill-rule="nonzero"/><path fill="#5897a2" d="M 86.597656 230.03125 L 288.402344 230.03125 L 288.402344 232.296875 L 86.597656 232.296875 Z M 86.597656 230.03125 " fill-opacity="1" fill-rule="nonzero"/><path fill="#6eb3c3" d="M 86.597656 240.441406 L 288.402344 240.441406 L 288.402344 243.609375 L 86.597656 243.609375 Z M 86.597656 240.441406 " fill-opacity="1" fill-rule="nonzero"/><path fill="#5897a2" d="M 86.597656 243.609375 L 288.402344 243.609375 L 288.402344 245.871094 L 86.597656 245.871094 Z M 86.597656 243.609375 " fill-opacity="1" fill-rule="nonzero"/><path fill="#6eb3c3" d="M 86.597656 254.46875 L 288.402344 254.46875 L 288.402344 257.632812 L 86.597656 257.632812 Z M 86.597656 254.46875 " fill-opacity="1" fill-rule="nonzero"/><path fill="#5897a2" d="M 86.597656 257.632812 L 288.402344 257.632812 L 288.402344 259.898438 L 86.597656 259.898438 Z M 86.597656 257.632812 " fill-opacity="1" fill-rule="nonzero"/><path fill="#6eb3c3" d="M 86.597656 268.042969 L 288.402344 268.042969 L 288.402344 271.207031 L 86.597656 271.207031 Z M 86.597656 268.042969 " fill-opacity="1" fill-rule="nonzero"/><path fill="#5897a2" d="M 86.597656 271.207031 L 288.402344 271.207031 L 288.402344 273.472656 L 86.597656 273.472656 Z M 86.597656 271.207031 " fill-opacity="1" fill-rule="nonzero"/><path fill="#282826" d="M 187.953125 182.070312 L 265.328125 182.070312 L 265.328125 244.964844 L 187.953125 244.964844 Z M 187.953125 182.070312 " fill-opacity="1" fill-rule="nonzero"/><path fill="#33676b" d="M 191.121094 185.238281 L 262.613281 185.238281 L 262.613281 242.25 L 191.121094 242.25 Z M 191.121094 185.238281 " fill-opacity="1" fill-rule="nonzero"/><path fill="#ffffff" d="M 200.621094 187.5 L 195.191406 242.25 L 192.476562 242.25 L 198.359375 187.5 Z M 200.621094 187.5 " fill-opacity="0.1" fill-rule="nonzero"/><path fill="#ffffff" d="M 224.601562 187.5 L 219.171875 242.25 L 213.742188 242.25 L 219.171875 187.5 Z M 224.601562 187.5 " fill-opacity="0.1" fill-rule="nonzero"/><path fill="#ffffff" d="M 216.910156 187.5 L 211.027344 242.25 L 197.453125 242.25 L 202.882812 187.5 Z M 216.910156 187.5 " fill-opacity="0.1" fill-rule="nonzero"/><path fill="#ffffff" d="M 237.726562 187.5 L 232.296875 242.25 L 230.03125 242.25 L 235.460938 187.5 Z M 237.726562 187.5 " fill-opacity="0.1" fill-rule="nonzero"/><path fill="#ffffff" d="M 261.707031 187.5 L 256.277344 242.25 L 250.847656 242.25 L 256.730469 187.5 Z M 261.707031 187.5 " fill-opacity="0.1" fill-rule="nonzero"/><path fill="#ffffff" d="M 254.015625 187.5 L 248.585938 242.25 L 234.558594 242.25 L 240.441406 187.5 Z M 254.015625 187.5 " fill-opacity="0.1" fill-rule="nonzero"/><path fill="#282826" d="M 225.054688 182.070312 L 228.222656 182.070312 L 228.222656 244.964844 L 225.054688 244.964844 Z M 225.054688 182.070312 " fill-opacity="1" fill-rule="nonzero"/><path fill="#282826" d="M 109.671875 182.070312 L 165.78125 182.070312 L 165.78125 281.164062 L 109.671875 281.164062 Z M 109.671875 182.070312 " fill-opacity="1" fill-rule="nonzero"/><path fill="#33676b" d="M 112.839844 185.238281 L 162.613281 185.238281 L 162.613281 281.164062 L 112.839844 281.164062 Z M 112.839844 185.238281 " fill-opacity="1" fill-rule="nonzero"/><path fill="#ffffff" d="M 119.628906 187.5 L 116.460938 250.847656 L 115.101562 250.847656 L 118.269531 187.5 Z M 119.628906 187.5 " fill-opacity="0.1" fill-rule="nonzero"/><path fill="#ffffff" d="M 133.65625 187.5 L 130.488281 250.847656 L 127.320312 250.847656 L 130.488281 187.5 Z M 133.65625 187.5 " fill-opacity="0.1" fill-rule="nonzero"/><path fill="#ffffff" d="M 129.128906 187.5 L 125.960938 250.847656 L 117.816406 250.847656 L 120.984375 187.5 Z M 129.128906 187.5 " fill-opacity="0.1" fill-rule="nonzero"/><path fill="#ffffff" d="M 119.628906 254.46875 L 116.460938 277.996094 L 115.101562 277.996094 L 118.269531 254.46875 Z M 119.628906 254.46875 " fill-opacity="0.1" fill-rule="nonzero"/><path fill="#ffffff" d="M 133.65625 254.46875 L 130.488281 277.996094 L 127.320312 277.996094 L 130.488281 254.46875 Z M 133.65625 254.46875 " fill-opacity="0.1" fill-rule="nonzero"/><path fill="#ffffff" d="M 129.128906 254.46875 L 125.960938 277.996094 L 117.816406 277.996094 L 120.984375 254.46875 Z M 129.128906 254.46875 " fill-opacity="0.1" fill-rule="nonzero"/><path fill="#ffffff" d="M 146.324219 254.46875 L 143.15625 277.996094 L 141.347656 277.996094 L 144.96875 254.46875 Z M 146.324219 254.46875 " fill-opacity="0.1" fill-rule="nonzero"/><path fill="#ffffff" d="M 159.898438 254.46875 L 156.730469 277.996094 L 153.5625 277.996094 L 156.730469 254.46875 Z M 159.898438 254.46875 " fill-opacity="0.1" fill-rule="nonzero"/><path fill="#ffffff" d="M 155.375 254.46875 L 152.207031 277.996094 L 144.515625 277.996094 L 147.683594 254.46875 Z M 155.375 254.46875 " fill-opacity="0.1" fill-rule="nonzero"/><path fill="#ffffff" d="M 147.230469 187.5 L 143.609375 250.847656 L 142.253906 250.847656 L 145.417969 187.5 Z M 147.230469 187.5 " fill-opacity="0.1" fill-rule="nonzero"/><path fill="#ffffff" d="M 160.804688 187.5 L 157.636719 250.847656 L 154.46875 250.847656 L 157.636719 187.5 Z M 160.804688 187.5 " fill-opacity="0.1" fill-rule="nonzero"/><path fill="#ffffff" d="M 156.277344 187.5 L 153.113281 250.847656 L 145.417969 250.847656 L 148.585938 187.5 Z M 156.277344 187.5 " fill-opacity="0.1" fill-rule="nonzero"/><path fill="#282826" d="M 135.464844 185.238281 L 139.988281 185.238281 L 139.988281 281.164062 L 135.464844 281.164062 Z M 135.464844 185.238281 " fill-opacity="1" fill-rule="nonzero"/><path fill="#000000" d="M 86.597656 187.046875 L 288.402344 239.082031 L 288.402344 187.5 Z M 86.597656 187.046875 " fill-opacity="0.1" fill-rule="nonzero"/><path fill="#282826" d="M 109.671875 250.847656 L 165.78125 250.847656 L 165.78125 254.015625 L 109.671875 254.015625 Z M 109.671875 250.847656 " fill-opacity="1" fill-rule="nonzero"/><path fill="#282826" d="M 109.671875 277.996094 L 165.78125 277.996094 L 165.78125 281.164062 L 109.671875 281.164062 Z M 109.671875 277.996094 " fill-opacity="1" fill-rule="nonzero"/><path fill="#282826" d="M 141.800781 260.800781 L 139.539062 260.800781 L 139.539062 259.898438 L 141.800781 259.898438 C 142.703125 259.898438 143.15625 259.445312 143.15625 258.539062 L 143.15625 239.988281 C 143.15625 239.082031 142.703125 238.628906 141.800781 238.628906 L 139.539062 238.628906 L 139.539062 237.273438 L 141.800781 237.273438 C 143.15625 237.273438 144.0625 238.175781 144.0625 239.535156 L 144.0625 258.085938 C 144.0625 259.445312 143.15625 260.800781 141.800781 260.800781 Z M 141.800781 260.800781 " fill-opacity="1" fill-rule="nonzero"/><path fill="#282826" d="M 135.917969 260.800781 L 133.65625 260.800781 C 132.296875 260.800781 131.390625 259.898438 131.390625 258.539062 L 131.390625 239.988281 C 131.390625 238.628906 132.296875 237.726562 133.65625 237.726562 L 135.917969 237.726562 L 135.917969 238.628906 L 133.65625 238.628906 C 132.75 238.628906 132.296875 239.082031 132.296875 239.988281 L 132.296875 258.539062 C 132.296875 259.445312 132.75 259.898438 133.65625 259.898438 L 135.917969 259.898438 Z M 135.917969 260.800781 " fill-opacity="1" fill-rule="nonzero"/><path fill="#8b5133" d="M 296.09375 181.164062 L 78.90625 181.164062 C 78 172.566406 80.714844 163.519531 86.144531 155.828125 L 288.402344 155.828125 C 294.285156 163.519531 297 172.566406 296.09375 181.164062 Z M 296.09375 181.164062 " fill-opacity="1" fill-rule="nonzero"/><path fill="#774323" d="M 295.191406 187.5 L 79.808594 187.5 L 78.90625 181.164062 L 296.09375 181.164062 Z M 295.191406 187.5 " fill-opacity="1" fill-rule="nonzero"/><path fill="#000000" d="M 296.09375 181.164062 C 296.09375 181.164062 295.640625 181.164062 296.09375 181.164062 C 130.035156 178.902344 86.597656 155.828125 86.597656 155.828125 L 288.855469 155.828125 C 294.285156 163.519531 297 172.566406 296.09375 181.164062 Z M 296.09375 181.164062 " fill-opacity="0.05" fill-rule="nonzero"/><path fill="#282826" d="M 192.476562 254.015625 L 180.710938 254.015625 C 178.449219 254.015625 176.640625 255.824219 176.1875 258.085938 C 176.1875 258.539062 176.640625 258.992188 176.640625 258.992188 L 177.09375 258.992188 L 173.925781 283.878906 L 175.734375 283.878906 L 176.640625 277.542969 L 189.308594 277.542969 L 188.40625 283.878906 L 190.214844 283.878906 L 193.382812 258.992188 L 193.835938 258.992188 C 194.289062 258.992188 194.738281 258.539062 194.738281 258.085938 C 196.097656 255.824219 194.738281 254.015625 192.476562 254.015625 Z M 192.476562 258.539062 L 190.214844 274.828125 L 177.546875 274.828125 L 179.808594 258.539062 Z M 192.476562 258.539062 " fill-opacity="0.2" fill-rule="nonzero"/><path fill="#705330" d="M 174.378906 257.632812 L 176.640625 257.632812 L 176.640625 282.972656 L 174.378906 282.972656 Z M 174.378906 257.632812 " fill-opacity="1" fill-rule="nonzero"/><path fill="#e4ebf5" d="M 174.378906 257.632812 L 174.832031 257.632812 L 174.832031 282.972656 L 174.378906 282.972656 Z M 174.378906 257.632812 " fill-opacity="0.1" fill-rule="nonzero"/><path fill="#000000" d="M 175.734375 257.632812 L 176.1875 257.632812 L 176.1875 282.972656 L 175.734375 282.972656 Z M 175.734375 257.632812 " fill-opacity="0.1" fill-rule="nonzero"/><path fill="#705330" d="M 189.308594 257.632812 L 191.574219 257.632812 L 191.574219 282.972656 L 189.308594 282.972656 Z M 189.308594 257.632812 " fill-opacity="1" fill-rule="nonzero"/><path fill="#e4ebf5" d="M 189.308594 257.632812 L 189.761719 257.632812 L 189.761719 282.972656 L 189.308594 282.972656 Z M 189.308594 257.632812 " fill-opacity="0.1" fill-rule="nonzero"/><path fill="#000000" d="M 190.667969 257.632812 L 191.121094 257.632812 L 191.121094 282.972656 L 190.667969 282.972656 Z M 190.667969 257.632812 " fill-opacity="0.1" fill-rule="nonzero"/><path fill="#705330" d="M 176.1875 274.828125 L 189.761719 274.828125 L 189.761719 277.089844 L 176.1875 277.089844 Z M 176.1875 274.828125 " fill-opacity="1" fill-rule="nonzero"/><path fill="#e4ebf5" d="M 176.1875 274.828125 L 189.761719 274.828125 L 189.761719 275.28125 L 176.1875 275.28125 Z M 176.1875 274.828125 " fill-opacity="0.1" fill-rule="nonzero"/><path fill="#000000" d="M 176.1875 276.1875 L 189.761719 276.1875 L 189.761719 276.636719 L 176.1875 276.636719 Z M 176.1875 276.1875 " fill-opacity="0.1" fill-rule="nonzero"/><path fill="#282826" d="M 192.929688 257.632812 C 192.929688 258.085938 192.476562 258.539062 192.023438 258.539062 L 173.925781 258.539062 C 173.472656 258.539062 173.019531 258.085938 173.019531 257.632812 C 173.019531 255.371094 174.832031 253.5625 177.09375 253.5625 L 188.859375 253.5625 C 191.121094 254.015625 192.929688 255.824219 192.929688 257.632812 Z M 192.929688 257.632812 " fill-opacity="1" fill-rule="nonzero"/><path fill="#282826" d="M 225.960938 257.632812 C 225.960938 258.085938 226.414062 258.539062 226.867188 258.539062 L 227.316406 258.539062 L 230.484375 283.425781 L 232.746094 283.425781 L 231.84375 277.089844 L 244.511719 277.089844 L 245.417969 283.425781 L 247.226562 283.425781 L 244.058594 258.539062 L 244.511719 258.539062 C 244.964844 258.539062 245.417969 258.085938 244.964844 257.632812 C 244.511719 255.371094 242.703125 253.5625 240.441406 253.5625 L 228.675781 253.5625 C 227.316406 254.015625 225.507812 255.824219 225.960938 257.632812 Z M 242.25 258.539062 L 244.511719 274.828125 L 231.84375 274.828125 L 229.582031 258.539062 Z M 242.25 258.539062 " fill-opacity="0.2" fill-rule="nonzero"/><path fill="#705330" d="M 245.417969 257.632812 L 247.679688 257.632812 L 247.679688 282.972656 L 245.417969 282.972656 Z M 245.417969 257.632812 " fill-opacity="1" fill-rule="nonzero"/><path fill="#e4ebf5" d="M 246.773438 257.632812 L 247.226562 257.632812 L 247.226562 282.972656 L 246.773438 282.972656 Z M 246.773438 257.632812 " fill-opacity="0.1" fill-rule="nonzero"/><path fill="#000000" d="M 245.417969 257.632812 L 245.871094 257.632812 L 245.871094 282.972656 L 245.417969 282.972656 Z M 245.417969 257.632812 " fill-opacity="0.1" fill-rule="nonzero"/><path fill="#705330" d="M 230.484375 257.632812 L 232.746094 257.632812 L 232.746094 282.972656 L 230.484375 282.972656 Z M 230.484375 257.632812 " fill-opacity="1" fill-rule="nonzero"/><path fill="#e4ebf5" d="M 231.84375 257.632812 L 232.296875 257.632812 L 232.296875 282.972656 L 231.84375 282.972656 Z M 231.84375 257.632812 " fill-opacity="0.1" fill-rule="nonzero"/><path fill="#000000" d="M 230.484375 257.632812 L 230.9375 257.632812 L 230.9375 282.972656 L 230.484375 282.972656 Z M 230.484375 257.632812 " fill-opacity="0.1" fill-rule="nonzero"/><path fill="#705330" d="M 232.296875 274.828125 L 245.871094 274.828125 L 245.871094 277.089844 L 232.296875 277.089844 Z M 232.296875 274.828125 " fill-opacity="1" fill-rule="nonzero"/><path fill="#e4ebf5" d="M 232.296875 274.828125 L 245.871094 274.828125 L 245.871094 275.28125 L 232.296875 275.28125 Z M 232.296875 274.828125 " fill-opacity="0.1" fill-rule="nonzero"/><path fill="#000000" d="M 232.296875 276.1875 L 245.871094 276.1875 L 245.871094 276.636719 L 232.296875 276.636719 Z M 232.296875 276.1875 " fill-opacity="0.1" fill-rule="nonzero"/><path fill="#282826" d="M 229.128906 257.632812 C 229.128906 258.085938 229.582031 258.539062 230.03125 258.539062 L 248.132812 258.539062 C 248.585938 258.539062 249.039062 258.085938 249.039062 257.632812 C 249.039062 255.371094 247.226562 253.5625 244.964844 253.5625 L 233.199219 253.5625 C 230.9375 254.015625 229.128906 255.824219 229.128906 257.632812 Z M 229.128906 257.632812 " fill-opacity="1" fill-rule="nonzero"/><path fill="#c0722b" d="M 210.125 250.394531 L 212.839844 250.394531 L 212.839844 282.972656 L 210.125 282.972656 Z M 210.125 250.394531 " fill-opacity="1" fill-rule="nonzero"/><path fill="#e4ebf5" d="M 211.933594 250.394531 L 212.839844 250.394531 L 212.839844 282.972656 L 211.933594 282.972656 Z M 211.933594 250.394531 " fill-opacity="0.1" fill-rule="nonzero"/><path fill="#000000" d="M 210.125 250.394531 L 211.027344 250.394531 L 211.027344 282.972656 L 210.125 282.972656 Z M 210.125 250.394531 " fill-opacity="0.1" fill-rule="nonzero"/><path fill="#c0722b" d="M 201.980469 280.710938 L 220.984375 280.710938 L 220.984375 283.425781 L 201.980469 283.425781 Z M 201.980469 280.710938 " fill-opacity="1" fill-rule="nonzero"/><path fill="#e4ebf5" d="M 201.980469 282.519531 L 220.984375 282.519531 L 220.984375 283.425781 L 201.980469 283.425781 Z M 201.980469 282.519531 " fill-opacity="0.1" fill-rule="nonzero"/><path fill="#000000" d="M 201.980469 280.710938 L 220.984375 280.710938 L 220.984375 281.617188 L 201.980469 281.617188 Z M 201.980469 280.710938 " fill-opacity="0.1" fill-rule="nonzero"/><path fill="#985524" d="M 230.9375 249.039062 L 230.9375 250.847656 C 230.9375 251.300781 230.484375 251.753906 230.03125 251.753906 L 192.476562 251.753906 C 192.023438 251.753906 191.574219 251.300781 191.574219 250.847656 L 191.574219 249.039062 C 191.574219 248.585938 192.023438 248.132812 192.476562 248.132812 L 230.03125 248.132812 C 230.484375 248.132812 230.9375 248.585938 230.9375 249.039062 Z M 230.9375 249.039062 " fill-opacity="1" fill-rule="nonzero"/><path fill="#000000" d="M 291.117188 282.972656 L 288.855469 282.972656 L 284.78125 266.683594 L 276.1875 266.683594 L 274.375 282.972656 L 272.113281 282.972656 L 273.921875 266.683594 L 267.589844 266.683594 L 272.113281 282.972656 L 269.851562 282.972656 L 265.777344 266.683594 L 257.183594 266.683594 L 255.371094 282.972656 L 253.109375 282.972656 L 254.917969 266.683594 L 257.632812 237.726562 L 278.902344 237.726562 L 287.046875 266.683594 Z M 291.117188 282.972656 " fill-opacity="0.1" fill-rule="nonzero"/><path fill="#c0722b" d="M 274.375 282.972656 L 272.113281 282.972656 L 276.1875 266.683594 L 259.445312 266.683594 L 255.371094 282.972656 L 253.109375 282.972656 L 257.183594 266.683594 L 263.96875 237.726562 L 285.234375 237.726562 L 278.449219 266.683594 Z M 274.375 282.972656 " fill-opacity="1" fill-rule="nonzero"/><path fill="#f8a24a" d="M 285.234375 237.726562 L 291.117188 282.972656 L 288.855469 282.972656 L 287.046875 266.683594 L 270.304688 266.683594 L 272.113281 282.972656 L 269.851562 282.972656 L 263.96875 237.726562 Z M 285.234375 237.726562 " fill-opacity="1" fill-rule="nonzero"/><path fill="#282826" d="M 269.851562 264.421875 L 266.683594 239.988281 L 283.425781 239.988281 L 286.59375 264.421875 Z M 269.851562 264.421875 " fill-opacity="1" fill-rule="nonzero"/><path fill="#ffffff" d="M 281.617188 243.15625 L 269.398438 243.15625 C 269.398438 243.15625 268.945312 243.15625 268.945312 242.703125 C 268.945312 242.703125 268.945312 242.25 269.398438 242.25 L 281.617188 242.25 C 281.617188 242.25 282.066406 242.25 281.617188 243.15625 C 282.066406 242.703125 282.066406 243.15625 281.617188 243.15625 Z M 281.617188 243.15625 " fill-opacity="1" fill-rule="nonzero"/><path fill="#ffffff" d="M 282.066406 245.871094 L 269.851562 245.871094 C 269.851562 245.871094 269.398438 245.871094 269.398438 245.417969 C 269.398438 244.964844 269.398438 244.964844 269.851562 244.964844 L 282.066406 244.964844 C 282.066406 245.417969 282.519531 245.417969 282.066406 245.871094 C 282.519531 245.871094 282.066406 245.871094 282.066406 245.871094 Z M 282.066406 245.871094 " fill-opacity="1" fill-rule="nonzero"/><path fill="#ffffff" d="M 282.519531 248.585938 L 270.304688 248.585938 C 270.304688 248.585938 269.851562 248.585938 269.851562 248.132812 C 269.851562 247.679688 269.851562 247.679688 270.304688 247.679688 L 282.519531 247.679688 C 282.519531 248.132812 282.519531 248.132812 282.519531 248.585938 C 282.972656 248.585938 282.519531 248.585938 282.519531 248.585938 Z M 282.519531 248.585938 " fill-opacity="1" fill-rule="nonzero"/><path fill="#ffffff" d="M 282.972656 251.753906 L 270.757812 251.753906 C 270.757812 251.753906 270.304688 251.753906 270.304688 251.300781 C 270.304688 251.300781 270.304688 250.847656 270.757812 250.847656 L 282.519531 250.847656 C 282.972656 250.847656 282.972656 251.300781 282.972656 251.753906 C 282.972656 251.300781 282.972656 251.753906 282.972656 251.753906 Z M 282.972656 251.753906 " fill-opacity="1" fill-rule="nonzero"/><path fill="#ffffff" d="M 282.972656 254.46875 L 270.757812 254.46875 C 270.757812 254.46875 270.304688 254.46875 270.304688 254.015625 C 270.304688 254.015625 270.304688 253.5625 270.757812 253.5625 L 282.972656 253.5625 C 283.425781 254.015625 283.425781 254.015625 282.972656 254.46875 C 283.425781 254.46875 283.425781 254.46875 282.972656 254.46875 Z M 282.972656 254.46875 " fill-opacity="1" fill-rule="nonzero"/><path fill="#ffffff" d="M 283.425781 257.183594 L 271.207031 257.183594 C 271.207031 257.183594 270.757812 257.183594 270.757812 256.730469 C 270.757812 256.730469 270.757812 256.277344 271.207031 256.277344 L 283.425781 256.277344 C 283.878906 256.730469 283.878906 256.730469 283.425781 257.183594 C 283.878906 257.183594 283.878906 257.183594 283.425781 257.183594 Z M 283.425781 257.183594 " fill-opacity="1" fill-rule="nonzero"/><path fill="#ffffff" d="M 283.878906 260.347656 L 271.660156 260.347656 C 271.660156 260.347656 271.207031 260.347656 271.207031 259.898438 C 271.207031 259.898438 271.207031 259.445312 271.660156 259.445312 L 283.878906 259.445312 C 283.878906 259.445312 284.332031 259.898438 283.878906 260.347656 C 284.332031 259.898438 284.332031 260.347656 283.878906 260.347656 Z M 283.878906 260.347656 " fill-opacity="1" fill-rule="nonzero"/><path fill="#f8a24a" d="M 287.046875 266.683594 L 288.855469 282.972656 L 291.117188 282.972656 L 289.308594 266.683594 Z M 287.046875 266.683594 " fill-opacity="1" fill-rule="nonzero"/><path fill="#f8a24a" d="M 268.042969 266.683594 L 269.851562 282.972656 L 272.113281 282.972656 L 270.304688 266.683594 Z M 268.042969 266.683594 " fill-opacity="1" fill-rule="nonzero"/><path fill="#d68134" d="M 257.632812 87.503906 L 257.632812 114.199219 C 257.632812 115.554688 256.277344 116.914062 254.917969 116.914062 L 120.53125 116.914062 C 119.175781 116.914062 117.816406 115.554688 117.816406 114.199219 L 117.816406 87.503906 C 117.816406 86.144531 119.175781 84.789062 120.53125 84.789062 L 254.917969 84.789062 C 256.277344 84.789062 257.632812 86.144531 257.632812 87.503906 Z M 257.632812 87.503906 " fill-opacity="1" fill-rule="nonzero"/><path fill="#ffffff" d="M 138.179688 106.054688 C 139.539062 106.054688 140.441406 105.601562 142.253906 104.242188 L 143.609375 105.601562 C 142.253906 107.410156 140.441406 107.863281 138.179688 107.863281 C 134.109375 107.863281 130.941406 105.148438 130.941406 100.625 C 130.941406 96.550781 134.109375 93.382812 138.179688 93.382812 C 140.441406 93.382812 142.253906 94.289062 143.609375 95.648438 L 142.253906 97.910156 C 140.894531 96.550781 139.988281 96.097656 138.179688 96.097656 C 135.464844 96.097656 133.203125 97.910156 133.203125 101.078125 C 133.65625 103.792969 135.917969 106.054688 138.179688 106.054688 Z M 138.179688 106.054688 " fill-opacity="1" fill-rule="nonzero"/><path fill="#ffffff" d="M 148.585938 104.695312 L 147.230469 107.863281 L 144.96875 107.863281 L 150.847656 94.289062 L 153.113281 94.289062 L 158.992188 107.863281 L 156.730469 107.863281 L 155.375 104.695312 Z M 154.46875 102.886719 L 151.753906 97.003906 L 149.039062 102.886719 Z M 154.46875 102.886719 " fill-opacity="1" fill-rule="nonzero"/><path fill="#ffffff" d="M 163.519531 96.550781 L 163.519531 100.171875 L 169.402344 100.171875 L 169.402344 102.433594 L 163.519531 102.433594 L 163.519531 108.316406 L 161.257812 108.316406 L 161.257812 94.742188 L 170.304688 94.742188 L 170.304688 97.003906 L 163.519531 97.003906 Z M 163.519531 96.550781 " fill-opacity="1" fill-rule="nonzero"/><path fill="#ffffff" d="M 182.523438 94.289062 L 182.523438 96.550781 L 175.28125 96.550781 L 175.28125 100.171875 L 182.070312 100.171875 L 182.070312 102.433594 L 175.28125 102.433594 L 175.28125 106.054688 L 182.976562 106.054688 L 182.976562 108.316406 L 173.019531 108.316406 L 173.019531 94.742188 L 182.523438 94.742188 Z M 182.523438 94.289062 " fill-opacity="1" fill-rule="nonzero"/><path fill="#ffffff" d="M 191.121094 96.097656 L 191.121094 107.863281 L 188.859375 107.863281 L 188.859375 96.097656 L 184.785156 96.097656 L 184.785156 94.289062 L 195.644531 94.289062 L 195.644531 96.550781 L 191.121094 96.550781 Z M 191.121094 96.097656 " fill-opacity="1" fill-rule="nonzero"/><path fill="#ffffff" d="M 207.410156 94.289062 L 207.410156 96.550781 L 200.167969 96.550781 L 200.167969 100.171875 L 206.957031 100.171875 L 206.957031 102.433594 L 200.167969 102.433594 L 200.167969 106.054688 L 207.863281 106.054688 L 207.863281 108.316406 L 197.90625 108.316406 L 197.90625 94.742188 L 207.410156 94.742188 Z M 207.410156 94.289062 " fill-opacity="1" fill-rule="nonzero"/><path fill="#ffffff" d="M 221.886719 98.8125 C 221.886719 101.078125 220.984375 102.433594 218.722656 102.886719 L 222.339844 107.863281 L 219.171875 107.863281 L 216.007812 103.339844 L 212.839844 103.339844 L 212.839844 107.863281 L 210.578125 107.863281 L 210.578125 94.289062 L 215.554688 94.289062 C 219.171875 94.289062 221.886719 95.195312 221.886719 98.8125 Z M 219.171875 98.8125 C 219.171875 96.550781 217.816406 96.550781 216.007812 96.550781 L 212.839844 96.550781 L 212.839844 101.527344 L 215.554688 101.527344 C 218.269531 101.078125 219.171875 100.625 219.171875 98.8125 Z M 219.171875 98.8125 " fill-opacity="1" fill-rule="nonzero"/><path fill="#ffffff" d="M 225.054688 94.289062 L 227.316406 94.289062 L 227.316406 107.863281 L 225.054688 107.863281 Z M 225.054688 94.289062 " fill-opacity="1" fill-rule="nonzero"/><path fill="#ffffff" d="M 233.199219 104.695312 L 231.84375 107.863281 L 229.582031 107.863281 L 235.460938 94.289062 L 237.726562 94.289062 L 243.605469 107.863281 L 241.34375 107.863281 L 239.988281 104.695312 Z M 239.082031 102.886719 L 236.367188 97.003906 L 233.652344 102.886719 Z M 239.082031 102.886719 " fill-opacity="1" fill-rule="nonzero"/><path fill="#000000" d="M 105.601562 260.347656 C 105.601562 260.800781 105.148438 261.253906 104.242188 261.253906 L 103.792969 261.253906 C 101.527344 263.96875 101.078125 266.683594 101.527344 269.398438 C 102.433594 272.566406 101.527344 276.1875 99.71875 279.351562 C 98.363281 281.164062 97.003906 282.066406 95.195312 282.972656 L 87.503906 282.972656 C 86.144531 282.519531 84.789062 281.617188 84.335938 279.351562 C 83.429688 276.1875 83.882812 272.566406 85.691406 269.398438 C 87.503906 266.683594 87.953125 263.96875 86.597656 261.253906 L 85.691406 261.253906 C 85.238281 261.253906 84.789062 260.800781 84.789062 260.347656 C 84.789062 259.898438 85.238281 259.445312 86.144531 259.445312 L 94.742188 259.445312 L 97.457031 244.511719 C 92.933594 244.058594 90.21875 240.890625 90.667969 236.367188 C 91.574219 231.84375 96.097656 228.222656 101.078125 228.222656 C 101.078125 228.222656 101.527344 228.222656 101.527344 228.222656 C 105.601562 228.675781 108.769531 231.84375 108.316406 235.460938 C 108.316406 235.460938 108.316406 235.914062 108.316406 235.914062 C 107.410156 239.988281 103.339844 243.605469 98.8125 244.058594 L 96.097656 258.992188 L 104.695312 258.992188 C 105.148438 259.445312 105.601562 259.898438 105.601562 260.347656 Z M 105.601562 260.347656 " fill-opacity="0.1" fill-rule="nonzero"/><path fill="#72451c" d="M 90.667969 236.367188 L 92.027344 236.367188 L 92.027344 263.96875 L 90.667969 263.96875 Z M 90.667969 236.367188 " fill-opacity="1" fill-rule="nonzero"/><path fill="#f8a24a" d="M 87.503906 282.519531 L 95.195312 282.519531 C 96.550781 282.066406 97.910156 280.710938 99.265625 278.902344 C 101.078125 275.734375 100.625 271.660156 99.71875 268.492188 C 98.363281 264.875 98.363281 261.707031 101.078125 258.992188 L 81.621094 258.992188 C 84.335938 261.707031 84.335938 264.875 82.976562 268.492188 C 81.621094 272.113281 81.621094 275.734375 83.429688 278.902344 C 84.789062 281.164062 86.144531 282.066406 87.503906 282.519531 Z M 87.503906 282.519531 " fill-opacity="1" fill-rule="nonzero"/><path fill="#000000" d="M 91.121094 258.992188 L 81.621094 258.992188 C 84.335938 261.707031 84.335938 264.875 82.976562 268.492188 C 81.621094 272.113281 81.621094 275.734375 83.429688 278.902344 C 84.335938 281.164062 85.691406 282.066406 87.503906 282.519531 L 91.121094 282.519531 Z M 91.121094 258.992188 " fill-opacity="0.05" fill-rule="nonzero"/><path fill="#ffdca8" d="M 101.527344 258.992188 C 101.527344 259.445312 101.078125 259.898438 100.625 259.898438 L 82.074219 259.898438 C 81.621094 259.898438 81.167969 259.445312 81.167969 258.992188 C 81.167969 258.539062 81.621094 258.085938 82.074219 258.085938 L 100.625 258.085938 C 101.078125 257.632812 101.527344 258.085938 101.527344 258.992188 Z M 101.527344 258.992188 " fill-opacity="1" fill-rule="nonzero"/><path fill="#409043" d="M 100.171875 233.199219 C 100.171875 238.175781 96.097656 241.796875 91.574219 241.796875 C 86.597656 241.796875 82.976562 237.726562 82.976562 233.199219 C 82.976562 228.222656 87.050781 224.601562 91.574219 224.601562 C 92.027344 224.601562 92.027344 224.601562 92.480469 224.601562 C 96.550781 225.054688 100.171875 228.222656 100.625 232.746094 C 100.171875 232.746094 100.171875 232.746094 100.171875 233.199219 Z M 100.171875 233.199219 " fill-opacity="1" fill-rule="nonzero"/><path fill="#ffffff" d="M 100.171875 232.296875 C 99.71875 235.914062 96.550781 238.628906 92.933594 238.628906 C 88.859375 238.628906 85.691406 235.460938 85.691406 231.390625 C 85.691406 227.769531 88.40625 224.601562 92.480469 224.152344 C 96.097656 224.601562 99.71875 228.222656 100.171875 232.296875 Z M 100.171875 232.296875 " fill-opacity="0.1" fill-rule="nonzero"/><path fill="#ffffff" d="M 98.363281 230.03125 C 98.363281 230.300781 98.335938 230.566406 98.285156 230.828125 C 98.230469 231.089844 98.152344 231.34375 98.050781 231.589844 C 97.949219 231.839844 97.824219 232.074219 97.675781 232.296875 C 97.527344 232.519531 97.359375 232.722656 97.167969 232.914062 C 96.980469 233.101562 96.773438 233.269531 96.550781 233.417969 C 96.328125 233.566406 96.09375 233.691406 95.847656 233.796875 C 95.601562 233.898438 95.347656 233.976562 95.082031 234.027344 C 94.820312 234.078125 94.558594 234.105469 94.289062 234.105469 C 94.023438 234.105469 93.757812 234.078125 93.496094 234.027344 C 93.234375 233.976562 92.976562 233.898438 92.730469 233.796875 C 92.484375 233.691406 92.25 233.566406 92.027344 233.417969 C 91.804688 233.269531 91.597656 233.101562 91.410156 232.914062 C 91.21875 232.722656 91.050781 232.519531 90.902344 232.296875 C 90.753906 232.074219 90.628906 231.839844 90.527344 231.589844 C 90.425781 231.34375 90.347656 231.089844 90.296875 230.828125 C 90.242188 230.566406 90.21875 230.300781 90.21875 230.03125 C 90.21875 229.765625 90.242188 229.5 90.296875 229.238281 C 90.347656 228.976562 90.425781 228.722656 90.527344 228.476562 C 90.628906 228.226562 90.753906 227.992188 90.902344 227.769531 C 91.050781 227.546875 91.21875 227.34375 91.410156 227.152344 C 91.597656 226.964844 91.804688 226.796875 92.027344 226.648438 C 92.25 226.5 92.484375 226.371094 92.730469 226.269531 C 92.976562 226.167969 93.234375 226.089844 93.496094 226.039062 C 93.757812 225.988281 94.023438 225.960938 94.289062 225.960938 C 94.558594 225.960938 94.820312 225.988281 95.082031 226.039062 C 95.347656 226.089844 95.601562 226.167969 95.847656 226.269531 C 96.09375 226.375 96.328125 226.5 96.550781 226.648438 C 96.773438 226.796875 96.980469 226.964844 97.167969 227.152344 C 97.359375 227.34375 97.527344 227.546875 97.675781 227.769531 C 97.824219 227.992188 97.949219 228.226562 98.050781 228.476562 C 98.152344 228.722656 98.230469 228.976562 98.285156 229.238281 C 98.335938 229.5 98.363281 229.765625 98.363281 230.03125 Z M 98.363281 230.03125 " fill-opacity="0.1" fill-rule="nonzero"/><path fill="#000000" d="M 109.671875 187.5 L 165.78125 234.558594 L 165.78125 187.5 Z M 109.671875 187.5 " fill-opacity="0.1" fill-rule="nonzero"/><path fill="#000000" d="M 176.640625 189.761719 L 187.953125 201.074219 L 187.953125 219.625 L 176.640625 214.648438 " fill-opacity="0.1" fill-rule="nonzero"/><path fill="#282826" d="M 177.09375 201.980469 C 177.09375 202.78125 177.089844 203.574219 177.085938 204.363281 C 177.078125 205.148438 177.070312 205.914062 177.058594 206.65625 C 177.046875 207.394531 177.035156 208.101562 177.015625 208.765625 C 177 209.433594 176.980469 210.050781 176.960938 210.617188 C 176.9375 211.183594 176.917969 211.691406 176.890625 212.136719 C 176.867188 212.582031 176.839844 212.960938 176.8125 213.265625 C 176.785156 213.574219 176.757812 213.804688 176.730469 213.960938 C 176.699219 214.117188 176.671875 214.195312 176.640625 214.195312 C 176.609375 214.195312 176.582031 214.117188 176.550781 213.960938 C 176.523438 213.804688 176.496094 213.574219 176.46875 213.265625 C 176.441406 212.960938 176.414062 212.582031 176.390625 212.136719 C 176.363281 211.691406 176.339844 211.183594 176.320312 210.617188 C 176.300781 210.050781 176.28125 209.433594 176.265625 208.765625 C 176.246094 208.101562 176.234375 207.394531 176.222656 206.65625 C 176.210938 205.914062 176.203125 205.148438 176.195312 204.363281 C 176.191406 203.574219 176.1875 202.78125 176.1875 201.980469 C 176.1875 201.175781 176.191406 200.382812 176.195312 199.597656 C 176.203125 198.808594 176.210938 198.046875 176.222656 197.304688 C 176.234375 196.5625 176.246094 195.859375 176.265625 195.191406 C 176.28125 194.523438 176.300781 193.90625 176.320312 193.339844 C 176.339844 192.773438 176.363281 192.265625 176.390625 191.820312 C 176.414062 191.375 176.441406 191 176.46875 190.691406 C 176.496094 190.386719 176.523438 190.152344 176.550781 189.996094 C 176.582031 189.839844 176.609375 189.761719 176.640625 189.761719 C 176.671875 189.761719 176.699219 189.839844 176.730469 189.996094 C 176.757812 190.152344 176.785156 190.386719 176.8125 190.691406 C 176.839844 191 176.867188 191.375 176.890625 191.820312 C 176.917969 192.265625 176.9375 192.773438 176.960938 193.339844 C 176.980469 193.90625 177 194.523438 177.015625 195.191406 C 177.035156 195.859375 177.046875 196.5625 177.058594 197.304688 C 177.070312 198.046875 177.078125 198.808594 177.085938 199.597656 C 177.089844 200.382812 177.09375 201.175781 177.09375 201.980469 Z M 177.09375 201.980469 " fill-opacity="1" fill-rule="nonzero"/><path fill="#353534" d="M 181.617188 197.90625 L 178.902344 211.480469 L 173.925781 211.480469 L 171.664062 197.90625 Z M 181.617188 197.90625 " fill-opacity="1" fill-rule="nonzero"/><path fill="#606061" d="M 180.261719 198.8125 L 177.996094 210.578125 L 174.832031 210.578125 L 173.019531 198.8125 Z M 180.261719 198.8125 " fill-opacity="1" fill-rule="nonzero"/><path fill="#282826" d="M 177.546875 192.929688 L 175.734375 192.929688 L 171.210938 197.90625 L 181.617188 197.90625 Z M 177.546875 192.929688 " fill-opacity="1" fill-rule="nonzero"/><path fill="#fdc352" d="M 177.996094 208.3125 C 177.996094 208.765625 177.996094 209.671875 177.996094 210.125 L 175.28125 210.125 C 175.28125 209.671875 175.28125 208.765625 175.28125 208.3125 C 175.28125 204.695312 175.734375 201.980469 176.640625 201.980469 C 177.09375 202.433594 177.996094 205.148438 177.996094 208.3125 Z M 177.996094 208.3125 " fill-opacity="1" fill-rule="nonzero"/><path fill="#000000" d="M 97.910156 189.761719 L 109.671875 201.074219 L 109.671875 219.625 L 97.910156 214.648438 " fill-opacity="0.1" fill-rule="nonzero"/><path fill="#282826" d="M 98.363281 201.980469 C 98.363281 202.78125 98.359375 203.574219 98.351562 204.363281 C 98.347656 205.148438 98.339844 205.914062 98.328125 206.65625 C 98.316406 207.394531 98.300781 208.101562 98.285156 208.765625 C 98.269531 209.433594 98.25 210.050781 98.230469 210.617188 C 98.207031 211.183594 98.183594 211.691406 98.160156 212.136719 C 98.136719 212.582031 98.109375 212.960938 98.082031 213.265625 C 98.054688 213.574219 98.027344 213.804688 97.996094 213.960938 C 97.96875 214.117188 97.9375 214.195312 97.910156 214.195312 C 97.878906 214.195312 97.851562 214.117188 97.820312 213.960938 C 97.792969 213.804688 97.761719 213.574219 97.734375 213.265625 C 97.707031 212.960938 97.683594 212.582031 97.65625 212.136719 C 97.632812 211.691406 97.609375 211.183594 97.589844 210.617188 C 97.566406 210.050781 97.550781 209.433594 97.53125 208.765625 C 97.515625 208.101562 97.503906 207.394531 97.492188 206.65625 C 97.480469 205.914062 97.472656 205.148438 97.464844 204.363281 C 97.460938 203.574219 97.457031 202.78125 97.457031 201.980469 C 97.457031 201.175781 97.460938 200.382812 97.464844 199.597656 C 97.472656 198.808594 97.480469 198.046875 97.492188 197.304688 C 97.503906 196.5625 97.515625 195.859375 97.53125 195.191406 C 97.550781 194.523438 97.566406 193.90625 97.589844 193.339844 C 97.609375 192.773438 97.632812 192.265625 97.65625 191.820312 C 97.683594 191.375 97.707031 191 97.734375 190.691406 C 97.761719 190.386719 97.792969 190.152344 97.820312 189.996094 C 97.851562 189.839844 97.878906 189.761719 97.910156 189.761719 C 97.9375 189.761719 97.96875 189.839844 97.996094 189.996094 C 98.027344 190.152344 98.054688 190.386719 98.082031 190.691406 C 98.109375 191 98.136719 191.375 98.160156 191.820312 C 98.183594 192.265625 98.207031 192.773438 98.230469 193.339844 C 98.25 193.90625 98.269531 194.523438 98.285156 195.191406 C 98.300781 195.859375 98.316406 196.5625 98.328125 197.304688 C 98.339844 198.046875 98.347656 198.808594 98.351562 199.597656 C 98.359375 200.382812 98.363281 201.175781 98.363281 201.980469 Z M 98.363281 201.980469 " fill-opacity="1" fill-rule="nonzero"/><path fill="#353534" d="M 102.886719 197.90625 L 100.625 211.480469 L 95.648438 211.480469 L 92.933594 197.90625 Z M 102.886719 197.90625 " fill-opacity="1" fill-rule="nonzero"/><path fill="#606061" d="M 101.527344 198.8125 L 99.71875 210.578125 L 96.550781 210.578125 L 94.289062 198.8125 Z M 101.527344 198.8125 " fill-opacity="1" fill-rule="nonzero"/><path fill="#282826" d="M 98.8125 192.929688 L 97.003906 192.929688 L 92.480469 197.90625 L 103.339844 197.90625 Z M 98.8125 192.929688 " fill-opacity="1" fill-rule="nonzero"/><path fill="#fdc352" d="M 99.265625 208.3125 C 99.265625 208.765625 99.265625 209.671875 99.265625 210.125 L 96.550781 210.125 C 96.550781 209.671875 96.550781 208.765625 96.550781 208.3125 C 96.550781 204.695312 97.003906 201.980469 97.910156 201.980469 C 98.8125 202.433594 99.265625 205.148438 99.265625 208.3125 Z M 99.265625 208.3125 " fill-opacity="1" fill-rule="nonzero"/><path fill="#000000" d="M 277.089844 189.761719 L 265.328125 201.074219 L 265.328125 219.625 L 277.089844 214.648438 " fill-opacity="0.1" fill-rule="nonzero"/><path fill="#282826" d="M 277.542969 201.980469 C 277.542969 202.78125 277.539062 203.574219 277.535156 204.363281 C 277.527344 205.148438 277.519531 205.914062 277.507812 206.65625 C 277.496094 207.394531 277.484375 208.101562 277.46875 208.765625 C 277.449219 209.433594 277.433594 210.050781 277.410156 210.617188 C 277.390625 211.183594 277.367188 211.691406 277.34375 212.136719 C 277.316406 212.582031 277.292969 212.960938 277.265625 213.265625 C 277.238281 213.574219 277.207031 213.804688 277.179688 213.960938 C 277.148438 214.117188 277.121094 214.195312 277.089844 214.195312 C 277.0625 214.195312 277.03125 214.117188 277.003906 213.960938 C 276.972656 213.804688 276.945312 213.574219 276.917969 213.265625 C 276.890625 212.960938 276.863281 212.582031 276.839844 212.136719 C 276.816406 211.691406 276.792969 211.183594 276.769531 210.617188 C 276.75 210.050781 276.730469 209.433594 276.714844 208.765625 C 276.699219 208.101562 276.683594 207.394531 276.671875 206.65625 C 276.660156 205.914062 276.652344 205.148438 276.648438 204.363281 C 276.640625 203.574219 276.636719 202.78125 276.636719 201.980469 C 276.636719 201.175781 276.640625 200.382812 276.648438 199.597656 C 276.652344 198.808594 276.660156 198.046875 276.671875 197.304688 C 276.683594 196.5625 276.699219 195.859375 276.714844 195.191406 C 276.730469 194.523438 276.75 193.90625 276.769531 193.339844 C 276.792969 192.773438 276.816406 192.265625 276.839844 191.820312 C 276.863281 191.375 276.890625 191 276.917969 190.691406 C 276.945312 190.386719 276.972656 190.152344 277.003906 189.996094 C 277.03125 189.839844 277.0625 189.761719 277.089844 189.761719 C 277.121094 189.761719 277.148438 189.839844 277.179688 189.996094 C 277.207031 190.152344 277.238281 190.386719 277.265625 190.691406 C 277.292969 191 277.316406 191.375 277.34375 191.820312 C 277.367188 192.265625 277.390625 192.773438 277.410156 193.339844 C 277.433594 193.90625 277.449219 194.523438 277.46875 195.191406 C 277.484375 195.859375 277.496094 196.5625 277.507812 197.304688 C 277.519531 198.046875 277.527344 198.808594 277.535156 199.597656 C 277.539062 200.382812 277.542969 201.175781 277.542969 201.980469 Z M 277.542969 201.980469 " fill-opacity="1" fill-rule="nonzero"/><path fill="#353534" d="M 272.113281 197.90625 L 274.375 211.480469 L 279.351562 211.480469 L 282.066406 197.90625 Z M 272.113281 197.90625 " fill-opacity="1" fill-rule="nonzero"/><path fill="#606061" d="M 273.472656 198.8125 L 275.28125 210.578125 L 278.902344 210.578125 L 280.710938 198.8125 Z M 273.472656 198.8125 " fill-opacity="1" fill-rule="nonzero"/><path fill="#282826" d="M 276.1875 192.929688 L 277.996094 192.929688 L 282.519531 197.90625 L 271.660156 197.90625 Z M 276.1875 192.929688 " fill-opacity="1" fill-rule="nonzero"/><path fill="#fdc352" d="M 275.734375 208.3125 C 275.734375 208.765625 275.734375 209.671875 275.734375 210.125 L 278.449219 210.125 C 278.449219 209.671875 278.449219 208.765625 278.449219 208.3125 C 278.449219 204.695312 277.996094 201.980469 277.089844 201.980469 C 276.1875 202.433594 275.734375 205.148438 275.734375 208.3125 Z M 275.734375 208.3125 " fill-opacity="1" fill-rule="nonzero"/></svg>