<svg xmlns="http://www.w3.org/2000/svg" xmlns:xlink="http://www.w3.org/1999/xlink" width="500" zoomAndPan="magnify" viewBox="0 0 375 374.999991" height="500" preserveAspectRatio="xMidYMid meet" version="1.0"><path fill="#1d1e20" d="M 185.9375 78.125 C 125.625 78.125 76.5625 127.1875 76.5625 187.5 C 76.5625 247.8125 125.625 296.875 185.9375 296.875 C 246.25 296.875 295.3125 247.8125 295.3125 187.5 C 295.3125 127.1875 246.25 78.125 185.9375 78.125 Z M 185.9375 281.25 C 134.242188 281.25 92.1875 239.195312 92.1875 187.5 C 92.1875 135.804688 134.242188 93.75 185.9375 93.75 C 237.632812 93.75 279.6875 135.804688 279.6875 187.5 C 279.6875 239.195312 237.632812 281.25 185.9375 281.25 Z M 185.9375 281.25 " fill-opacity="1" fill-rule="nonzero"/><path fill="#1d1e20" d="M 227.289062 150.726562 L 170.3125 207.703125 L 144.578125 181.976562 C 141.523438 178.921875 136.585938 178.921875 133.53125 181.976562 C 130.476562 185.03125 130.476562 189.976562 133.53125 193.023438 L 164.789062 224.273438 C 166.320312 225.796875 168.320312 226.5625 170.3125 226.5625 C 172.304688 226.5625 174.3125 225.796875 175.835938 224.273438 L 238.335938 161.773438 C 241.390625 158.71875 241.390625 153.78125 238.335938 150.726562 C 235.28125 147.671875 230.34375 147.671875 227.289062 150.726562 Z M 227.289062 150.726562 " fill-opacity="1" fill-rule="nonzero"/><path fill="#1d1e20" d="M 341.171875 162.085938 C 337.953125 159.703125 336.953125 154.992188 339.085938 151.601562 C 346.71875 139.460938 357.804688 113.960938 319.632812 104.609375 C 315.742188 103.65625 312.859375 99.632812 313.6875 95.726562 C 317.351562 78.585938 312.21875 53.695312 277.71875 59.757812 C 273.789062 60.445312 269.609375 57.742188 268.835938 53.8125 C 266.25 40.671875 255.109375 14.054688 221.851562 34.351562 C 218.429688 36.4375 212.976562 35.304688 211.367188 32.257812 C 206.203125 22.5 183.585938 0 160.507812 32.257812 C 158.179688 35.515625 152.828125 36.351562 150.023438 34.34375 C 134.882812 23.5 110.421875 20.789062 103.03125 53.796875 C 102.179688 57.585938 98.148438 60.492188 94.140625 59.734375 C 80.90625 57.21875 51.859375 58.046875 58.195312 95.703125 C 58.859375 99.648438 56.210938 104 52.257812 104.59375 C 36.84375 106.898438 13.078125 119.28125 32.789062 151.578125 C 34.875 154.992188 34.273438 160.257812 30.703125 162.0625 C 17.023438 168.976562 1.359375 193.570312 30.703125 212.945312 C 34.039062 215.148438 34.875 219.890625 32.789062 223.304688 C 13.078125 255.601562 36.84375 267.976562 52.257812 270.289062 C 56.21875 270.882812 58.859375 275.234375 58.195312 279.179688 C 51.859375 316.835938 80.90625 317.664062 94.15625 315.140625 C 98.164062 314.375 102.195312 317.289062 103.046875 321.078125 C 110.4375 354.09375 134.898438 351.375 150.039062 340.53125 C 152.84375 338.523438 158.195312 339.359375 160.523438 342.617188 C 183.601562 374.882812 206.21875 352.382812 211.382812 342.617188 C 212.992188 339.578125 218.445312 338.4375 221.867188 340.523438 C 255.125 360.820312 266.265625 334.203125 268.851562 321.0625 C 269.625 317.132812 273.804688 314.429688 277.734375 315.117188 C 312.234375 321.179688 317.359375 296.289062 313.703125 279.148438 C 312.867188 275.242188 315.757812 271.21875 319.648438 270.265625 C 357.828125 260.914062 346.742188 235.414062 339.101562 223.273438 C 336.96875 219.882812 337.890625 215.070312 341.171875 212.804688 C 351.375 205.75 373.4375 185.960938 341.171875 162.085938 Z M 330.015625 239.929688 C 332.671875 244.203125 331.03125 250.078125 324.984375 252.070312 C 313.90625 255.726562 293.492188 258.734375 298.9375 291.070312 C 299.976562 297.21875 296.6875 300.898438 289.640625 300.359375 C 278.921875 299.539062 256.851562 295.203125 250.65625 326.414062 C 249.429688 332.578125 243.390625 333.914062 238.515625 331.453125 C 217.484375 320.835938 209.070312 319.476562 192.523438 340.601562 C 189.359375 344.640625 182.765625 344.46875 179.375 340.601562 C 170.484375 330.46875 160.414062 314.890625 133.375 331.460938 C 128.671875 334.34375 123.3125 332.117188 121.234375 326.429688 C 115.835938 311.617188 114.242188 295.828125 82.242188 300.382812 C 77.304688 301.085938 72.070312 297.742188 72.953125 291.09375 C 74.632812 278.375 76.5625 257.953125 46.890625 252.09375 C 42.3125 251.1875 38.734375 245.078125 41.859375 239.953125 C 53.710938 220.570312 52.070312 208.445312 32.539062 193.875 C 30.335938 192.234375 26.75 185.179688 32.710938 180.914062 C 51.734375 167.304688 53.710938 154.3125 41.859375 134.921875 C 38.726562 129.796875 42.3125 123.679688 46.890625 122.78125 C 76.5625 116.921875 74.632812 96.5 72.953125 83.78125 C 72.070312 77.132812 77.3125 73.789062 82.242188 74.492188 C 114.242188 79.039062 115.835938 63.257812 121.234375 48.445312 C 123.304688 42.75 128.671875 40.53125 133.375 43.414062 C 160.421875 59.984375 170.492188 44.40625 179.375 34.273438 C 182.765625 30.40625 189.351562 30.234375 192.523438 34.273438 C 209.070312 55.398438 217.484375 54.039062 238.515625 43.421875 C 243.390625 40.960938 249.429688 42.296875 250.65625 48.460938 C 256.851562 79.671875 278.921875 75.335938 289.640625 74.515625 C 296.695312 73.976562 299.976562 77.65625 298.9375 83.804688 C 293.492188 116.148438 313.90625 119.148438 324.984375 122.804688 C 331.03125 124.796875 332.671875 130.679688 330.015625 134.945312 C 312.640625 162.851562 331 173.945312 339.164062 180.945312 C 342.351562 183.679688 344.1875 190.140625 339.898438 193.484375 C 330.140625 200.234375 312.640625 212.023438 330.015625 239.929688 Z M 330.015625 239.929688 " fill-opacity="1" fill-rule="nonzero"/></svg>