<svg xmlns="http://www.w3.org/2000/svg" xmlns:xlink="http://www.w3.org/1999/xlink" width="500" zoomAndPan="magnify" viewBox="0 0 375 374.999991" height="500" preserveAspectRatio="xMidYMid meet" version="1.0"><defs><clipPath id="612a90be4d"><path d="M 0 149 L 375 149 L 375 374.25 L 0 374.25 Z M 0 149 " clip-rule="nonzero"/></clipPath><clipPath id="955a38ae8e"><path d="M 237.324219 0 L 374.917969 0 L 374.917969 137.605469 L 237.324219 137.605469 Z M 237.324219 0 " clip-rule="nonzero"/></clipPath></defs><g clip-path="url(#612a90be4d)"><path fill="#1d1e20" d="M 311.792969 361.59375 L 311.792969 162.09375 L 336.730469 162.09375 L 336.730469 361.59375 Z M 243.214844 361.59375 L 243.214844 199.5 L 268.152344 199.5 L 268.152344 361.59375 Z M 174.636719 361.59375 L 174.636719 268.078125 L 199.574219 268.078125 L 199.574219 361.59375 Z M 106.058594 361.59375 L 106.058594 249.375 L 130.996094 249.375 L 130.996094 361.59375 Z M 37.480469 361.59375 L 37.480469 293.015625 L 62.417969 293.015625 L 62.417969 361.59375 Z M 367.902344 361.59375 L 349.195312 361.59375 L 349.195312 149.625 L 299.320312 149.625 L 299.320312 361.59375 L 280.621094 361.59375 L 280.621094 187.03125 L 230.746094 187.03125 L 230.746094 361.59375 L 212.042969 361.59375 L 212.042969 255.609375 L 162.167969 255.609375 L 162.167969 361.59375 L 143.464844 361.59375 L 143.464844 236.90625 L 93.589844 236.90625 L 93.589844 361.59375 L 74.886719 361.59375 L 74.886719 280.546875 L 25.007812 280.546875 L 25.007812 361.59375 L 6.308594 361.59375 C 2.863281 361.59375 0.0742188 364.386719 0.0742188 367.828125 C 0.0742188 371.269531 2.863281 374.0625 6.308594 374.0625 L 367.902344 374.0625 C 371.347656 374.0625 374.136719 371.269531 374.136719 367.828125 C 374.136719 364.386719 371.347656 361.59375 367.902344 361.59375 " fill-opacity="1" fill-rule="nonzero"/></g><path fill="#1d1e20" d="M 37.480469 261.84375 C 38.996094 261.84375 40.511719 261.296875 41.710938 260.191406 L 118.355469 189.445312 L 155.917969 227.011719 L 236.777344 146.511719 L 236.980469 166.621094 C 237.015625 170.039062 239.796875 172.789062 243.214844 172.789062 C 243.230469 172.789062 243.257812 172.789062 243.28125 172.789062 C 246.71875 172.753906 249.484375 169.9375 249.449219 166.492188 L 249.015625 124.621094 L 207.875 125.054688 C 204.4375 125.09375 201.671875 127.914062 201.710938 131.359375 C 201.746094 134.773438 204.527344 137.523438 207.945312 137.523438 C 207.960938 137.523438 207.988281 137.523438 208.011719 137.523438 L 228.351562 137.308594 L 155.945312 209.398438 L 118.699219 172.152344 L 33.246094 251.027344 C 30.722656 253.363281 30.5625 257.308594 32.902344 259.835938 C 34.125 261.167969 35.800781 261.84375 37.480469 261.84375 " fill-opacity="1" fill-rule="nonzero"/><g clip-path="url(#955a38ae8e)"><path fill="#1d1e20" d="M 306.335938 124.6875 C 275.394531 124.6875 250.230469 99.515625 250.230469 68.578125 C 250.230469 37.640625 275.394531 12.46875 306.335938 12.46875 C 337.277344 12.46875 362.445312 37.640625 362.445312 68.578125 C 362.445312 99.515625 337.277344 124.6875 306.335938 124.6875 Z M 306.335938 0 C 268.523438 0 237.757812 30.765625 237.757812 68.578125 C 237.757812 106.390625 268.523438 137.15625 306.335938 137.15625 C 344.152344 137.15625 374.914062 106.390625 374.914062 68.578125 C 374.914062 30.765625 344.152344 0 306.335938 0 " fill-opacity="1" fill-rule="nonzero"/></g><path fill="#1d1e20" d="M 306.335938 43.640625 C 312.351562 43.640625 317.25 47.835938 317.25 52.988281 C 317.25 56.433594 320.035156 59.222656 323.484375 59.222656 C 326.925781 59.222656 329.714844 56.433594 329.714844 52.988281 C 329.714844 42.765625 322.109375 34.226562 311.925781 31.875 L 311.742188 30.398438 C 311.316406 26.984375 308.226562 24.539062 304.785156 24.984375 C 301.371094 25.410156 298.945312 28.527344 299.371094 31.945312 L 299.410156 32.261719 C 289.914062 35.039062 282.957031 43.226562 282.957031 52.992188 C 282.957031 65.023438 293.445312 74.8125 306.335938 74.8125 C 312.351562 74.8125 317.25 79.007812 317.25 84.164062 C 317.25 89.320312 312.351562 93.515625 306.335938 93.515625 C 300.324219 93.515625 295.425781 89.320312 295.425781 84.164062 C 295.425781 80.71875 292.636719 77.925781 289.191406 77.925781 C 285.746094 77.925781 282.957031 80.71875 282.957031 84.164062 C 282.957031 93.929688 289.914062 102.117188 299.410156 104.894531 L 299.371094 105.210938 C 298.945312 108.625 301.371094 111.746094 304.785156 112.171875 C 305.046875 112.207031 305.308594 112.21875 305.566406 112.21875 C 308.664062 112.21875 311.347656 109.910156 311.742188 106.753906 L 311.925781 105.28125 C 322.109375 102.929688 329.714844 94.386719 329.714844 84.164062 C 329.714844 72.132812 319.226562 62.347656 306.335938 62.347656 C 300.324219 62.347656 295.425781 58.148438 295.425781 52.992188 C 295.425781 47.835938 300.324219 43.640625 306.335938 43.640625 " fill-opacity="1" fill-rule="nonzero"/></svg>