<svg xmlns="http://www.w3.org/2000/svg" xmlns:xlink="http://www.w3.org/1999/xlink" width="390" zoomAndPan="magnify" viewBox="0 0 292.5 374.999991" height="500" preserveAspectRatio="xMidYMid meet" version="1.0"><defs><clipPath id="6efce481e9"><path d="M 0 1 L 141 1 L 141 374.679688 L 0 374.679688 Z M 0 1 " clip-rule="nonzero"/></clipPath><clipPath id="5e5d84e58d"><path d="M 150 1 L 291.253906 1 L 291.253906 374.679688 L 150 374.679688 Z M 150 1 " clip-rule="nonzero"/></clipPath></defs><g clip-path="url(#6efce481e9)"><path fill="#ffffff" d="M 0.226562 374.667969 L 140.796875 374.667969 L 140.796875 1.425781 L 0.226562 1.425781 Z M 0.226562 374.667969 " fill-opacity="1" fill-rule="nonzero"/></g><path fill="#8ed9e3" d="M 7.082031 367.136719 L 133.933594 367.136719 L 133.933594 8.957031 L 7.082031 8.957031 Z M 7.082031 367.136719 " fill-opacity="1" fill-rule="nonzero"/><path fill="#57a7b5" d="M 122.605469 272.847656 L 122.605469 242.726562 L 89.914062 242.726562 L 89.914062 311.480469 L 74.648438 311.480469 L 74.648438 283.324219 L 40.320312 283.324219 L 40.320312 242.726562 L 7.082031 242.726562 L 7.082031 367.136719 L 133.933594 367.136719 L 133.933594 272.847656 L 122.605469 272.847656 " fill-opacity="1" fill-rule="nonzero"/><path fill="#5e97cf" d="M 58.628906 54.464844 L 7.082031 54.464844 L 7.082031 8.957031 L 133.933594 8.957031 L 133.933594 23.394531 C 128.136719 23.992188 122.472656 25.324219 117.648438 27.632812 L 126.460938 8.957031 L 80.101562 8.957031 L 74.433594 20.972656 L 74.433594 8.957031 L 66.585938 8.957031 L 66.585938 37.597656 L 58.628906 54.464844 " fill-opacity="1" fill-rule="nonzero"/><path fill="#bbe3e6" d="M 16.144531 242.726562 L 7.082031 242.726562 L 7.082031 163.699219 L 58.628906 54.464844 L 66.585938 54.464844 L 66.585938 135.835938 L 16.144531 242.726562 " fill-opacity="1" fill-rule="nonzero"/><path fill="#98c2c8" d="M 7.082031 261.933594 L 7.082031 242.726562 L 16.144531 242.726562 L 7.082031 261.933594 " fill-opacity="1" fill-rule="nonzero"/><path fill="#bbe3e6" d="M 74.433594 119.207031 L 74.433594 54.464844 L 103.578125 54.464844 C 103.550781 55.453125 103.519531 56.511719 103.492188 57.628906 L 74.433594 119.207031 " fill-opacity="1" fill-rule="nonzero"/><path fill="#9bb6da" d="M 103.578125 54.464844 L 74.433594 54.464844 L 74.433594 20.972656 L 80.101562 8.957031 L 126.460938 8.957031 L 117.648438 27.632812 C 110.414062 31.097656 105.050781 36.761719 103.890625 45.480469 C 103.890625 45.480469 103.734375 48.917969 103.578125 54.464844 M 66.585938 54.464844 L 58.628906 54.464844 L 66.585938 37.597656 L 66.585938 54.464844 " fill-opacity="1" fill-rule="nonzero"/><path fill="#bbe3e6" d="M 46.726562 283.324219 L 40.320312 283.324219 L 40.320312 242.726562 L 39.613281 242.726562 L 66.585938 185.566406 L 66.585938 241.242188 L 46.726562 283.324219 " fill-opacity="1" fill-rule="nonzero"/><path fill="#98c2c8" d="M 7.171875 367.136719 L 7.082031 367.074219 L 7.082031 311.664062 L 39.613281 242.726562 L 40.320312 242.726562 L 40.320312 283.324219 L 46.726562 283.324219 L 7.171875 367.136719 " fill-opacity="1" fill-rule="nonzero"/><path fill="#bbe3e6" d="M 74.433594 224.613281 L 74.433594 168.9375 L 98.71875 117.46875 C 97.820312 130.179688 96.824219 153.679688 100.054688 170.320312 L 93.089844 185.085938 C 88.890625 187.21875 84.464844 190.207031 82.140625 194.074219 C 82.140625 194.074219 79.128906 206.734375 75.769531 221.785156 L 74.433594 224.613281 " fill-opacity="1" fill-rule="nonzero"/><path fill="#ffffff" d="M 66.585938 367.136719 L 74.433594 367.136719 L 74.433594 8.957031 L 66.585938 8.957031 Z M 66.585938 367.136719 " fill-opacity="1" fill-rule="nonzero"/><path fill="#ffffff" d="M 133.933594 191.976562 L 7.082031 191.976562 L 7.082031 184.117188 L 133.933594 184.117188 L 133.933594 191.976562 " fill-opacity="1" fill-rule="nonzero"/><g clip-path="url(#5e5d84e58d)"><path fill="#ffffff" d="M 150.453125 374.667969 L 291.03125 374.667969 L 291.03125 1.425781 L 150.453125 1.425781 Z M 150.453125 374.667969 " fill-opacity="1" fill-rule="nonzero"/></g><path fill="#8ed9e3" d="M 157.316406 367.136719 L 284.167969 367.136719 L 284.167969 8.957031 L 157.316406 8.957031 Z M 157.316406 367.136719 " fill-opacity="1" fill-rule="nonzero"/><path fill="#57a7b5" d="M 272.839844 272.847656 L 272.839844 242.726562 L 240.140625 242.726562 L 240.140625 311.480469 L 224.886719 311.480469 L 224.886719 283.324219 L 190.554688 283.324219 L 190.554688 242.726562 L 157.316406 242.726562 L 157.316406 367.136719 L 284.167969 367.136719 L 284.167969 272.847656 L 272.839844 272.847656 " fill-opacity="1" fill-rule="nonzero"/><path fill="#5e97cf" d="M 278.683594 54.464844 L 255.214844 54.464844 L 276.691406 8.957031 L 230.335938 8.957031 L 224.664062 20.972656 L 224.664062 8.957031 L 216.816406 8.957031 L 216.816406 37.601562 L 208.859375 54.464844 L 181.851562 54.464844 C 180.332031 44.527344 176.917969 34.105469 169.53125 28.765625 C 167.226562 27.101562 162.8125 25.542969 157.316406 24.46875 L 157.316406 8.957031 L 284.167969 8.957031 L 284.167969 42.839844 L 278.683594 54.464844 " fill-opacity="1" fill-rule="nonzero"/><path fill="#bbe3e6" d="M 193.035156 186.230469 C 187.324219 182.945312 181.320312 181.246094 180.890625 181.132812 C 180.796875 181.089844 180.703125 181.050781 180.605469 181.011719 L 181.089844 181.011719 C 181.089844 181.011719 192.394531 162.714844 184.554688 109.410156 C 190.703125 108.171875 193.5625 95.269531 193.574219 86.863281 L 208.859375 54.464844 L 216.816406 54.464844 L 216.816406 135.835938 L 193.035156 186.230469 M 224.664062 119.210938 L 224.664062 54.464844 L 255.214844 54.464844 L 224.664062 119.210938 " fill-opacity="1" fill-rule="nonzero"/><path fill="#9bb6da" d="M 255.214844 54.464844 L 224.664062 54.464844 L 224.664062 20.972656 L 230.335938 8.957031 L 276.691406 8.957031 L 255.214844 54.464844 M 216.816406 54.464844 L 208.859375 54.464844 L 216.816406 37.601562 L 216.816406 54.464844 " fill-opacity="1" fill-rule="nonzero"/><path fill="#98c2c8" d="M 157.410156 367.136719 L 157.316406 367.074219 L 157.316406 342.1875 C 159.796875 341.648438 160.214844 337.671875 160.214844 337.671875 C 163.035156 336.371094 161.949219 333.988281 161.949219 333.988281 L 164.546875 332.253906 C 166.066406 331.171875 164.546875 328.144531 164.546875 328.144531 C 164.429688 328.0625 164.113281 328.023438 163.648438 328.023438 C 162.316406 328.023438 159.777344 328.328125 157.316406 328.667969 L 157.316406 318.84375 L 180.199219 318.84375 L 157.410156 367.136719 " fill-opacity="1" fill-rule="nonzero"/><path fill="#bbe3e6" d="M 196.957031 283.324219 L 190.554688 283.324219 L 190.554688 270.734375 C 191.882812 271.332031 193.191406 271.792969 194.480469 272.144531 C 195.125 274.699219 195.835938 277.34375 196.582031 280.015625 C 196.820312 280.867188 197.0625 281.726562 197.304688 282.589844 L 196.957031 283.324219 " fill-opacity="1" fill-rule="nonzero"/><path fill="#98c2c8" d="M 185.40625 307.808594 C 185.402344 290.605469 186.53125 277.167969 187.082031 271.59375 C 187.117188 271.59375 187.148438 271.59375 187.183594 271.59375 C 187.28125 270.363281 187.339844 269.488281 187.367188 269.070312 C 188.4375 269.710938 189.5 270.269531 190.554688 270.734375 L 190.554688 283.324219 L 196.957031 283.324219 L 185.40625 307.808594 " fill-opacity="1" fill-rule="nonzero"/><path fill="#bbe3e6" d="M 213.78125 247.683594 C 211.300781 235.339844 207.980469 220.523438 205.480469 209.601562 L 216.816406 185.566406 L 216.816406 241.246094 L 213.78125 247.683594 " fill-opacity="1" fill-rule="nonzero"/><path fill="#bbe3e6" d="M 224.664062 224.617188 L 224.664062 168.941406 L 278.683594 54.464844 L 284.167969 54.464844 L 284.167969 98.519531 L 224.664062 224.617188 " fill-opacity="1" fill-rule="nonzero"/><path fill="#9bb6da" d="M 284.167969 54.464844 L 278.683594 54.464844 L 284.167969 42.839844 L 284.167969 54.464844 " fill-opacity="1" fill-rule="nonzero"/><path fill="#ffffff" d="M 216.816406 367.136719 L 224.664062 367.136719 L 224.664062 8.957031 L 216.816406 8.957031 Z M 216.816406 367.136719 " fill-opacity="1" fill-rule="nonzero"/><path fill="#ffffff" d="M 284.167969 191.976562 L 157.316406 191.976562 L 157.316406 184.117188 L 284.167969 184.117188 L 284.167969 191.976562 " fill-opacity="1" fill-rule="nonzero"/><path fill="#372122" d="M 99.488281 108.453125 C 99.488281 108.453125 93.929688 160.457031 103.230469 181.011719 L 181.089844 181.011719 C 181.089844 181.011719 192.53125 162.5 184.410156 108.453125 L 171.566406 99.78125 C 171.566406 99.78125 107.601562 100.21875 99.488281 108.453125 " fill-opacity="1" fill-rule="nonzero"/><path fill="#372122" d="M 99.558594 90.078125 C 99.558594 90.078125 78.910156 7.910156 142.5 11.382812 C 142.5 11.382812 203.472656 0.304688 185.632812 88.644531 L 109.554688 97.636719 L 99.558594 90.078125 " fill-opacity="1" fill-rule="nonzero"/><path fill="#d0d0d0" d="M 180.867188 181.125 C 180.867188 181.125 196.664062 185.414062 201.863281 194.074219 C 201.863281 194.074219 216.328125 254.847656 217.230469 268.382812 C 217.230469 268.382812 201.863281 279.207031 185.640625 267.953125 L 180.867188 181.125 " fill-opacity="1" fill-rule="nonzero"/><path fill="#d0d0d0" d="M 103.144531 181.125 C 103.144531 181.125 87.339844 185.414062 82.140625 194.074219 C 82.140625 194.074219 67.679688 254.847656 66.773438 268.382812 C 66.773438 268.382812 82.140625 279.207031 98.367188 267.953125 L 103.144531 181.125 " fill-opacity="1" fill-rule="nonzero"/><path fill="#1d1e23" d="M 187.230469 367.355469 C 186.933594 361.539062 186.398438 357.449219 185.578125 355.496094 L 97.800781 356.707031 C 97.800781 356.707031 97.917969 360.539062 98.160156 367.355469 L 187.230469 367.355469 " fill-opacity="1" fill-rule="nonzero"/><path fill="#d68259" d="M 99.828125 86.554688 C 99.828125 86.554688 94.847656 77.25 91.242188 79.816406 C 87.621094 82.390625 90.371094 112.074219 101.097656 109.332031 C 111.835938 106.574219 99.828125 86.554688 99.828125 86.554688 " fill-opacity="1" fill-rule="nonzero"/><path fill="#993f45" d="M 92.785156 98.699219 C 92.359375 97.414062 92.050781 96.089844 91.78125 94.757812 C 91.503906 93.425781 91.355469 92.066406 91.304688 90.6875 C 91.285156 90 91.304688 89.304688 91.390625 88.601562 C 91.414062 88.25 91.523438 87.902344 91.589844 87.542969 C 91.699219 87.199219 91.824219 86.84375 92.003906 86.503906 L 92.324219 86.011719 C 92.542969 85.738281 92.542969 85.753906 92.785156 85.570312 C 93.296875 85.222656 93.84375 85.292969 94.242188 85.441406 C 95.070312 85.746094 95.566406 86.285156 96.0625 86.800781 C 97.015625 87.863281 97.765625 89.023438 98.449219 90.214844 C 99.125 91.410156 99.730469 92.636719 100.28125 93.886719 C 100.816406 95.144531 101.304688 96.421875 101.707031 97.730469 C 102.097656 99.042969 102.4375 100.378906 102.5625 101.769531 L 102.566406 101.8125 L 102.566406 101.835938 C 102.421875 103.003906 102.148438 104.140625 101.601562 105.1875 C 101.460938 105.445312 101.300781 105.695312 101.113281 105.925781 C 101.03125 106.050781 100.90625 106.140625 100.800781 106.246094 C 100.699219 106.359375 100.566406 106.433594 100.4375 106.511719 C 100.320312 106.601562 100.175781 106.652344 100.03125 106.691406 C 99.886719 106.742188 99.746094 106.773438 99.59375 106.761719 C 99.449219 106.753906 99.300781 106.78125 99.160156 106.726562 L 98.746094 106.613281 L 99.171875 106.664062 C 99.308594 106.699219 99.449219 106.652344 99.582031 106.640625 C 99.71875 106.632812 99.847656 106.585938 99.96875 106.519531 C 100.097656 106.476562 100.214844 106.417969 100.316406 106.324219 C 100.421875 106.242188 100.527344 106.164062 100.609375 106.054688 C 100.691406 105.945312 100.792969 105.859375 100.859375 105.738281 C 101.007812 105.507812 101.125 105.265625 101.238281 105.011719 C 101.433594 104.503906 101.566406 103.96875 101.667969 103.421875 C 101.777344 102.882812 101.839844 102.324219 101.871094 101.785156 L 101.871094 101.847656 C 101.667969 100.558594 101.261719 99.28125 100.804688 98.035156 C 100.351562 96.78125 99.84375 95.542969 99.273438 94.339844 C 98.726562 93.121094 98.121094 91.929688 97.453125 90.78125 C 96.789062 89.640625 96.082031 88.503906 95.234375 87.550781 C 94.816406 87.089844 94.335938 86.621094 93.882812 86.449219 C 93.667969 86.339844 93.453125 86.375 93.394531 86.410156 L 93.117188 86.652344 L 92.878906 87 C 92.59375 87.511719 92.402344 88.113281 92.28125 88.746094 C 92.167969 89.378906 92.101562 90.035156 92.082031 90.691406 C 92.027344 92.015625 92.140625 93.351562 92.25 94.691406 C 92.367188 96.03125 92.566406 97.363281 92.785156 98.699219 " fill-opacity="1" fill-rule="nonzero"/><path fill="#993f45" d="M 97.644531 98.042969 C 97.644531 98.042969 97.742188 98.269531 97.75 98.710938 C 97.746094 98.925781 97.726562 99.210938 97.554688 99.507812 C 97.476562 99.664062 97.367188 99.808594 97.207031 99.929688 L 97.085938 100.027344 C 96.929688 100.085938 97.074219 100.050781 96.921875 100.078125 C 96.800781 100.082031 96.722656 100.050781 96.691406 100.035156 C 96.523438 99.945312 96.457031 99.855469 96.382812 99.773438 C 96.109375 99.445312 95.929688 99.09375 95.75 98.707031 C 95.574219 98.324219 95.398438 97.917969 95.257812 97.492188 C 94.949219 96.632812 94.71875 95.699219 94.523438 94.753906 C 94.363281 93.804688 94.242188 92.839844 94.25 91.917969 C 94.253906 91 94.355469 90.109375 94.710938 89.382812 C 94.882812 89.023438 95.167969 88.707031 95.503906 88.574219 C 95.84375 88.4375 96.148438 88.492188 96.355469 88.554688 C 96.570312 88.625 96.710938 88.71875 96.804688 88.773438 L 96.949219 88.871094 C 96.949219 88.871094 96.710938 88.792969 96.316406 88.78125 C 96.121094 88.777344 95.890625 88.824219 95.710938 88.957031 C 95.535156 89.101562 95.410156 89.332031 95.328125 89.632812 C 95.175781 90.230469 95.191406 91.027344 95.265625 91.875 C 95.347656 92.722656 95.480469 93.636719 95.660156 94.542969 C 95.820312 95.453125 96.027344 96.355469 96.230469 97.199219 C 96.339844 97.621094 96.4375 98.027344 96.550781 98.398438 C 96.667969 98.765625 96.78125 99.136719 96.921875 99.386719 L 96.972656 99.492188 L 96.863281 99.488281 C 96.753906 99.527344 96.9375 99.464844 96.8125 99.511719 L 96.894531 99.464844 C 97.019531 99.421875 97.117188 99.351562 97.195312 99.253906 C 97.363281 99.085938 97.464844 98.863281 97.523438 98.675781 C 97.644531 98.292969 97.644531 98.042969 97.644531 98.042969 " fill-opacity="1" fill-rule="nonzero"/><path fill="#d68259" d="M 183.480469 86.554688 C 183.480469 86.554688 188.464844 77.25 192.066406 79.816406 C 195.683594 82.390625 192.933594 112.074219 182.207031 109.332031 C 171.464844 106.574219 183.480469 86.554688 183.480469 86.554688 " fill-opacity="1" fill-rule="nonzero"/><path fill="#993f45" d="M 184.558594 106.613281 L 184.148438 106.726562 C 184.015625 106.777344 183.863281 106.753906 183.714844 106.761719 C 183.5625 106.773438 183.417969 106.738281 183.277344 106.691406 C 183.128906 106.652344 182.988281 106.601562 182.867188 106.511719 C 182.742188 106.433594 182.609375 106.359375 182.511719 106.246094 C 182.402344 106.140625 182.277344 106.050781 182.195312 105.925781 C 182.003906 105.695312 181.851562 105.445312 181.703125 105.183594 C 181.160156 104.132812 180.886719 103.003906 180.75 101.835938 L 180.742188 101.8125 L 180.75 101.773438 C 180.871094 100.378906 181.207031 99.042969 181.597656 97.730469 C 182 96.421875 182.488281 95.144531 183.027344 93.886719 C 183.574219 92.632812 184.179688 91.410156 184.855469 90.214844 C 185.535156 89.019531 186.289062 87.859375 187.242188 86.800781 C 187.738281 86.285156 188.234375 85.742188 189.0625 85.4375 C 189.445312 85.277344 190.050781 85.25 190.480469 85.542969 C 190.695312 85.679688 190.855469 85.8125 191.007812 86.046875 L 191.285156 86.46875 C 191.449219 86.773438 191.613281 87.199219 191.722656 87.542969 C 191.785156 87.894531 191.898438 88.25 191.917969 88.601562 C 192.003906 89.304688 192.019531 90 192 90.6875 C 191.953125 92.066406 191.800781 93.425781 191.527344 94.757812 C 191.253906 96.089844 190.945312 97.414062 190.523438 98.699219 C 190.738281 97.363281 190.9375 96.03125 191.054688 94.691406 C 191.164062 93.351562 191.28125 92.015625 191.222656 90.691406 C 191.203125 90.035156 191.136719 89.378906 191.023438 88.746094 C 190.980469 88.417969 190.859375 88.132812 190.785156 87.824219 C 190.675781 87.535156 190.605469 87.3125 190.449219 87.035156 L 190.160156 86.621094 L 189.949219 86.441406 C 189.808594 86.351562 189.65625 86.359375 189.421875 86.453125 C 188.972656 86.621094 188.488281 87.089844 188.070312 87.550781 C 187.226562 88.503906 186.515625 89.640625 185.851562 90.78125 C 185.183594 91.925781 184.585938 93.121094 184.027344 94.335938 C 183.460938 95.542969 182.953125 96.78125 182.5 98.03125 C 182.039062 99.277344 181.636719 100.558594 181.433594 101.847656 L 181.433594 101.785156 C 181.464844 102.324219 181.53125 102.882812 181.640625 103.421875 C 181.738281 103.96875 181.871094 104.503906 182.074219 105.011719 C 182.179688 105.265625 182.296875 105.507812 182.449219 105.738281 C 182.515625 105.859375 182.613281 105.945312 182.699219 106.054688 C 182.777344 106.164062 182.886719 106.242188 182.988281 106.324219 C 183.09375 106.417969 183.210938 106.476562 183.335938 106.519531 C 183.457031 106.585938 183.585938 106.632812 183.722656 106.640625 C 183.855469 106.652344 183.992188 106.699219 184.132812 106.664062 L 184.558594 106.613281 " fill-opacity="1" fill-rule="nonzero"/><path fill="#993f45" d="M 185.652344 98.042969 C 185.652344 98.042969 185.660156 98.292969 185.777344 98.675781 C 185.839844 98.863281 185.941406 99.085938 186.109375 99.253906 C 186.1875 99.351562 186.285156 99.421875 186.410156 99.46875 L 186.492188 99.511719 C 186.367188 99.464844 186.550781 99.527344 186.441406 99.488281 L 186.332031 99.492188 L 186.382812 99.386719 C 186.523438 99.136719 186.636719 98.765625 186.753906 98.398438 C 186.867188 98.027344 186.964844 97.621094 187.074219 97.199219 C 187.277344 96.355469 187.484375 95.453125 187.644531 94.542969 C 187.824219 93.636719 187.957031 92.722656 188.039062 91.875 C 188.113281 91.027344 188.128906 90.230469 187.976562 89.632812 C 187.894531 89.328125 187.769531 89.101562 187.59375 88.957031 C 187.414062 88.824219 187.183594 88.777344 186.988281 88.78125 C 186.59375 88.792969 186.355469 88.871094 186.355469 88.871094 L 186.5 88.773438 C 186.59375 88.71875 186.734375 88.625 186.949219 88.554688 C 187.15625 88.492188 187.464844 88.4375 187.800781 88.574219 C 188.136719 88.707031 188.425781 89.023438 188.59375 89.382812 C 188.949219 90.109375 189.050781 91 189.054688 91.917969 C 189.0625 92.839844 188.945312 93.804688 188.78125 94.753906 C 188.585938 95.699219 188.351562 96.632812 188.046875 97.492188 C 187.90625 97.917969 187.730469 98.324219 187.554688 98.707031 C 187.375 99.09375 187.195312 99.445312 186.921875 99.773438 C 186.847656 99.855469 186.78125 99.945312 186.613281 100.035156 C 186.582031 100.046875 186.503906 100.082031 186.390625 100.078125 C 186.230469 100.050781 186.375 100.085938 186.21875 100.027344 L 186.097656 99.929688 C 185.9375 99.804688 185.828125 99.664062 185.75 99.507812 C 185.582031 99.210938 185.558594 98.925781 185.554688 98.710938 C 185.558594 98.269531 185.652344 98.042969 185.652344 98.042969 " fill-opacity="1" fill-rule="nonzero"/><path fill="#a5c5c3" d="M 100.25 269.421875 C 100.25 269.421875 100.808594 291.574219 99.421875 318.84375 L 185.570312 318.84375 L 185.558594 318.617188 C 184.753906 290.269531 187.382812 268.792969 187.382812 268.792969 C 208.902344 260.296875 196.136719 231.191406 196.136719 231.191406 C 190.355469 208.277344 182.660156 181.878906 182.660156 181.878906 C 170.910156 176.992188 169.160156 175.046875 150.515625 170.652344 L 132.992188 170.652344 C 114.347656 175.046875 112.917969 176.992188 101.171875 181.878906 C 101.171875 181.878906 92.941406 213.75 87.359375 231.710938 C 87.359375 231.710938 76.621094 260.613281 100.25 269.421875 " fill-opacity="1" fill-rule="nonzero"/><path fill="#85adbb" d="M 100.25 269.421875 C 99.371094 269.097656 98.542969 268.746094 97.761719 268.363281 C 98.542969 268.738281 99.375 269.097656 100.25 269.421875 " fill-opacity="1" fill-rule="nonzero"/><path fill="#a0b8c4" d="M 187.082031 271.59375 C 187.207031 270.328125 187.304688 269.46875 187.351562 269.0625 C 187.359375 269.066406 187.363281 269.066406 187.367188 269.070312 C 187.339844 269.488281 187.28125 270.363281 187.183594 271.59375 C 187.148438 271.59375 187.117188 271.59375 187.082031 271.59375 " fill-opacity="1" fill-rule="nonzero"/><path fill="#b5bdc7" d="M 187.367188 269.070312 C 187.363281 269.066406 187.359375 269.066406 187.351562 269.0625 C 187.375 268.882812 187.382812 268.792969 187.382812 268.792969 C 189.226562 268.0625 190.8125 267.191406 192.179688 266.191406 C 190.8125 267.191406 189.226562 268.0625 187.382812 268.792969 C 187.382812 268.792969 187.378906 268.886719 187.367188 269.070312 M 192.179688 266.191406 C 192.1875 266.1875 192.191406 266.183594 192.199219 266.179688 C 192.191406 266.183594 192.1875 266.1875 192.179688 266.191406 M 192.210938 266.171875 C 192.214844 266.164062 192.222656 266.160156 192.226562 266.160156 C 192.222656 266.160156 192.214844 266.164062 192.210938 266.171875 " fill-opacity="1" fill-rule="nonzero"/><path fill="#b5bdc7" d="M 97.761719 268.363281 C 93.1875 266.152344 90.144531 263.085938 88.175781 259.660156 C 90.148438 263.085938 93.191406 266.148438 97.761719 268.363281 " fill-opacity="1" fill-rule="nonzero"/><path fill="#a4b9c2" d="M 114.050781 272.480469 C 109.792969 272.480469 104.976562 272.117188 100.359375 271.15625 C 100.277344 270.035156 100.25 269.421875 100.25 269.421875 C 99.375 269.097656 98.542969 268.738281 97.761719 268.363281 C 93.191406 266.148438 90.148438 263.085938 88.175781 259.660156 C 85.964844 255.808594 85.109375 251.503906 84.957031 247.453125 C 86.191406 249.890625 88.257812 252.210938 91.683594 252.210938 C 93.207031 252.210938 95.226562 252.171875 97.527344 252.171875 C 106.164062 252.171875 118.800781 252.691406 124.4375 257.578125 C 128.621094 261.207031 138.054688 263.558594 146.636719 263.558594 C 152.707031 263.558594 158.351562 262.378906 161.402344 259.640625 C 168.761719 253.03125 187.054688 248.222656 194.136719 246.371094 C 196.238281 245.820312 198.011719 244.777344 199.496094 243.53125 C 200.570312 251.164062 199.886719 260.546875 192.226562 266.160156 C 192.222656 266.160156 192.214844 266.164062 192.210938 266.171875 C 192.210938 266.175781 192.207031 266.175781 192.199219 266.179688 C 192.191406 266.183594 192.1875 266.1875 192.179688 266.191406 C 190.8125 267.191406 189.226562 268.0625 187.382812 268.792969 C 187.382812 268.792969 187.375 268.882812 187.351562 269.0625 C 187.304688 269.46875 187.207031 270.328125 187.082031 271.59375 C 186.824219 271.601562 186.570312 271.605469 186.308594 271.605469 C 184.785156 271.605469 183.152344 271.46875 181.394531 271.164062 C 169.261719 269.066406 159.695312 268.304688 151.828125 268.304688 C 139.71875 268.304688 131.636719 270.105469 124.4375 271.609375 C 122.027344 272.109375 118.320312 272.480469 114.050781 272.480469 " fill-opacity="1" fill-rule="nonzero"/><path fill="#c92c2c" d="M 96.753906 367.355469 L 188.265625 367.355469 L 187.507812 314.496094 C 176.101562 296.246094 183.621094 179.128906 183.621094 179.128906 L 176.898438 177.535156 L 167.648438 249.515625 C 159.453125 249.84375 150.171875 249.984375 141.746094 250.039062 C 133.316406 249.984375 124.039062 249.84375 115.84375 249.515625 L 106.589844 177.535156 L 99.875 179.128906 C 99.875 179.128906 109.242188 294.070312 97.835938 312.324219 L 96.753906 367.355469 " fill-opacity="1" fill-rule="nonzero"/><path fill="#f7ad54" d="M 111.367188 296.835938 C 111.367188 296.835938 108.6875 293.25 114.230469 291.941406 C 114.230469 291.941406 114.339844 287.601562 119.015625 288.582031 C 119.015625 288.582031 119.554688 284.320312 124.996094 285.847656 C 124.996094 285.847656 129.121094 279.632812 133.792969 285.519531 C 133.792969 285.519531 135.3125 279.347656 142.109375 281.734375 C 142.109375 281.734375 147.054688 278.796875 148.90625 284.339844 C 148.90625 284.339844 154.773438 281.300781 154.882812 287.492188 C 154.882812 287.492188 159.011719 285.449219 159.882812 290.164062 C 159.882812 290.164062 162.820312 287.601562 163.363281 292.054688 C 163.363281 292.054688 167.738281 293.144531 165.65625 296.289062 L 111.367188 296.835938 " fill-opacity="1" fill-rule="nonzero"/><path fill="#8c2125" d="M 162.320312 358.308594 L 114.703125 358.308594 L 111.367188 298.355469 L 165.65625 298.355469 L 162.320312 358.308594 " fill-opacity="1" fill-rule="nonzero"/><path fill="#d68259" d="M 126.757812 119.914062 C 126.757812 119.914062 126.949219 150.714844 122.089844 175.316406 C 122.089844 175.316406 131.832031 201.820312 139.960938 210.539062 C 139.960938 210.539062 156.132812 193.722656 161.402344 174.035156 C 161.402344 174.035156 153.625 154.953125 157.027344 119.625 L 126.757812 119.914062 " fill-opacity="1" fill-rule="nonzero"/><path fill="#c76747" d="M 159.109375 166.0625 C 158.964844 165.445312 158.824219 164.777344 158.683594 164.09375 L 158.683594 164.082031 C 157.703125 159.292969 156.742188 152.820312 156.355469 144.726562 C 156.34375 144.578125 156.335938 144.4375 156.332031 144.28125 L 125.894531 144.28125 C 125.625 148.269531 125.273438 152.523438 124.804688 156.855469 C 132.113281 161.136719 145.675781 167.578125 159.109375 166.0625 " fill-opacity="1" fill-rule="nonzero"/><path fill="#f8a176" d="M 103.890625 45.480469 C 103.890625 45.480469 100.621094 118.882812 108.609375 134.683594 C 116.523438 150.304688 132.9375 157.375 141.605469 157.144531 C 150.453125 157.375 166.707031 150.304688 174.625 134.683594 C 182.617188 118.882812 182.660156 78.617188 182.660156 78.617188 C 182.660156 78.617188 186.175781 40.796875 169.53125 28.765625 C 159.328125 21.390625 107.8125 16.125 103.890625 45.480469 " fill-opacity="1" fill-rule="nonzero"/><path fill="#993f45" d="M 147.433594 97.511719 C 147.09375 99.011719 146.886719 100.429688 146.945312 101.851562 C 146.976562 103.257812 147.230469 104.632812 147.648438 105.953125 C 148.070312 107.273438 148.644531 108.554688 149.332031 109.785156 C 149.675781 110.398438 150.046875 111 150.433594 111.589844 C 150.625 111.886719 150.828125 112.179688 151.035156 112.464844 C 151.242188 112.742188 151.472656 113.035156 151.667969 113.273438 L 152.046875 113.742188 L 151.898438 114.167969 C 151.804688 114.417969 151.722656 114.59375 151.628906 114.792969 C 151.535156 114.988281 151.429688 115.167969 151.332031 115.355469 C 151.117188 115.714844 150.890625 116.066406 150.648438 116.402344 C 150.152344 117.066406 149.566406 117.65625 148.929688 118.171875 C 148.777344 118.304688 148.609375 118.429688 148.441406 118.539062 C 148.273438 118.652344 148.109375 118.777344 147.929688 118.875 C 147.582031 119.078125 147.230469 119.28125 146.863281 119.433594 C 146.503906 119.605469 146.117188 119.722656 145.742188 119.847656 C 145.363281 119.964844 144.972656 120.019531 144.589844 120.105469 C 144.933594 119.90625 145.273438 119.730469 145.59375 119.515625 C 145.910156 119.300781 146.230469 119.109375 146.519531 118.859375 C 147.128906 118.417969 147.648438 117.882812 148.132812 117.339844 C 148.613281 116.796875 149.015625 116.183594 149.367188 115.5625 C 149.535156 115.253906 149.695312 114.933594 149.832031 114.605469 C 149.898438 114.445312 149.964844 114.28125 150.015625 114.117188 C 150.074219 113.964844 150.125 113.777344 150.148438 113.664062 L 150.382812 114.550781 C 150.058594 114.257812 149.808594 113.980469 149.535156 113.6875 C 149.273438 113.394531 149.027344 113.09375 148.777344 112.796875 C 148.292969 112.179688 147.851562 111.53125 147.457031 110.855469 C 146.664062 109.503906 146.039062 108.027344 145.699219 106.472656 C 145.535156 105.695312 145.40625 104.90625 145.390625 104.109375 C 145.382812 103.3125 145.40625 102.511719 145.570312 101.734375 C 145.710938 100.957031 145.9375 100.199219 146.257812 99.492188 C 146.402344 99.136719 146.59375 98.789062 146.789062 98.453125 C 146.96875 98.117188 147.222656 97.828125 147.433594 97.511719 " fill-opacity="1" fill-rule="nonzero"/><path fill="#5a303a" d="M 130.140625 94.765625 C 130.140625 98.230469 128.242188 101.046875 125.90625 101.046875 C 123.558594 101.046875 121.660156 98.230469 121.660156 94.765625 C 121.660156 91.296875 123.558594 88.488281 125.90625 88.488281 C 128.242188 88.488281 130.140625 91.296875 130.140625 94.765625 " fill-opacity="1" fill-rule="nonzero"/><path fill="#5a303a" d="M 165.851562 94.765625 C 165.851562 98.230469 163.957031 101.046875 161.613281 101.046875 C 159.265625 101.046875 157.371094 98.230469 157.371094 94.765625 C 157.371094 91.296875 159.265625 88.488281 161.613281 88.488281 C 163.957031 88.488281 165.851562 91.296875 165.851562 94.765625 " fill-opacity="1" fill-rule="nonzero"/><path fill="#fffdfc" d="M 129.035156 92.707031 C 129.035156 93.847656 128.5 94.765625 127.839844 94.765625 C 127.179688 94.765625 126.644531 93.847656 126.644531 92.707031 C 126.644531 91.566406 127.179688 90.644531 127.839844 90.644531 C 128.5 90.644531 129.035156 91.566406 129.035156 92.707031 " fill-opacity="1" fill-rule="nonzero"/><path fill="#fffdfc" d="M 164.6875 92.707031 C 164.6875 93.847656 164.152344 94.765625 163.496094 94.765625 C 162.832031 94.765625 162.296875 93.847656 162.296875 92.707031 C 162.296875 91.566406 162.832031 90.644531 163.496094 90.644531 C 164.152344 90.644531 164.6875 91.566406 164.6875 92.707031 " fill-opacity="1" fill-rule="nonzero"/><path fill="#372122" d="M 131.757812 75.828125 C 131.757812 75.828125 131.667969 75.804688 131.5 75.765625 C 131.328125 75.726562 131.089844 75.710938 130.816406 75.667969 C 130.5625 75.613281 130.171875 75.632812 129.785156 75.601562 C 129.589844 75.597656 129.390625 75.574219 129.175781 75.554688 C 128.949219 75.570312 128.714844 75.589844 128.480469 75.589844 C 128.238281 75.597656 127.992188 75.601562 127.738281 75.613281 C 127.480469 75.613281 127.230469 75.570312 126.949219 75.628906 C 126.394531 75.710938 125.820312 75.746094 125.226562 75.757812 C 124.632812 75.71875 124.003906 75.796875 123.363281 75.835938 C 122.714844 75.882812 122.058594 75.933594 121.398438 75.980469 C 120.742188 76.027344 120.097656 76.242188 119.453125 76.359375 C 118.804688 76.503906 118.171875 76.640625 117.558594 76.773438 C 117.25 76.839844 116.949219 76.910156 116.648438 76.972656 C 116.355469 77.046875 116.078125 77.15625 115.796875 77.238281 C 115.238281 77.410156 114.714844 77.578125 114.230469 77.726562 C 112.289062 78.34375 110.964844 78.730469 110.964844 78.730469 L 110.863281 78.507812 C 110.863281 78.507812 112.0625 77.851562 113.902344 76.910156 C 114.363281 76.667969 114.867188 76.414062 115.394531 76.136719 C 115.910156 75.839844 116.503906 75.625 117.117188 75.410156 C 117.730469 75.183594 118.363281 74.953125 119.007812 74.714844 C 119.65625 74.496094 120.296875 74.1875 120.988281 74.042969 C 121.675781 73.871094 122.367188 73.699219 123.042969 73.535156 C 123.730469 73.355469 124.398438 73.167969 125.09375 73.179688 C 125.773438 73.164062 126.433594 73.175781 127.054688 73.234375 C 127.675781 73.285156 128.277344 73.496094 128.804688 73.636719 C 129.074219 73.710938 129.324219 73.789062 129.558594 73.875 C 129.792969 73.996094 130.011719 74.097656 130.214844 74.21875 C 130.617188 74.460938 130.953125 74.613281 131.214844 74.875 C 131.746094 75.316406 131.902344 75.628906 131.902344 75.628906 L 131.757812 75.828125 " fill-opacity="1" fill-rule="nonzero"/><path fill="#372122" d="M 154.179688 77.742188 C 154.179688 77.742188 154.335938 77.425781 154.867188 76.980469 C 155.128906 76.726562 155.464844 76.566406 155.867188 76.332031 C 156.066406 76.210938 156.289062 76.109375 156.519531 75.988281 C 156.753906 75.898438 157.007812 75.820312 157.273438 75.75 C 157.804688 75.605469 158.402344 75.398438 159.027344 75.347656 C 159.644531 75.285156 160.308594 75.277344 160.988281 75.289062 C 161.679688 75.28125 162.351562 75.464844 163.035156 75.644531 C 163.714844 75.8125 164.40625 75.984375 165.09375 76.15625 C 165.785156 76.300781 166.417969 76.609375 167.070312 76.828125 C 167.714844 77.0625 168.351562 77.292969 168.960938 77.523438 C 169.578125 77.742188 170.164062 77.953125 170.683594 78.253906 C 171.214844 78.527344 171.714844 78.785156 172.175781 79.019531 C 174.019531 79.964844 175.214844 80.617188 175.214844 80.617188 L 175.113281 80.84375 C 175.113281 80.84375 173.789062 80.460938 171.847656 79.84375 C 171.363281 79.6875 170.835938 79.527344 170.28125 79.351562 C 170.003906 79.273438 169.722656 79.164062 169.429688 79.085938 C 169.132812 79.019531 168.828125 78.957031 168.519531 78.886719 C 167.90625 78.753906 167.273438 78.613281 166.625 78.472656 C 165.984375 78.351562 165.339844 78.136719 164.679688 78.089844 C 164.019531 78.042969 163.367188 77.992188 162.722656 77.945312 C 162.078125 77.90625 161.449219 77.832031 160.855469 77.867188 C 160.261719 77.855469 159.683594 77.820312 159.132812 77.742188 C 158.851562 77.679688 158.601562 77.722656 158.34375 77.71875 C 158.09375 77.714844 157.839844 77.707031 157.601562 77.703125 C 157.363281 77.703125 157.128906 77.675781 156.90625 77.667969 C 156.695312 77.679688 156.492188 77.710938 156.292969 77.714844 C 155.910156 77.746094 155.515625 77.722656 155.265625 77.777344 C 154.992188 77.820312 154.75 77.839844 154.582031 77.871094 C 154.414062 77.914062 154.324219 77.9375 154.324219 77.9375 L 154.179688 77.742188 " fill-opacity="1" fill-rule="nonzero"/><path fill="#663737" d="M 179.5 117.878906 C 180.023438 114.925781 180.460938 111.867188 180.824219 108.820312 C 180.824219 108.820312 180.824219 108.820312 180.824219 108.824219 C 180.472656 112.007812 180.023438 115.046875 179.5 117.878906 " fill-opacity="1" fill-rule="nonzero"/><path fill="#d3775c" d="M 180.824219 108.824219 C 180.824219 108.820312 180.824219 108.820312 180.824219 108.820312 C 180.835938 108.726562 180.847656 108.628906 180.859375 108.535156 C 180.847656 108.628906 180.839844 108.726562 180.824219 108.824219 " fill-opacity="1" fill-rule="nonzero"/><path fill="#e6886c" d="M 142.035156 157.152344 C 141.890625 157.152344 141.75 157.148438 141.605469 157.144531 C 141.472656 157.148438 141.339844 157.152344 141.203125 157.152344 C 135.972656 157.152344 128.160156 154.617188 121.054688 149.296875 C 125.761719 151.488281 131.367188 153.1875 137.414062 153.1875 C 143.933594 153.1875 150.960938 151.203125 157.898438 145.71875 C 157.898438 145.71875 174.371094 136.277344 180.867188 108.453125 C 180.863281 108.476562 180.859375 108.503906 180.859375 108.535156 C 180.847656 108.628906 180.835938 108.726562 180.824219 108.820312 C 180.460938 111.867188 180.023438 114.925781 179.5 117.878906 C 178.125 125.394531 176.273438 131.414062 174.625 134.683594 C 166.835938 150.054688 150.96875 157.152344 142.035156 157.152344 " fill-opacity="1" fill-rule="nonzero"/><path fill="#cd6860" d="M 137.097656 139.316406 C 137.097656 139.316406 143.53125 141.070312 149.097656 139.316406 C 149.097656 139.316406 142.628906 147.964844 137.097656 139.316406 " fill-opacity="1" fill-rule="nonzero"/><path fill="#f29b68" d="M 164.546875 328.144531 C 163.683594 327.492188 150.914062 329.660156 150.914062 329.660156 C 149.625 326.199219 153.5 321 152.417969 320.132812 C 151.335938 319.265625 149.167969 320.78125 149.167969 320.78125 C 146.5625 324.46875 143.75 326.410156 143.75 326.410156 C 141.371094 327.492188 137.929688 333.769531 137.929688 333.769531 C 105.035156 329.226562 83.949219 327.734375 83.949219 327.734375 C 83.949219 327.734375 91.96875 285.714844 93.988281 270.488281 C 84.632812 274.910156 76.019531 272.75 71.097656 270.664062 C 70.101562 288.445312 68.152344 324 68.152344 329.445312 C 68.152344 329.445312 65.117188 347.414062 72.914062 346.109375 C 72.914062 346.109375 127.898438 344.992188 137.929688 343.730469 C 137.929688 343.730469 151.488281 345.480469 153.5 345.03125 C 157.75 344.082031 157.183594 342.214844 157.183594 342.214844 C 159.785156 341.785156 160.214844 337.671875 160.214844 337.671875 C 163.035156 336.371094 161.949219 333.988281 161.949219 333.988281 L 164.546875 332.253906 C 166.066406 331.171875 164.546875 328.144531 164.546875 328.144531 " fill-opacity="1" fill-rule="nonzero"/><path fill="#e9bcb2" d="M 70.019531 290.164062 C 70.414062 282.929688 70.796875 275.992188 71.097656 270.664062 C 70.796875 275.996094 70.414062 282.925781 70.019531 290.164062 " fill-opacity="1" fill-rule="nonzero"/><path fill="#a9aea8" d="M 82.597656 273.070312 C 79.542969 273.070312 76.769531 272.550781 74.433594 271.859375 C 76.777344 272.550781 79.546875 273.070312 82.601562 273.070312 C 83.628906 273.070312 84.695312 273.011719 85.785156 272.878906 C 84.695312 273.011719 83.628906 273.070312 82.597656 273.070312 " fill-opacity="1" fill-rule="nonzero"/><path fill="#e9bcb2" d="M 74.433594 271.859375 C 73.925781 271.707031 73.4375 271.550781 72.96875 271.386719 C 73.4375 271.550781 73.925781 271.707031 74.433594 271.859375 " fill-opacity="1" fill-rule="nonzero"/><path fill="#cfa59c" d="M 82.601562 273.070312 C 79.546875 273.070312 76.777344 272.550781 74.433594 271.859375 C 73.925781 271.707031 73.4375 271.550781 72.96875 271.386719 C 72.296875 271.152344 71.671875 270.90625 71.097656 270.664062 L 71.152344 270.683594 C 71.328125 270.761719 71.507812 270.835938 71.691406 270.90625 C 71.878906 270.976562 72.0625 271.050781 72.253906 271.121094 C 72.4375 271.191406 72.621094 271.257812 72.816406 271.328125 C 73.035156 271.40625 73.257812 271.480469 73.488281 271.558594 C 73.671875 271.613281 73.851562 271.679688 74.046875 271.738281 C 74.320312 271.816406 74.597656 271.902344 74.886719 271.984375 C 75.046875 272.03125 75.203125 272.074219 75.371094 272.117188 C 75.820312 272.238281 76.277344 272.34375 76.753906 272.441406 C 76.882812 272.472656 77.019531 272.492188 77.152344 272.519531 C 77.515625 272.585938 77.882812 272.664062 78.257812 272.71875 C 78.445312 272.75 78.632812 272.769531 78.816406 272.800781 C 79.160156 272.847656 79.503906 272.882812 79.855469 272.921875 C 80.058594 272.941406 80.261719 272.953125 80.460938 272.976562 C 80.832031 273.007812 81.207031 273.027344 81.585938 273.039062 C 81.773438 273.046875 81.953125 273.054688 82.140625 273.054688 C 82.277344 273.058594 82.414062 273.058594 82.554688 273.058594 C 82.917969 273.058594 83.285156 273.050781 83.65625 273.039062 L 83.878906 273.03125 C 84.46875 273.007812 85.070312 272.949219 85.683594 272.882812 C 85.832031 272.863281 85.996094 272.839844 86.148438 272.816406 C 86.601562 272.753906 87.0625 272.683594 87.519531 272.59375 C 87.734375 272.558594 87.941406 272.503906 88.152344 272.464844 C 88.578125 272.371094 89.007812 272.269531 89.441406 272.152344 C 89.660156 272.09375 89.875 272.03125 90.09375 271.972656 C 90.554688 271.832031 91.019531 271.675781 91.484375 271.507812 C 91.675781 271.441406 91.855469 271.386719 92.039062 271.316406 C 92.683594 271.066406 93.328125 270.800781 93.988281 270.488281 C 91.160156 271.824219 88.394531 272.5625 85.785156 272.878906 C 84.695312 273.011719 83.628906 273.070312 82.601562 273.070312 " fill-opacity="1" fill-rule="nonzero"/><path fill="#8a9391" d="M 93.648438 272.914062 C 93.777344 272.046875 93.890625 271.238281 93.988281 270.492188 C 93.890625 271.238281 93.777344 272.046875 93.648438 272.914062 " fill-opacity="1" fill-rule="nonzero"/><path fill="#e38664" d="M 70.019531 290.164062 C 70.414062 282.925781 70.796875 275.996094 71.097656 270.664062 C 71.671875 270.90625 72.296875 271.152344 72.96875 271.386719 C 73.4375 271.550781 73.925781 271.707031 74.433594 271.859375 C 76.769531 272.550781 79.542969 273.070312 82.597656 273.070312 C 83.628906 273.070312 84.695312 273.011719 85.785156 272.878906 C 88.394531 272.5625 91.160156 271.824219 93.988281 270.488281 C 93.988281 270.492188 93.988281 270.492188 93.988281 270.492188 C 93.890625 271.238281 93.777344 272.046875 93.648438 272.914062 C 93.386719 274.710938 93.066406 276.753906 92.714844 278.964844 C 88.117188 281.355469 77.539062 287.160156 70.019531 290.164062 " fill-opacity="1" fill-rule="nonzero"/><path fill="#f29b68" d="M 192.300781 367.355469 L 209.851562 367.355469 C 217.84375 348.507812 225.550781 327.316406 224.355469 317.960938 C 223.355469 310.144531 218.6875 287.253906 215.003906 269.683594 C 211.328125 271.574219 203.515625 274.609375 194.480469 272.140625 C 199.292969 291.230469 207.808594 315.652344 207.808594 315.652344 C 207.808594 315.652344 201.824219 329.894531 192.300781 367.355469 " fill-opacity="1" fill-rule="nonzero"/><path fill="#c2b1a8" d="M 196.582031 280.015625 C 195.835938 277.34375 195.125 274.699219 194.480469 272.144531 C 195.125 274.695312 195.835938 277.339844 196.582031 280.015625 " fill-opacity="1" fill-rule="nonzero"/><path fill="#e38664" d="M 198.253906 285.847656 C 197.6875 283.90625 197.121094 281.953125 196.582031 280.015625 C 195.835938 277.339844 195.125 274.695312 194.480469 272.144531 C 194.480469 272.144531 194.480469 272.144531 194.480469 272.140625 C 196.898438 272.800781 199.226562 273.070312 201.410156 273.070312 C 207.398438 273.070312 212.3125 271.070312 215.003906 269.683594 C 215.4375 271.742188 215.878906 273.882812 216.332031 276.050781 C 211.378906 279.332031 203.859375 283.960938 198.253906 285.847656 " fill-opacity="1" fill-rule="nonzero"/><path fill="#372122" d="M 102.863281 92.574219 C 102.863281 92.574219 109.855469 82.21875 109.417969 67.441406 C 109.417969 67.441406 139.257812 78.703125 166.011719 51.980469 C 166.011719 51.980469 168.972656 64.160156 177.738281 78.617188 L 182.207031 92.574219 C 182.207031 92.574219 187.464844 70.695312 187.097656 67.21875 C 186.730469 63.742188 178.4375 30.070312 167.367188 24.421875 C 156.296875 18.773438 132.820312 18.335938 132.820312 18.335938 L 104.21875 29.949219 L 100.644531 67 L 102.863281 92.574219 " fill-opacity="1" fill-rule="nonzero"/><path fill="#b2bdba" d="M 96.355469 81.628906 L 98.464844 84.324219 C 98.464844 84.324219 135.980469 22.046875 185.808594 82.980469 L 187.324219 81.238281 C 187.324219 81.238281 189.152344 44.601562 142.628906 40.039062 C 142.628906 40.039062 96.207031 38.757812 96.355469 81.628906 " fill-opacity="1" fill-rule="nonzero"/><path fill="#86a8b7" d="M 140.257812 50.203125 C 118.871094 51.222656 100.058594 68.980469 102.738281 74.046875 C 105.414062 79.136719 113.109375 72.433594 113.109375 72.433594 C 123.65625 65.585938 140.492188 65.589844 140.5 65.59375 C 140.5 65.59375 156.824219 65.585938 167.367188 72.433594 C 167.367188 72.433594 175.054688 79.136719 177.738281 74.046875 C 180.417969 68.980469 163.402344 49.332031 140.257812 50.203125 " fill-opacity="1" fill-rule="nonzero"/><path fill="#e7e6e6" d="M 128.902344 124.066406 C 128.902344 124.066406 139.9375 128.597656 157.289062 124.648438 C 157.289062 124.648438 143.097656 145.394531 128.902344 124.066406 " fill-opacity="1" fill-rule="nonzero"/></svg>