<svg xmlns="http://www.w3.org/2000/svg" xmlns:xlink="http://www.w3.org/1999/xlink" width="500" zoomAndPan="magnify" viewBox="0 0 375 374.999991" height="500" preserveAspectRatio="xMidYMid meet" version="1.0"><defs><clipPath id="2d0c1060a1"><path d="M 2 29.296875 L 373 29.296875 L 373 345.796875 L 2 345.796875 Z M 2 29.296875 " clip-rule="nonzero"/></clipPath></defs><g clip-path="url(#2d0c1060a1)"><path fill="#ffffff" d="M 350.542969 29.34375 L 24.457031 29.34375 C 12.484375 29.34375 2.738281 39.101562 2.738281 51.0625 L 2.738281 275.367188 C 2.738281 287.363281 12.484375 297.109375 24.457031 297.109375 L 130.511719 297.109375 L 130.511719 323.230469 L 127.683594 323.230469 C 121.503906 323.230469 116.46875 328.265625 116.46875 334.445312 C 116.46875 340.644531 121.503906 345.679688 127.683594 345.679688 L 247.28125 345.679688 C 253.484375 345.679688 258.496094 340.644531 258.496094 334.445312 C 258.496094 328.265625 253.484375 323.230469 247.28125 323.230469 L 244.488281 323.230469 L 244.488281 297.109375 L 350.542969 297.109375 C 362.515625 297.109375 372.261719 287.363281 372.261719 275.367188 L 372.261719 51.0625 C 372.261719 39.101562 362.515625 29.34375 350.542969 29.34375 Z M 355.4375 275.355469 C 355.4375 278.058594 353.230469 280.273438 350.542969 280.273438 L 24.457031 280.273438 C 21.757812 280.273438 19.5625 278.070312 19.5625 275.355469 L 19.5625 51.0625 C 19.5625 48.386719 21.746094 46.167969 24.457031 46.167969 L 350.542969 46.167969 C 353.21875 46.167969 355.4375 48.375 355.4375 51.0625 Z M 355.4375 275.355469 " fill-opacity="1" fill-rule="nonzero"/></g><path fill="#ffffff" d="M 72.542969 175.824219 L 50.128906 175.824219 C 43.929688 175.824219 38.894531 180.835938 38.894531 187.039062 L 38.894531 260.390625 L 83.753906 260.390625 L 83.753906 187.039062 C 83.753906 180.835938 78.722656 175.824219 72.542969 175.824219 Z M 72.542969 175.824219 " fill-opacity="1" fill-rule="nonzero"/><path fill="#ffffff" d="M 135.628906 153.863281 L 113.214844 153.863281 C 107.011719 153.863281 101.976562 158.894531 101.976562 165.074219 L 101.976562 260.390625 L 146.839844 260.390625 L 146.839844 165.074219 C 146.839844 158.886719 141.804688 153.863281 135.628906 153.863281 Z M 135.628906 153.863281 " fill-opacity="1" fill-rule="nonzero"/><path fill="#ffffff" d="M 198.710938 196.621094 L 176.296875 196.621094 C 170.097656 196.621094 165.0625 201.65625 165.0625 207.835938 L 165.0625 260.390625 L 209.925781 260.390625 L 209.925781 207.835938 C 209.914062 201.65625 204.890625 196.621094 198.710938 196.621094 Z M 198.710938 196.621094 " fill-opacity="1" fill-rule="nonzero"/><path fill="#ffffff" d="M 261.796875 142.648438 L 239.382812 142.648438 C 233.183594 142.648438 228.148438 147.683594 228.148438 153.863281 L 228.148438 260.390625 L 273.011719 260.390625 L 273.011719 153.863281 C 273 147.683594 268 142.648438 261.796875 142.648438 Z M 261.796875 142.648438 " fill-opacity="1" fill-rule="nonzero"/><path fill="#ffffff" d="M 324.871094 120.234375 L 302.457031 120.234375 C 296.257812 120.234375 291.222656 125.246094 291.222656 131.449219 L 291.222656 260.390625 L 336.082031 260.390625 L 336.082031 131.449219 C 336.082031 125.234375 331.082031 120.234375 324.871094 120.234375 Z M 324.871094 120.234375 " fill-opacity="1" fill-rule="nonzero"/><path fill="#ffffff" d="M 61.332031 149.128906 C 68.753906 149.128906 74.773438 143.085938 74.773438 135.664062 C 74.773438 135.59375 74.75 135.5 74.75 135.429688 L 113.769531 121.851562 C 116.226562 125.050781 120.0625 127.152344 124.414062 127.152344 C 127.511719 127.152344 130.304688 126.066406 132.578125 124.3125 L 174.601562 152.800781 C 174.289062 153.976562 174.035156 155.191406 174.035156 156.449219 C 174.035156 163.898438 180.050781 169.914062 187.5 169.914062 C 194.925781 169.914062 200.941406 163.898438 200.941406 156.449219 C 200.941406 154.648438 200.582031 152.925781 199.925781 151.355469 L 243.632812 113.964844 C 245.664062 115.199219 248.03125 115.949219 250.585938 115.949219 C 258.011719 115.949219 264.027344 109.933594 264.027344 102.484375 C 264.027344 102.394531 264.003906 102.277344 264.003906 102.199219 L 303.09375 88.28125 C 305.550781 91.457031 309.363281 93.535156 313.667969 93.535156 C 321.09375 93.535156 327.132812 87.496094 327.132812 80.070312 C 327.132812 72.625 321.09375 66.605469 313.667969 66.605469 C 306.222656 66.605469 300.207031 72.625 300.207031 80.070312 C 300.207031 80.164062 300.226562 80.28125 300.25 80.359375 L 261.164062 94.277344 C 258.703125 91.101562 254.890625 89.019531 250.585938 89.019531 C 243.136719 89.019531 237.121094 95.039062 237.121094 102.484375 C 237.121094 104.289062 237.5 106.03125 238.136719 107.601562 L 194.453125 144.992188 C 192.394531 143.757812 190.050781 143.007812 187.5 143.007812 C 184.40625 143.007812 181.585938 144.09375 179.3125 145.847656 L 137.289062 117.335938 C 137.625 116.179688 137.855469 114.96875 137.855469 113.6875 C 137.855469 106.261719 131.839844 100.246094 124.414062 100.246094 C 116.96875 100.246094 110.949219 106.261719 110.949219 113.6875 C 110.949219 113.78125 110.972656 113.847656 110.972656 113.929688 L 71.953125 127.511719 C 69.496094 124.3125 65.660156 122.1875 61.332031 122.1875 C 53.882812 122.1875 47.867188 128.226562 47.867188 135.652344 C 47.867188 143.074219 53.894531 149.128906 61.332031 149.128906 Z M 61.332031 149.128906 " fill-opacity="1" fill-rule="nonzero"/></svg>