<svg xmlns="http://www.w3.org/2000/svg" xmlns:xlink="http://www.w3.org/1999/xlink" width="500" zoomAndPan="magnify" viewBox="0 0 375 374.999991" height="500" preserveAspectRatio="xMidYMid meet" version="1.0"><defs><clipPath id="48890dc2b7"><path d="M 0 19 L 375 19 L 375 355.734375 L 0 355.734375 Z M 0 19 " clip-rule="nonzero"/></clipPath></defs><g clip-path="url(#48890dc2b7)"><path fill="#ffffff" d="M 24.164062 255.421875 C 24.707031 255.34375 25.246094 255.265625 25.789062 255.1875 C 26.175781 255.113281 26.5625 255.113281 26.953125 255.035156 C 28.191406 254.800781 29.429688 254.492188 30.667969 254.183594 C 36.324219 264.558594 47.089844 271.21875 59.015625 271.21875 C 67.613281 271.21875 75.667969 267.8125 81.707031 261.847656 C 87.671875 267.8125 95.726562 271.21875 104.320312 271.21875 C 110.59375 271.21875 116.714844 269.363281 121.980469 265.875 C 132.359375 272.769531 146.609375 272.847656 157.21875 265.875 C 167.671875 272.847656 182 272.769531 192.457031 265.875 C 202.910156 272.769531 217.164062 272.769531 227.773438 265.875 C 238.226562 272.847656 252.554688 272.769531 263.011719 265.875 C 273.464844 272.769531 287.71875 272.769531 298.328125 265.875 C 303.515625 269.363281 309.632812 271.21875 315.90625 271.21875 C 327.835938 271.21875 338.675781 264.558594 344.253906 254.183594 C 345.492188 254.570312 346.730469 254.878906 347.972656 255.035156 C 348.359375 255.113281 348.746094 255.113281 349.132812 255.1875 C 349.675781 255.265625 350.21875 255.34375 350.757812 255.421875 C 353.703125 258.363281 355.25 262.160156 355.25 266.265625 C 355.25 274.707031 348.359375 281.519531 339.992188 281.519531 L 34.929688 281.519531 C 30.824219 281.519531 27.027344 279.972656 24.164062 277.027344 C 21.296875 274.164062 19.671875 270.367188 19.671875 266.265625 C 19.671875 262.160156 21.296875 258.285156 24.164062 255.421875 Z M 0 222.273438 C 0 216.386719 9.449219 204.230469 16.265625 197.492188 C 16.265625 197.492188 16.339844 197.414062 16.339844 197.414062 C 16.652344 197.566406 16.960938 197.722656 17.191406 197.957031 C 17.8125 198.34375 18.433594 198.730469 19.128906 199.039062 C 20.292969 199.738281 21.53125 200.277344 22.769531 200.820312 C 23.464844 201.128906 24.164062 201.363281 24.859375 201.671875 C 26.175781 202.136719 27.492188 202.523438 28.886719 202.835938 C 29.507812 202.988281 30.128906 203.144531 30.824219 203.300781 C 32.835938 203.609375 34.929688 203.839844 37.019531 203.839844 L 338.136719 203.839844 C 339.992188 203.839844 341.773438 203.6875 343.554688 203.375 C 344.097656 203.300781 344.71875 203.144531 345.261719 203.066406 C 346.5 202.835938 347.660156 202.523438 348.824219 202.214844 C 349.441406 201.984375 350.0625 201.828125 350.679688 201.59375 C 351.765625 201.207031 352.851562 200.742188 353.855469 200.203125 C 354.476562 199.890625 355.019531 199.660156 355.636719 199.347656 C 355.871094 199.195312 356.101562 199.117188 356.335938 199.039062 C 367.179688 208.179688 375 219.097656 375 222.351562 C 375 234.355469 365.628906 244.191406 353.933594 244.269531 C 353.703125 244.269531 353.46875 244.191406 353.160156 244.191406 C 349.984375 244.191406 346.886719 243.339844 343.945312 241.789062 C 342.472656 241.015625 340.769531 240.9375 339.21875 241.558594 C 337.671875 242.179688 336.507812 243.496094 335.964844 245.042969 C 333.101562 253.871094 325.046875 259.835938 315.90625 259.835938 C 310.875 259.835938 305.996094 257.976562 302.121094 254.492188 C 301.578125 254.027344 300.960938 253.640625 300.339844 253.40625 C 300.109375 253.332031 299.796875 253.332031 299.566406 253.253906 C 299.179688 253.175781 298.792969 253.019531 298.40625 253.019531 C 297.941406 253.019531 297.476562 253.175781 297.011719 253.253906 C 296.855469 253.332031 296.625 253.253906 296.46875 253.332031 C 295.847656 253.5625 295.230469 253.949219 294.6875 254.414062 C 290.738281 257.898438 285.78125 259.601562 280.746094 259.601562 C 275.710938 259.601562 270.757812 257.898438 266.882812 254.414062 C 264.714844 252.476562 261.460938 252.476562 259.371094 254.414062 C 251.625 261.382812 239.46875 261.382812 231.644531 254.414062 C 229.476562 252.476562 226.300781 252.476562 224.132812 254.414062 C 216.308594 261.308594 204.074219 261.382812 196.328125 254.414062 C 194.160156 252.476562 190.90625 252.476562 188.816406 254.414062 C 181.070312 261.382812 168.914062 261.382812 161.089844 254.414062 C 158.921875 252.476562 155.746094 252.476562 153.578125 254.414062 C 145.601562 261.460938 133.519531 261.308594 125.851562 254.492188 C 123.761719 252.554688 120.507812 252.554688 118.339844 254.414062 C 114.390625 257.898438 109.433594 259.757812 104.398438 259.757812 C 97.195312 259.757812 90.535156 255.964844 86.585938 249.613281 C 84.496094 246.28125 79.074219 246.28125 76.984375 249.613281 C 73.109375 255.886719 66.21875 259.757812 59.09375 259.757812 C 50.03125 259.757812 42.054688 253.792969 39.109375 244.964844 C 38.570312 243.417969 37.40625 242.101562 35.859375 241.480469 C 34.308594 240.859375 32.605469 240.9375 31.132812 241.714844 C 28.191406 243.261719 25.015625 244.113281 21.917969 244.113281 C 21.683594 244.113281 21.453125 244.113281 21.144531 244.191406 C 9.449219 244.191406 0 234.355469 0 222.273438 Z M 11.460938 324.347656 C 11.460938 307 23.234375 292.90625 37.640625 292.90625 L 337.359375 292.90625 C 351.765625 292.90625 363.539062 307 363.539062 324.347656 C 363.539062 341.699219 351.765625 355.792969 337.359375 355.792969 L 37.640625 355.792969 C 23.234375 355.792969 11.460938 341.699219 11.460938 324.347656 Z M 363.074219 162.640625 C 346.730469 79.539062 272.925781 19.207031 187.5 19.207031 C 102.074219 19.207031 28.347656 79.539062 11.925781 162.640625 C 10.222656 171.3125 13.167969 179.988281 19.902344 185.949219 C 24.628906 190.210938 30.667969 192.535156 36.941406 192.535156 L 338.058594 192.535156 C 343.632812 192.535156 348.898438 190.753906 353.238281 187.5 C 361.214844 181.613281 364.933594 172.089844 363.074219 162.640625 Z M 148.777344 88.445312 C 144.4375 88.445312 140.953125 84.960938 140.953125 80.621094 C 140.953125 76.285156 144.4375 72.800781 148.777344 72.800781 C 153.113281 72.800781 156.597656 76.285156 156.597656 80.621094 C 156.597656 84.960938 153.035156 88.445312 148.777344 88.445312 Z M 172.011719 69.46875 C 167.671875 69.46875 164.1875 65.984375 164.1875 61.648438 C 164.1875 57.3125 167.671875 53.824219 172.011719 53.824219 C 176.347656 53.824219 179.832031 57.3125 179.832031 61.648438 C 179.832031 65.984375 176.347656 69.46875 172.011719 69.46875 Z M 203.066406 69.46875 C 198.730469 69.46875 195.246094 65.984375 195.246094 61.648438 C 195.246094 57.3125 198.730469 53.824219 203.066406 53.824219 C 207.402344 53.824219 210.890625 57.3125 210.890625 61.648438 C 210.890625 65.984375 207.328125 69.46875 203.066406 69.46875 Z M 226.300781 88.445312 C 221.964844 88.445312 218.480469 84.960938 218.480469 80.621094 C 218.480469 76.285156 221.964844 72.800781 226.300781 72.800781 C 230.636719 72.800781 234.125 76.285156 234.125 80.621094 C 234.125 84.960938 230.636719 88.445312 226.300781 88.445312 Z M 226.300781 88.445312 " fill-opacity="1" fill-rule="nonzero"/></g></svg>