<svg xmlns="http://www.w3.org/2000/svg" xmlns:xlink="http://www.w3.org/1999/xlink" width="500" zoomAndPan="magnify" viewBox="0 0 375 374.999991" height="500" preserveAspectRatio="xMidYMid meet" version="1.0"><defs><clipPath id="8b2afd18dd"><path d="M 43 96 L 328 96 L 328 358.40625 L 43 358.40625 Z M 43 96 " clip-rule="nonzero"/></clipPath><clipPath id="389ea755a3"><path d="M 146 16.40625 L 225 16.40625 L 225 95 L 146 95 Z M 146 16.40625 " clip-rule="nonzero"/></clipPath></defs><g clip-path="url(#8b2afd18dd)"><path fill="#ffffff" d="M 81.695312 178.359375 C 81.839844 178.269531 81.984375 178.1875 82.136719 178.109375 C 84.929688 176.644531 87.910156 175.902344 90.996094 175.902344 L 91 175.902344 C 100.84375 175.902344 109.027344 183.664062 112.128906 188.875 C 117.375 197.714844 117.628906 207.617188 112.828125 216.054688 C 111.085938 219.117188 109.476562 220.988281 107.644531 221.9375 L 78.28125 239.925781 C 73.320312 242.964844 69.835938 247.753906 68.476562 253.414062 C 68.273438 254.269531 68.136719 255.128906 68.035156 255.992188 C 74.460938 259.800781 79.988281 265.160156 84.0625 271.8125 C 88.113281 278.421875 90.410156 285.769531 90.871094 293.292969 C 93.265625 294.179688 95.832031 294.660156 98.492188 294.660156 C 102.484375 294.660156 106.410156 293.546875 109.839844 291.445312 L 139.460938 273.304688 C 139.558594 273.238281 139.660156 273.171875 139.765625 273.109375 C 140.136719 272.882812 140.53125 272.6875 140.9375 272.53125 C 141.589844 272.273438 145.082031 271.007812 149.828125 271.007812 C 158.734375 271.007812 166.351562 275.433594 171.265625 283.460938 C 176.378906 291.820312 178.445312 305.21875 167.433594 315.472656 C 167.066406 315.8125 166.664062 316.117188 166.238281 316.378906 L 135.101562 335.449219 C 130.21875 338.441406 124.992188 340.746094 119.566406 342.34375 C 139.363281 352.707031 161.882812 358.582031 185.78125 358.582031 C 210.191406 358.582031 233.171875 352.453125 253.273438 341.664062 C 248.625 340.113281 244.136719 338.042969 239.90625 335.449219 L 208.769531 316.378906 C 208.34375 316.117188 207.941406 315.8125 207.574219 315.46875 C 196.5625 305.214844 198.628906 291.816406 203.742188 283.460938 C 208.65625 275.433594 216.269531 271.007812 225.179688 271.007812 C 229.925781 271.007812 233.414062 272.273438 234.066406 272.53125 C 234.503906 272.699219 234.921875 272.910156 235.316406 273.15625 L 235.527344 273.292969 L 265.164062 291.445312 C 268.597656 293.546875 272.519531 294.660156 276.515625 294.660156 C 279.171875 294.660156 281.742188 294.179688 284.136719 293.292969 C 284.597656 285.769531 286.894531 278.421875 290.945312 271.8125 C 295.019531 265.160156 300.542969 259.800781 306.96875 255.992188 C 306.867188 255.128906 306.734375 254.269531 306.527344 253.414062 C 305.167969 247.753906 301.683594 242.964844 296.722656 239.925781 L 267.347656 221.929688 C 265.523438 220.976562 263.917969 219.109375 262.179688 216.050781 C 257.378906 207.617188 257.632812 197.710938 262.878906 188.878906 C 265.976562 183.664062 274.160156 175.902344 284.007812 175.902344 C 287.09375 175.902344 290.074219 176.644531 292.871094 178.109375 C 293.019531 178.1875 293.167969 178.269531 293.3125 178.359375 L 324.449219 197.429688 C 325.605469 198.136719 326.71875 198.886719 327.8125 199.652344 C 323.011719 156.558594 299.054688 119.253906 264.648438 96.445312 C 265.988281 101.621094 266.707031 107.046875 266.707031 112.640625 L 266.707031 149.152344 C 266.707031 149.65625 266.65625 150.15625 266.558594 150.648438 C 263.5625 165.394531 251.0625 170.632812 241.25 170.636719 C 224.222656 170.636719 217.355469 157.453125 216.101562 150.484375 C 216.011719 149.988281 215.972656 149.484375 215.984375 148.980469 L 215.988281 148.847656 L 215.988281 114.085938 C 215.988281 107.121094 212.691406 100.929688 207.589844 96.9375 C 201.074219 100.394531 193.652344 102.359375 185.78125 102.359375 C 177.902344 102.359375 170.480469 100.394531 163.964844 96.9375 C 158.863281 100.929688 155.570312 107.121094 155.570312 114.085938 L 155.570312 148.859375 L 155.574219 149.105469 C 155.601562 153.207031 148.925781 169.347656 129.71875 169.609375 L 129.457031 169.613281 C 119.808594 169.613281 105.800781 163.421875 104.867188 149.664062 C 104.855469 149.492188 104.851562 149.324219 104.851562 149.152344 L 104.851562 112.640625 C 104.851562 107.046875 105.566406 101.621094 106.910156 96.445312 C 71.75 119.75 47.503906 158.195312 43.457031 202.484375 C 45.683594 200.667969 48.042969 198.96875 50.558594 197.429688 L 81.695312 178.359375 " fill-opacity="1" fill-rule="nonzero"/></g><path fill="#ffffff" d="M 157.355469 92.6875 C 152.390625 88.867188 148.214844 84.078125 145.105469 78.601562 C 144.484375 77.503906 143.902344 76.375 143.367188 75.226562 C 142.832031 74.066406 142.328125 72.886719 141.886719 71.679688 C 140.96875 69.179688 140.273438 66.574219 139.792969 63.894531 C 133.523438 67.707031 128.050781 72.695312 123.675781 78.546875 C 122.207031 80.515625 120.871094 82.585938 119.664062 84.734375 C 118.632812 86.570312 117.6875 88.460938 116.859375 90.414062 C 113.964844 97.246094 112.363281 104.757812 112.363281 112.640625 L 112.363281 149.152344 C 113.023438 158.941406 124.40625 162.101562 129.457031 162.101562 L 129.613281 162.097656 C 144.710938 161.894531 148.0625 149.152344 148.0625 149.152344 L 148.054688 149.023438 L 148.054688 114.085938 C 148.054688 105.640625 151.636719 98.03125 157.355469 92.6875 " fill-opacity="1" fill-rule="nonzero"/><path fill="#ffffff" d="M 223.492188 149.15625 C 223.492188 149.15625 226.003906 163.125 241.25 163.125 L 241.257812 163.125 C 246.621094 163.121094 256.847656 160.722656 259.191406 149.15625 L 259.191406 112.640625 C 259.191406 104.757812 257.59375 97.246094 254.699219 90.414062 C 253.871094 88.460938 252.925781 86.570312 251.890625 84.734375 C 250.683594 82.585938 249.351562 80.515625 247.878906 78.550781 C 243.507812 72.695312 238.03125 67.707031 231.765625 63.894531 C 231.285156 66.574219 230.589844 69.179688 229.671875 71.679688 C 229.226562 72.886719 228.726562 74.066406 228.1875 75.226562 C 227.652344 76.375 227.070312 77.503906 226.449219 78.601562 C 223.34375 84.078125 219.167969 88.871094 214.199219 92.6875 C 219.917969 98.03125 223.5 105.640625 223.5 114.085938 L 223.5 149.023438 L 223.492188 149.15625 " fill-opacity="1" fill-rule="nonzero"/><g clip-path="url(#389ea755a3)"><path fill="#ffffff" d="M 163.800781 88.113281 C 165.054688 88.964844 166.367188 89.734375 167.71875 90.4375 C 169.433594 91.332031 171.21875 92.097656 173.070312 92.730469 C 177.054688 94.09375 181.328125 94.847656 185.777344 94.847656 C 190.226562 94.847656 194.5 94.09375 198.484375 92.730469 C 200.335938 92.097656 202.121094 91.332031 203.835938 90.4375 C 205.1875 89.734375 206.5 88.964844 207.753906 88.113281 C 212.222656 85.085938 216.023438 81.15625 218.917969 76.59375 C 219.609375 75.5 220.25 74.371094 220.832031 73.210938 C 221.414062 72.0625 221.933594 70.882812 222.398438 69.671875 C 223.542969 66.695312 224.332031 63.539062 224.71875 60.261719 C 224.871094 58.96875 224.960938 57.652344 224.980469 56.328125 C 224.988281 56.089844 225 55.859375 225 55.625 C 225 54.480469 224.941406 53.351562 224.84375 52.230469 C 223.121094 32.160156 206.296875 16.402344 185.777344 16.402344 C 165.261719 16.402344 148.433594 32.160156 146.710938 52.230469 C 146.617188 53.351562 146.554688 54.480469 146.554688 55.625 C 146.554688 55.859375 146.570312 56.089844 146.574219 56.328125 C 146.597656 57.652344 146.6875 58.96875 146.839844 60.261719 C 147.226562 63.539062 148.015625 66.695312 149.15625 69.671875 C 149.621094 70.882812 150.144531 72.0625 150.722656 73.210938 C 151.304688 74.371094 151.945312 75.5 152.636719 76.59375 C 155.53125 81.15625 159.332031 85.085938 163.800781 88.113281 " fill-opacity="1" fill-rule="nonzero"/></g><path fill="#ffffff" d="M 291.949219 322.230469 C 291.222656 321.140625 290.542969 320.015625 289.902344 318.863281 C 289.277344 317.722656 288.695312 316.558594 288.164062 315.367188 C 286.992188 312.742188 286.042969 309.996094 285.355469 307.140625 C 284.875 305.132812 284.539062 303.117188 284.324219 301.101562 C 281.785156 301.800781 279.164062 302.171875 276.515625 302.171875 C 271.296875 302.171875 266.019531 300.777344 261.242188 297.851562 L 231.449219 279.601562 L 231.339844 279.527344 C 231.339844 279.527344 228.753906 278.523438 225.179688 278.523438 C 220.671875 278.523438 214.589844 280.125 210.148438 287.382812 C 207.351562 291.953125 204.058594 301.929688 212.691406 309.972656 L 243.828125 329.046875 C 249.710938 332.648438 255.988281 335.054688 262.378906 336.335938 C 264.199219 336.699219 266.03125 336.976562 267.863281 337.164062 C 269.761719 337.355469 271.660156 337.449219 273.554688 337.449219 C 273.753906 337.449219 273.953125 337.429688 274.152344 337.429688 C 283.03125 337.335938 291.789062 335.164062 299.695312 331.105469 C 296.730469 328.472656 294.132812 325.496094 291.949219 322.230469 " fill-opacity="1" fill-rule="nonzero"/><path fill="#ffffff" d="M 289.386719 184.765625 C 287.574219 183.816406 285.765625 183.414062 284.007812 183.414062 C 277.261719 183.414062 271.347656 189.324219 269.335938 192.714844 C 261.628906 205.695312 270.742188 215.207031 270.742188 215.207031 L 270.855469 215.269531 L 300.648438 233.519531 C 307.835938 237.921875 312.449219 244.929688 314.03125 252.578125 C 317.394531 251.292969 320.921875 250.382812 324.566406 249.898438 C 325.867188 249.726562 327.175781 249.621094 328.5 249.558594 C 329.277344 249.519531 330.050781 249.484375 330.835938 249.484375 C 331.359375 249.484375 331.878906 249.519531 332.402344 249.535156 C 337.679688 249.714844 342.867188 250.789062 347.769531 252.703125 C 347.808594 240.28125 343.777344 228.050781 336.191406 218.03125 C 335.023438 216.488281 333.773438 214.996094 332.4375 213.570312 C 331.21875 212.265625 329.933594 211.011719 328.582031 209.8125 C 326.113281 207.628906 323.433594 205.617188 320.527344 203.835938 L 289.386719 184.765625 " fill-opacity="1" fill-rule="nonzero"/><path fill="#ffffff" d="M 354.097656 264.679688 C 353.191406 264.015625 352.261719 263.375 351.285156 262.777344 C 351.085938 262.652344 350.878906 262.550781 350.675781 262.429688 C 349.53125 261.757812 348.363281 261.148438 347.179688 260.605469 C 341.929688 258.183594 336.355469 256.992188 330.835938 256.992188 C 330.71875 256.992188 330.601562 257.003906 330.484375 257.007812 C 329.132812 257.019531 327.785156 257.105469 326.445312 257.253906 C 325.0625 257.410156 323.699219 257.644531 322.347656 257.941406 C 319.675781 258.53125 317.070312 259.390625 314.570312 260.523438 C 313.199219 261.144531 311.859375 261.855469 310.5625 262.636719 C 308.910156 263.628906 307.316406 264.734375 305.8125 265.976562 C 302.558594 268.667969 299.679688 271.933594 297.351562 275.734375 C 295.023438 279.535156 293.433594 283.574219 292.515625 287.695312 C 292.089844 289.609375 291.808594 291.535156 291.675781 293.472656 C 291.566406 294.976562 291.542969 296.484375 291.613281 297.984375 C 291.789062 301.828125 292.53125 305.621094 293.804688 309.246094 C 294.257812 310.535156 294.78125 311.800781 295.367188 313.039062 C 295.949219 314.265625 296.597656 315.460938 297.300781 316.625 C 299.675781 320.527344 302.75 324.050781 306.492188 326.996094 C 307.535156 327.820312 308.632812 328.597656 309.777344 329.328125 C 309.960938 329.4375 310.128906 329.558594 310.308594 329.667969 C 311.304688 330.277344 312.320312 330.820312 313.34375 331.332031 C 318.902344 334.101562 324.859375 335.449219 330.757812 335.449219 C 343.957031 335.449219 356.84375 328.785156 364.242188 316.710938 C 374.960938 299.214844 370.3125 276.632812 354.097656 264.679688 " fill-opacity="1" fill-rule="nonzero"/><path fill="#ffffff" d="M 101.449219 337.449219 C 102.308594 337.449219 103.164062 337.421875 104.023438 337.382812 C 105.992188 337.292969 107.964844 337.101562 109.929688 336.804688 C 117.246094 335.699219 124.46875 333.152344 131.175781 329.046875 L 162.3125 309.972656 C 170.949219 301.929688 167.65625 291.953125 164.859375 287.382812 C 160.414062 280.125 154.335938 278.523438 149.828125 278.523438 C 146.253906 278.523438 143.664062 279.527344 143.664062 279.527344 L 143.558594 279.601562 L 113.765625 297.851562 C 108.988281 300.777344 103.707031 302.171875 98.492188 302.171875 C 95.84375 302.171875 93.21875 301.800781 90.683594 301.101562 C 90.464844 303.117188 90.132812 305.132812 89.648438 307.140625 C 88.757812 310.855469 87.433594 314.394531 85.726562 317.707031 C 85.144531 318.839844 84.507812 319.9375 83.835938 321.015625 C 83.148438 322.113281 82.421875 323.183594 81.644531 324.21875 C 79.777344 326.714844 77.660156 329.015625 75.308594 331.105469 C 82.125 334.601562 89.574219 336.703125 97.191406 337.273438 C 98.605469 337.378906 100.027344 337.449219 101.449219 337.449219 " fill-opacity="1" fill-rule="nonzero"/><path fill="#ffffff" d="M 43.046875 249.519531 C 43.421875 249.511719 43.796875 249.484375 44.171875 249.484375 C 45.089844 249.484375 46 249.515625 46.90625 249.570312 C 51.804688 249.847656 56.535156 250.882812 60.976562 252.578125 C 62.558594 244.929688 67.167969 237.921875 74.359375 233.519531 L 104.148438 215.269531 L 104.265625 215.207031 C 104.269531 215.207031 113.378906 205.695312 105.667969 192.714844 C 103.65625 189.324219 97.742188 183.414062 90.996094 183.414062 C 89.242188 183.414062 87.429688 183.816406 85.617188 184.765625 L 54.480469 203.835938 C 50.113281 206.511719 46.246094 209.6875 42.878906 213.230469 C 41.542969 214.640625 40.289062 216.105469 39.117188 217.628906 C 37.808594 219.324219 36.609375 221.082031 35.507812 222.898438 C 30.066406 231.894531 27.203125 242.230469 27.238281 252.703125 C 31.082031 251.199219 35.105469 250.21875 39.210938 249.777344 C 40.484375 249.640625 41.761719 249.554688 43.046875 249.519531 " fill-opacity="1" fill-rule="nonzero"/><path fill="#ffffff" d="M 61.660156 331.328125 C 62.6875 330.820312 63.699219 330.277344 64.695312 329.667969 C 64.875 329.558594 65.046875 329.4375 65.226562 329.324219 C 66.371094 328.597656 67.46875 327.820312 68.511719 326.996094 C 71.542969 324.613281 74.140625 321.84375 76.28125 318.808594 C 77.042969 317.722656 77.742188 316.601562 78.386719 315.457031 C 79.035156 314.308594 79.617188 313.128906 80.140625 311.925781 C 82.0625 307.519531 83.171875 302.792969 83.394531 297.984375 C 83.464844 296.484375 83.4375 294.976562 83.332031 293.472656 C 83.199219 291.539062 82.917969 289.609375 82.492188 287.691406 C 81.574219 283.578125 79.984375 279.535156 77.65625 275.734375 C 75.324219 271.933594 72.449219 268.667969 69.191406 265.976562 C 67.6875 264.734375 66.097656 263.628906 64.445312 262.636719 C 63.144531 261.855469 61.808594 261.144531 60.433594 260.523438 C 56.808594 258.878906 52.960938 257.789062 49.019531 257.296875 C 47.703125 257.132812 46.375 257.050781 45.042969 257.019531 C 44.75 257.015625 44.460938 256.992188 44.171875 256.992188 C 43.148438 256.992188 42.128906 257.046875 41.105469 257.128906 C 36.597656 257.480469 32.105469 258.628906 27.824219 260.601562 C 26.640625 261.148438 25.472656 261.757812 24.328125 262.429688 C 24.128906 262.550781 23.921875 262.652344 23.71875 262.773438 C 22.746094 263.375 21.8125 264.011719 20.910156 264.679688 C 4.691406 276.628906 0.046875 299.214844 10.761719 316.710938 C 18.160156 328.785156 31.046875 335.449219 44.246094 335.449219 C 50.144531 335.449219 56.101562 334.101562 61.660156 331.328125 " fill-opacity="1" fill-rule="nonzero"/></svg>