<svg xmlns="http://www.w3.org/2000/svg" xmlns:xlink="http://www.w3.org/1999/xlink" width="500" zoomAndPan="magnify" viewBox="0 0 375 374.999991" height="500" preserveAspectRatio="xMidYMid meet" version="1.0"><defs><clipPath id="bec914e072"><path d="M 45 100 L 331 100 L 331 357.609375 L 45 357.609375 Z M 45 100 " clip-rule="nonzero"/></clipPath></defs><path fill="#fefefe" d="M 359.261719 136.800781 L 301.542969 94.34375 L 301.542969 43.695312 C 301.542969 35.757812 295.097656 29.335938 287.171875 29.335938 L 263.808594 29.335938 C 255.871094 29.335938 249.4375 35.769531 249.4375 43.695312 L 249.4375 56 L 205.425781 23.632812 C 195.878906 16.59375 180.246094 16.59375 170.695312 23.632812 L 16.863281 136.800781 C 7.3125 143.828125 5.253906 157.402344 12.285156 166.964844 L 16.535156 172.734375 C 23.554688 182.292969 37.128906 184.363281 46.667969 177.332031 L 170.695312 86.054688 C 180.246094 79.023438 195.878906 79.023438 205.425781 86.054688 L 329.445312 177.332031 C 338.996094 184.363281 352.558594 182.28125 359.578125 172.734375 L 363.839844 166.964844 C 370.859375 157.402344 368.800781 143.828125 359.261719 136.800781 Z M 359.261719 136.800781 " fill-opacity="1" fill-rule="nonzero"/><g clip-path="url(#bec914e072)"><path fill="#fefefe" d="M 313.242188 185.273438 L 205.394531 105.566406 C 195.855469 98.515625 180.269531 98.515625 170.730469 105.566406 L 62.882812 185.273438 C 53.347656 192.324219 45.542969 202.636719 45.542969 208.226562 L 45.542969 323.789062 C 45.542969 342.550781 61.625 357.765625 81.476562 357.765625 L 147.335938 357.765625 L 147.335938 255.542969 C 147.335938 247.648438 153.804688 241.191406 161.699219 241.191406 L 214.402344 241.191406 C 222.296875 241.191406 228.765625 247.648438 228.765625 255.542969 L 228.765625 357.765625 L 294.636719 357.765625 C 314.476562 357.765625 330.550781 342.550781 330.550781 323.789062 L 330.550781 208.226562 C 330.5625 202.636719 322.777344 192.324219 313.242188 185.273438 Z M 313.242188 185.273438 " fill-opacity="1" fill-rule="nonzero"/></g></svg>