<svg xmlns="http://www.w3.org/2000/svg" xmlns:xlink="http://www.w3.org/1999/xlink" width="500" zoomAndPan="magnify" viewBox="0 0 375 374.999991" height="500" preserveAspectRatio="xMidYMid meet" version="1.0"><defs><clipPath id="4394851788"><path d="M 20.796875 0 L 210 0 L 210 322 L 20.796875 322 Z M 20.796875 0 " clip-rule="nonzero"/></clipPath></defs><g clip-path="url(#4394851788)"><path fill="#ffffff" d="M 147.109375 0 C 151.851562 1.085938 156.699219 1.878906 161.445312 3.164062 C 181.414062 8.898438 197.234375 20.367188 209.492188 37.46875 C 171.726562 49.433594 146.019531 73.65625 135.34375 111.917969 C 124.46875 151.066406 136.628906 184.089844 165.003906 212.167969 C 125.355469 237.871094 99.554688 271.488281 101.925781 321.511719 C 100.542969 321.613281 99.453125 321.808594 98.367188 321.808594 C 85.613281 321.808594 72.859375 321.910156 60.007812 321.808594 C 40.035156 321.710938 25.105469 308.957031 21.644531 289.28125 C 21.546875 288.394531 21.25 287.601562 20.953125 286.8125 L 20.953125 253.394531 C 21.152344 252.40625 21.546875 251.417969 21.644531 250.429688 C 22.734375 238.664062 26.492188 227.6875 32.421875 217.605469 C 47.351562 192.394531 69.496094 175.980469 96.289062 165.304688 C 98.070312 164.613281 99.851562 163.921875 100.839844 163.523438 C 92.335938 156.40625 83.238281 149.882812 75.429688 142.070312 C 60.699219 127.242188 51.304688 109.246094 50.910156 87.695312 C 50.121094 48.34375 77.40625 12.753906 115.570312 2.964844 C 119.917969 1.878906 124.367188 0.988281 128.816406 0 Z M 147.109375 0 " fill-opacity="1" fill-rule="nonzero"/></g><path fill="#ffffff" d="M 201.089844 216.320312 C 195.253906 212.066406 189.226562 208.210938 183.789062 203.566406 C 167.574219 189.824219 155.3125 173.214844 151.753906 151.761719 C 147.699219 127.339844 153.929688 105.09375 169.550781 86.113281 C 191.894531 58.824219 221.257812 47.753906 255.761719 55.265625 C 292.144531 63.175781 314.6875 86.804688 322.792969 123.1875 C 329.023438 150.96875 319.828125 174.695312 300.648438 194.667969 C 293.429688 202.082031 284.53125 207.914062 276.324219 214.441406 C 275.535156 215.035156 274.746094 215.527344 273.457031 216.320312 C 278.105469 218.296875 282.457031 219.878906 286.609375 221.855469 C 311.917969 233.71875 332.582031 250.625 345.53125 275.9375 C 350.96875 286.515625 354.035156 297.785156 353.640625 309.847656 C 353.34375 319.4375 353.539062 329.027344 353.539062 338.714844 C 353.539062 355.820312 340.886719 371.144531 324.078125 374.308594 C 321.507812 374.800781 318.839844 375 316.167969 375 L 158.675781 375 C 138.703125 375 121.796875 359.675781 121.203125 339.703125 C 120.808594 325.46875 120.511719 311.035156 122.589844 296.996094 C 125.851562 275.144531 138.605469 258.042969 154.820312 243.507812 C 167.472656 232.136719 182.007812 223.832031 197.925781 217.902344 C 198.914062 217.507812 199.804688 217.210938 200.691406 216.8125 C 200.988281 216.714844 201.089844 216.417969 201.089844 216.320312 Z M 201.089844 216.320312 " fill-opacity="1" fill-rule="nonzero"/></svg>