<svg xmlns="http://www.w3.org/2000/svg" xmlns:xlink="http://www.w3.org/1999/xlink" width="500" zoomAndPan="magnify" viewBox="0 0 375 374.999991" height="500" preserveAspectRatio="xMidYMid meet" version="1.0"><defs><clipPath id="9a315c965f"><path d="M 0 7.5 L 249 7.5 L 249 367.5 L 0 367.5 Z M 0 7.5 " clip-rule="nonzero"/></clipPath></defs><path fill="#ffffff" d="M 374.222656 178.785156 C 374.222656 177.292969 373.722656 175.796875 373.226562 174.304688 C 372.726562 173.808594 372.230469 172.8125 371.730469 172.3125 C 371.234375 171.816406 371.234375 171.316406 370.738281 170.820312 L 307.5 107.085938 C 303.019531 102.605469 296.046875 102.605469 291.566406 107.085938 C 287.085938 111.566406 287.085938 120.03125 291.566406 124.511719 L 335.882812 170.320312 L 115.300781 170.320312 C 109.324219 170.320312 103.847656 175.300781 103.847656 181.773438 C 103.847656 187.75 108.828125 193.226562 115.300781 193.226562 L 335.882812 193.226562 L 291.566406 236.546875 C 287.085938 241.027344 287.085938 247.5 291.566406 251.980469 C 296.046875 256.460938 303.019531 255.964844 307.5 251.484375 L 371.234375 187.75 C 371.730469 187.25 372.230469 186.753906 372.230469 185.757812 C 372.726562 185.257812 373.226562 184.761719 373.226562 183.765625 C 374.222656 181.773438 374.222656 180.28125 374.222656 178.785156 Z M 374.222656 178.785156 " fill-opacity="1" fill-rule="nonzero"/><g clip-path="url(#9a315c965f)"><path fill="#ffffff" d="M 225.839844 257.457031 L 225.839844 345.09375 L 23.183594 345.09375 L 23.183594 29.90625 L 225.839844 29.90625 L 225.839844 112.0625 L 248.246094 112.0625 L 248.246094 29.90625 C 248.246094 17.457031 238.785156 7.5 227.335938 7.5 L 21.691406 7.5 C 10.238281 7.5 0.777344 17.457031 0.777344 29.90625 L 0.777344 345.09375 C 0.777344 357.542969 10.238281 367.5 21.691406 367.5 L 227.335938 367.5 C 238.785156 367.5 248.246094 357.542969 248.246094 345.09375 L 248.246094 257.457031 Z M 225.839844 257.457031 " fill-opacity="1" fill-rule="nonzero"/></g></svg>