<svg xmlns="http://www.w3.org/2000/svg" xmlns:xlink="http://www.w3.org/1999/xlink" width="500" zoomAndPan="magnify" viewBox="0 0 375 374.999991" height="500" preserveAspectRatio="xMidYMid meet" version="1.0"><defs><filter x="0%" y="0%" width="100%" height="100%" id="84df0a8a0f"><feColorMatrix values="0 0 0 0 1 0 0 0 0 1 0 0 0 0 1 0 0 0 1 0" color-interpolation-filters="sRGB"/></filter><mask id="00dafc6d86"><g filter="url(#84df0a8a0f)"><rect x="-37.5" width="450" fill="#000000" y="-37.499999" height="449.999989" fill-opacity="0.25"/></g></mask><clipPath id="90f5bfd886"><path d="M 0.46875 0.46875 L 312.53125 0.46875 L 312.53125 312.53125 L 0.46875 312.53125 Z M 0.46875 0.46875 " clip-rule="nonzero"/></clipPath><clipPath id="1fabeda8d8"><path d="M 156.5 0.46875 C 70.328125 0.46875 0.46875 70.328125 0.46875 156.5 C 0.46875 242.671875 70.328125 312.53125 156.5 312.53125 C 242.671875 312.53125 312.53125 242.671875 312.53125 156.5 C 312.53125 70.328125 242.671875 0.46875 156.5 0.46875 Z M 156.5 0.46875 " clip-rule="nonzero"/></clipPath><clipPath id="630fc42d62"><rect x="0" width="313" y="0" height="313"/></clipPath><clipPath id="076af404c2"><path d="M 89.28125 223.425781 L 206 223.425781 L 206 297 L 89.28125 297 Z M 89.28125 223.425781 " clip-rule="nonzero"/></clipPath><clipPath id="288c9e513b"><path d="M 205.65625 247.574219 L 280.738281 247.574219 L 280.738281 297 L 205.65625 297 Z M 205.65625 247.574219 " clip-rule="nonzero"/></clipPath><clipPath id="f126a50d46"><path d="M 160 78 L 281 78 L 281 148 L 160 148 Z M 160 78 " clip-rule="nonzero"/></clipPath><clipPath id="33cad958d8"><path d="M 89 78 L 168 78 L 168 124 L 89 124 Z M 89 78 " clip-rule="nonzero"/></clipPath><clipPath id="a891339095"><path d="M 66.671875 131 L 99 131 L 99 169 L 66.671875 169 Z M 66.671875 131 " clip-rule="nonzero"/></clipPath><clipPath id="e9a8e2744b"><path d="M 66.671875 164 L 171 164 L 171 230 L 66.671875 230 Z M 66.671875 164 " clip-rule="nonzero"/></clipPath><clipPath id="52d5190a51"><path d="M 66.671875 131 L 203 131 L 203 225 L 66.671875 225 Z M 66.671875 131 " clip-rule="nonzero"/></clipPath><clipPath id="647a90c3f7"><path d="M 66.671875 131 L 104 131 L 104 168 L 66.671875 168 Z M 66.671875 131 " clip-rule="nonzero"/></clipPath><clipPath id="1b9456fbb4"><path d="M 276 152 L 308.171875 152 L 308.171875 191 L 276 191 Z M 276 152 " clip-rule="nonzero"/></clipPath><clipPath id="cd401d23ca"><path d="M 240 185 L 308.171875 185 L 308.171875 230 L 240 230 Z M 240 185 " clip-rule="nonzero"/></clipPath><clipPath id="6e296a14f5"><path d="M 209 152 L 308.171875 152 L 308.171875 225 L 209 225 Z M 209 152 " clip-rule="nonzero"/></clipPath><clipPath id="9641b41376"><path d="M 270 152 L 308.171875 152 L 308.171875 190 L 270 190 Z M 270 152 " clip-rule="nonzero"/></clipPath></defs><g mask="url(#00dafc6d86)"><g transform="matrix(1, 0, 0, 1, 31, 31)"><g clip-path="url(#630fc42d62)"><g clip-path="url(#90f5bfd886)"><g clip-path="url(#1fabeda8d8)"><path fill="#ffcc00" d="M 0.46875 0.46875 L 312.53125 0.46875 L 312.53125 312.53125 L 0.46875 312.53125 Z M 0.46875 0.46875 " fill-opacity="1" fill-rule="nonzero"/></g></g></g></g></g><path fill="#7795a6" d="M 164.15625 87.078125 L 280.304688 154.179688 L 205.933594 197.144531 L 89.785156 130.046875 L 164.15625 87.078125 " fill-opacity="1" fill-rule="nonzero"/><path fill="#a1bccc" d="M 205.839844 290.886719 L 89.683594 223.785156 L 89.683594 133.59375 L 205.839844 200.699219 L 205.839844 290.886719 " fill-opacity="1" fill-rule="nonzero"/><path fill="#435e6e" d="M 205.839844 200.699219 L 89.683594 133.59375 L 89.683594 123.480469 L 205.839844 190.585938 L 205.839844 200.699219 " fill-opacity="1" fill-rule="nonzero"/><path fill="#344650" d="M 205.839844 190.585938 L 89.683594 123.480469 L 89.683594 120.941406 L 205.839844 188.046875 L 205.839844 190.585938 " fill-opacity="1" fill-rule="nonzero"/><path fill="#6a8497" d="M 205.839844 287.308594 L 89.683594 220.203125 L 89.683594 218.273438 L 205.839844 285.378906 L 205.839844 287.308594 " fill-opacity="1" fill-rule="nonzero"/><path fill="#6a8497" d="M 205.839844 280.550781 L 89.683594 213.445312 L 89.683594 211.515625 L 205.839844 278.617188 L 205.839844 280.550781 " fill-opacity="1" fill-rule="nonzero"/><path fill="#6a8497" d="M 205.839844 273.792969 L 89.683594 206.6875 L 89.683594 204.757812 L 205.839844 271.859375 L 205.839844 273.792969 " fill-opacity="1" fill-rule="nonzero"/><path fill="#6a8497" d="M 205.839844 267.035156 L 89.683594 199.929688 L 89.683594 198 L 205.839844 265.101562 L 205.839844 267.035156 " fill-opacity="1" fill-rule="nonzero"/><path fill="#6a8497" d="M 205.839844 260.273438 L 89.683594 193.171875 L 89.683594 191.238281 L 205.839844 258.34375 L 205.839844 260.273438 " fill-opacity="1" fill-rule="nonzero"/><path fill="#6a8497" d="M 205.839844 253.515625 L 89.683594 186.414062 L 89.683594 184.480469 L 205.839844 251.585938 L 205.839844 253.515625 " fill-opacity="1" fill-rule="nonzero"/><path fill="#6a8497" d="M 205.839844 246.757812 L 89.683594 179.652344 L 89.683594 177.722656 L 205.839844 244.824219 L 205.839844 246.757812 " fill-opacity="1" fill-rule="nonzero"/><path fill="#6a8497" d="M 205.839844 240 L 89.683594 172.894531 L 89.683594 170.964844 L 205.839844 238.066406 L 205.839844 240 " fill-opacity="1" fill-rule="nonzero"/><path fill="#6a8497" d="M 205.839844 233.238281 L 89.683594 166.136719 L 89.683594 164.207031 L 205.839844 231.308594 L 205.839844 233.238281 " fill-opacity="1" fill-rule="nonzero"/><path fill="#6a8497" d="M 205.839844 226.480469 L 89.683594 159.378906 L 89.683594 157.449219 L 205.839844 224.550781 L 205.839844 226.480469 " fill-opacity="1" fill-rule="nonzero"/><path fill="#6a8497" d="M 205.839844 219.722656 L 89.683594 152.621094 L 89.683594 150.6875 L 205.839844 217.792969 L 205.839844 219.722656 " fill-opacity="1" fill-rule="nonzero"/><path fill="#6a8497" d="M 205.839844 212.964844 L 89.683594 145.863281 L 89.683594 143.929688 L 205.839844 211.035156 L 205.839844 212.964844 " fill-opacity="1" fill-rule="nonzero"/><path fill="#6a8497" d="M 205.839844 206.207031 L 89.683594 139.101562 L 89.683594 137.171875 L 205.839844 204.277344 L 205.839844 206.207031 " fill-opacity="1" fill-rule="nonzero"/><path fill="#435e6e" d="M 196.890625 258.222656 L 98.632812 201.460938 L 98.632812 164.253906 L 196.890625 221.019531 L 196.890625 258.222656 " fill-opacity="1" fill-rule="nonzero"/><path fill="#7b95a8" d="M 194.332031 222.691406 L 194.332031 253.597656 L 101.199219 199.792969 L 101.199219 168.886719 L 194.332031 222.691406 " fill-opacity="1" fill-rule="nonzero"/><path fill="#526e80" d="M 104.003906 195.964844 L 128.832031 210.277344 L 128.832031 213.574219 L 101.195312 197.59375 L 104.003906 195.964844 " fill-opacity="1" fill-rule="nonzero"/><path fill="#354450" d="M 104.003906 170.503906 L 104.003906 195.964844 L 101.191406 197.59375 L 101.191406 168.875 L 104.003906 170.503906 " fill-opacity="1" fill-rule="nonzero"/><path fill="#354552" d="M 163.761719 205.035156 L 131.757812 186.542969 L 131.757812 217.441406 L 163.761719 235.929688 L 163.761719 205.035156 " fill-opacity="1" fill-rule="nonzero"/><path fill="#7b95a8" d="M 161.074219 206.046875 L 134.449219 190.664062 L 134.449219 218.996094 L 161.074219 234.378906 L 161.074219 206.046875 " fill-opacity="1" fill-rule="nonzero"/><path fill="#2c313a" d="M 137.261719 192.289062 L 137.261719 215.179688 L 134.445312 216.808594 L 134.445312 190.65625 L 137.261719 192.289062 " fill-opacity="1" fill-rule="nonzero"/><path fill="#435e6e" d="M 131.757812 186.542969 L 128.832031 184.851562 L 128.832031 215.753906 L 131.757812 217.441406 L 131.757812 186.542969 " fill-opacity="1" fill-rule="nonzero"/><path fill="#435e6e" d="M 166.6875 206.722656 L 163.761719 205.035156 L 163.761719 235.929688 L 166.6875 237.625 L 166.6875 206.722656 " fill-opacity="1" fill-rule="nonzero"/><path fill="#607a8c" d="M 196.890625 258.222656 L 98.632812 201.460938 L 98.632812 198.304688 L 196.890625 255.070312 L 196.890625 258.222656 " fill-opacity="1" fill-rule="nonzero"/><path fill="#435e6e" d="M 196.890625 255.070312 L 98.632812 198.304688 L 98.632812 196.113281 L 196.890625 252.878906 L 196.890625 255.070312 " fill-opacity="1" fill-rule="nonzero"/><g clip-path="url(#076af404c2)"><path fill="#597688" d="M 205.839844 297 L 89.683594 229.898438 L 89.683594 223.785156 L 205.839844 290.886719 L 205.839844 297 " fill-opacity="1" fill-rule="nonzero"/></g><path fill="#435e6e" d="M 128.832031 198.835938 L 101.195312 182.871094 L 101.195312 181.0625 L 128.832031 197.03125 L 128.832031 198.835938 " fill-opacity="1" fill-rule="nonzero"/><path fill="#435e6e" d="M 194.324219 236.671875 L 166.6875 220.703125 L 166.6875 218.898438 L 194.324219 234.867188 L 194.324219 236.671875 " fill-opacity="1" fill-rule="nonzero"/><path fill="#b8d6e7" d="M 182.398438 236.300781 L 172.765625 230.738281 L 172.765625 215.574219 L 182.398438 221.140625 L 182.398438 236.300781 " fill-opacity="1" fill-rule="nonzero"/><path fill="#435e6e" d="M 180.507812 223.28125 L 174.652344 219.902344 L 174.652344 218.257812 L 180.507812 221.636719 L 180.507812 223.28125 " fill-opacity="1" fill-rule="nonzero"/><path fill="#435e6e" d="M 180.507812 225.902344 L 174.652344 222.523438 L 174.652344 221.699219 L 180.507812 225.082031 L 180.507812 225.902344 " fill-opacity="1" fill-rule="nonzero"/><path fill="#b8d6e7" d="M 192.140625 245.738281 L 184.691406 241.4375 L 184.691406 229.714844 L 192.140625 234.019531 L 192.140625 245.738281 " fill-opacity="1" fill-rule="nonzero"/><path fill="#435e6e" d="M 110.910156 199.371094 L 102.578125 194.558594 L 102.578125 198.390625 L 110.910156 203.207031 L 110.910156 199.371094 " fill-opacity="1" fill-rule="nonzero"/><path fill="#435e6e" d="M 110.910156 194.738281 L 102.578125 189.921875 L 102.578125 193.757812 L 110.910156 198.574219 L 110.910156 194.738281 " fill-opacity="1" fill-rule="nonzero"/><path fill="#435e6e" d="M 110.910156 189.949219 L 102.578125 185.136719 L 102.578125 188.96875 L 110.910156 193.785156 L 110.910156 189.949219 " fill-opacity="1" fill-rule="nonzero"/><path fill="#435e6e" d="M 118.800781 203.929688 L 114.589844 201.496094 L 114.589844 205.332031 L 118.800781 207.765625 L 118.800781 203.929688 " fill-opacity="1" fill-rule="nonzero"/><path fill="#435e6e" d="M 117.367188 198.464844 L 116.027344 197.695312 C 115.234375 197.234375 114.589844 197.722656 114.589844 198.78125 C 114.589844 199.839844 115.234375 201.070312 116.027344 201.527344 L 117.367188 202.300781 C 118.160156 202.757812 118.800781 202.273438 118.800781 201.214844 C 118.800781 200.15625 118.160156 198.925781 117.367188 198.464844 " fill-opacity="1" fill-rule="nonzero"/><path fill="#435e6e" d="M 125.355469 207.714844 L 121.140625 205.28125 L 121.140625 209.117188 L 125.355469 211.550781 L 125.355469 207.714844 " fill-opacity="1" fill-rule="nonzero"/><path fill="#435e6e" d="M 123.917969 202.25 L 122.578125 201.480469 C 121.785156 201.019531 121.140625 201.507812 121.140625 202.566406 C 121.140625 203.625 121.785156 204.855469 122.578125 205.3125 L 123.917969 206.085938 C 124.710938 206.542969 125.355469 206.058594 125.355469 205 C 125.355469 203.941406 124.710938 202.710938 123.917969 202.25 " fill-opacity="1" fill-rule="nonzero"/><path fill="#435e6e" d="M 108.609375 182.75 C 108.609375 184.210938 107.582031 184.804688 106.316406 184.074219 C 105.046875 183.339844 104.023438 181.5625 104.023438 180.101562 C 104.023438 178.636719 105.046875 178.042969 106.316406 178.777344 C 107.582031 179.507812 108.609375 181.289062 108.609375 182.75 " fill-opacity="1" fill-rule="nonzero"/><path fill="#435e6e" d="M 115.484375 187.53125 C 115.484375 188.546875 114.769531 188.960938 113.890625 188.449219 C 113.011719 187.941406 112.300781 186.707031 112.300781 185.6875 C 112.300781 184.671875 113.011719 184.261719 113.890625 184.769531 C 114.769531 185.277344 115.484375 186.511719 115.484375 187.53125 " fill-opacity="1" fill-rule="nonzero"/><path fill="#435e6e" d="M 121.140625 190.796875 C 121.140625 191.8125 120.429688 192.226562 119.550781 191.71875 C 118.667969 191.210938 117.957031 189.972656 117.957031 188.957031 C 117.957031 187.941406 118.667969 187.53125 119.550781 188.035156 C 120.429688 188.546875 121.140625 189.78125 121.140625 190.796875 " fill-opacity="1" fill-rule="nonzero"/><path fill="#8ba3b1" d="M 128.832031 213.558594 L 128.832031 210.277344 L 126.578125 208.976562 L 128.832031 207.675781 L 128.832031 213.558594 M 156.019531 200.558594 L 148.585938 196.265625 L 148.589844 196.265625 L 156.019531 200.558594 " fill-opacity="1" fill-rule="nonzero"/><path fill="#687e8d" d="M 128.832031 213.558594 L 125.355469 211.550781 L 125.355469 209.6875 L 126.578125 208.976562 L 128.832031 210.277344 L 128.832031 213.558594 " fill-opacity="1" fill-rule="nonzero"/><path fill="#465863" d="M 131.757812 214.5625 L 131.757812 205.984375 L 134.445312 204.433594 L 134.445312 213.007812 L 131.757812 214.5625 M 153.796875 201.839844 L 146.363281 197.546875 L 148.585938 196.265625 L 156.019531 200.558594 L 153.796875 201.839844 " fill-opacity="1" fill-rule="nonzero"/><path fill="#8ba3b1" d="M 137.261719 211.386719 L 137.261719 202.808594 L 146.363281 197.546875 L 153.796875 201.839844 L 137.261719 211.386719 " fill-opacity="1" fill-rule="nonzero"/><path fill="#3c454c" d="M 134.445312 213.007812 L 134.445312 204.433594 L 137.261719 202.808594 L 137.261719 211.386719 L 134.445312 213.007812 " fill-opacity="1" fill-rule="nonzero"/><path fill="#596f7c" d="M 131.160156 214.90625 L 128.832031 213.558594 L 128.832031 207.675781 L 131.757812 205.984375 L 131.757812 214.5625 L 131.160156 214.90625 " fill-opacity="1" fill-rule="nonzero"/><path fill="#758998" d="M 129.257812 216.003906 L 121.835938 211.71875 L 121.84375 211.714844 L 129.265625 216 L 129.257812 216.003906 " fill-opacity="1" fill-rule="nonzero"/><path fill="#596f7c" d="M 129.265625 216 L 121.84375 211.714844 L 123.742188 210.617188 L 125.355469 211.550781 L 128.832031 213.558594 L 131.160156 214.90625 L 129.265625 216 " fill-opacity="1" fill-rule="nonzero"/><path fill="#596f7c" d="M 125.355469 211.550781 L 123.742188 210.617188 L 125.355469 209.6875 L 125.355469 211.550781 " fill-opacity="1" fill-rule="nonzero"/><path fill="#8ba3b1" d="M 166.6875 224.566406 L 166.6875 210.644531 L 170.082031 208.683594 L 182.128906 215.640625 L 177.503906 218.316406 L 172.765625 215.574219 L 172.765625 221.054688 L 171.589844 221.730469 L 166.6875 218.898438 L 166.6875 220.703125 L 170.03125 222.636719 L 166.6875 224.566406 " fill-opacity="1" fill-rule="nonzero"/><path fill="#465863" d="M 161.074219 227.816406 L 161.074219 213.882812 L 163.761719 212.332031 L 163.761719 226.257812 L 161.074219 227.816406 " fill-opacity="1" fill-rule="nonzero"/><path fill="#8ba3b1" d="M 157.292969 230 L 145.226562 223.03125 L 161.074219 213.882812 L 161.074219 227.816406 L 157.292969 230 " fill-opacity="1" fill-rule="nonzero"/><path fill="#596f7c" d="M 163.761719 226.257812 L 163.761719 212.332031 L 166.6875 210.644531 L 166.6875 224.566406 L 163.761719 226.257812 " fill-opacity="1" fill-rule="nonzero"/><path fill="#758998" d="M 155.390625 231.101562 L 143.324219 224.128906 L 143.328125 224.125 L 155.394531 231.097656 L 155.390625 231.101562 " fill-opacity="1" fill-rule="nonzero"/><path fill="#596f7c" d="M 155.394531 231.097656 L 143.328125 224.125 L 145.226562 223.03125 L 157.292969 230 L 155.394531 231.097656 " fill-opacity="1" fill-rule="nonzero"/><path fill="#596f7c" d="M 170.03125 222.636719 L 166.6875 220.703125 L 166.6875 218.898438 L 171.589844 221.730469 L 170.03125 222.636719 " fill-opacity="1" fill-rule="nonzero"/><path fill="#bfdae9" d="M 172.765625 221.054688 L 172.765625 215.574219 L 177.503906 218.316406 L 176.128906 219.109375 L 174.652344 218.257812 L 174.652344 219.902344 L 174.707031 219.929688 L 172.765625 221.054688 " fill-opacity="1" fill-rule="nonzero"/><path fill="#596f7c" d="M 174.707031 219.929688 L 174.652344 219.902344 L 174.652344 218.257812 L 176.128906 219.109375 L 174.707031 219.929688 " fill-opacity="1" fill-rule="nonzero"/><path fill="#435e6e" d="M 196.890625 260.070312 L 98.632812 203.304688 L 98.632812 201.460938 L 196.890625 258.222656 L 196.890625 260.070312 " fill-opacity="1" fill-rule="nonzero"/><path fill="#809bab" d="M 280.210938 247.921875 L 205.839844 290.886719 L 205.839844 200.699219 L 280.210938 157.730469 L 280.210938 247.921875 " fill-opacity="1" fill-rule="nonzero"/><path fill="#33444e" d="M 280.210938 157.730469 L 205.839844 200.699219 L 205.839844 190.585938 L 280.210938 147.621094 L 280.210938 157.730469 " fill-opacity="1" fill-rule="nonzero"/><path fill="#282c31" d="M 280.210938 147.621094 L 205.839844 190.585938 L 205.839844 188.046875 L 280.210938 145.082031 L 280.210938 147.621094 " fill-opacity="1" fill-rule="nonzero"/><path fill="#4c6575" d="M 280.210938 244.339844 L 205.839844 287.308594 L 205.839844 285.378906 L 280.210938 242.410156 L 280.210938 244.339844 " fill-opacity="1" fill-rule="nonzero"/><path fill="#4c6575" d="M 280.210938 237.582031 L 205.839844 280.550781 L 205.839844 278.617188 L 280.210938 235.652344 L 280.210938 237.582031 " fill-opacity="1" fill-rule="nonzero"/><path fill="#4c6575" d="M 280.210938 230.824219 L 205.839844 273.792969 L 205.839844 271.859375 L 280.210938 228.894531 L 280.210938 230.824219 " fill-opacity="1" fill-rule="nonzero"/><path fill="#4c6575" d="M 280.210938 224.066406 L 205.839844 267.035156 L 205.839844 265.101562 L 280.210938 222.136719 L 280.210938 224.066406 " fill-opacity="1" fill-rule="nonzero"/><path fill="#4c6575" d="M 280.210938 217.308594 L 205.839844 260.273438 L 205.839844 258.34375 L 280.210938 215.378906 L 280.210938 217.308594 " fill-opacity="1" fill-rule="nonzero"/><path fill="#4c6575" d="M 280.210938 210.550781 L 205.839844 253.515625 L 205.839844 251.585938 L 280.210938 208.621094 L 280.210938 210.550781 " fill-opacity="1" fill-rule="nonzero"/><path fill="#4c6575" d="M 280.210938 203.792969 L 205.839844 246.757812 L 205.839844 244.824219 L 280.210938 201.863281 L 280.210938 203.792969 " fill-opacity="1" fill-rule="nonzero"/><path fill="#4c6575" d="M 280.210938 197.035156 L 205.839844 240 L 205.839844 238.066406 L 280.210938 195.101562 L 280.210938 197.035156 " fill-opacity="1" fill-rule="nonzero"/><path fill="#4c6575" d="M 280.210938 190.277344 L 205.839844 233.238281 L 205.839844 231.308594 L 280.210938 188.34375 L 280.210938 190.277344 " fill-opacity="1" fill-rule="nonzero"/><path fill="#4c6575" d="M 280.210938 183.519531 L 205.839844 226.480469 L 205.839844 224.550781 L 280.210938 181.585938 L 280.210938 183.519531 " fill-opacity="1" fill-rule="nonzero"/><path fill="#4c6575" d="M 280.210938 176.757812 L 205.839844 219.722656 L 205.839844 217.792969 L 280.210938 174.828125 L 280.210938 176.757812 " fill-opacity="1" fill-rule="nonzero"/><path fill="#4c6575" d="M 280.210938 170 L 205.839844 212.964844 L 205.839844 211.035156 L 280.210938 168.070312 L 280.210938 170 " fill-opacity="1" fill-rule="nonzero"/><path fill="#4c6575" d="M 280.210938 163.242188 L 205.839844 206.207031 L 205.839844 204.277344 L 280.210938 161.3125 L 280.210938 163.242188 " fill-opacity="1" fill-rule="nonzero"/><g clip-path="url(#288c9e513b)"><path fill="#3e5866" d="M 280.210938 254.035156 L 205.839844 297 L 205.839844 290.886719 L 280.210938 247.921875 L 280.210938 254.035156 " fill-opacity="1" fill-rule="nonzero"/></g><path fill="#445c6b" d="M 280.210938 211.261719 L 205.839844 254.226562 L 205.839844 251.074219 L 280.210938 208.109375 L 280.210938 211.261719 " fill-opacity="1" fill-rule="nonzero"/><path fill="#33444e" d="M 280.210938 213.109375 L 205.839844 256.074219 L 205.839844 254.226562 L 280.210938 211.261719 L 280.210938 213.109375 " fill-opacity="1" fill-rule="nonzero"/><path fill="#607e90" d="M 209.402344 185.992188 L 93.25 118.886719 L 89.683594 120.949219 L 205.839844 188.050781 L 209.402344 185.992188 " fill-opacity="1" fill-rule="nonzero"/><g clip-path="url(#f126a50d46)"><path fill="#607e90" d="M 280.210938 145.101562 L 164.054688 77.996094 L 160.488281 80.058594 L 276.640625 147.164062 L 280.210938 145.101562 " fill-opacity="1" fill-rule="nonzero"/></g><path fill="#607e90" d="M 202.269531 185.96875 L 276.640625 143.023438 L 280.210938 145.082031 L 205.839844 188.027344 L 202.269531 185.96875 " fill-opacity="1" fill-rule="nonzero"/><g clip-path="url(#33cad958d8)"><path fill="#607e90" d="M 89.683594 120.945312 L 164.054688 77.996094 L 167.621094 80.058594 L 93.25 123.007812 L 89.683594 120.945312 " fill-opacity="1" fill-rule="nonzero"/></g><path fill="#b1cfdf" d="M 189.8125 270.296875 L 85.734375 210.167969 L 98.058594 203.046875 L 202.136719 263.175781 L 189.8125 270.296875 " fill-opacity="1" fill-rule="nonzero"/><path fill="#c9e7f8" d="M 189.847656 267.425781 L 90.699219 210.144531 L 98.019531 205.914062 L 197.171875 263.195312 L 189.847656 267.425781 " fill-opacity="1" fill-rule="nonzero"/><path fill="#95b0bf" d="M 189.8125 273.453125 L 189.8125 270.300781 L 202.136719 263.179688 L 202.136719 266.332031 L 189.8125 273.453125 " fill-opacity="1" fill-rule="nonzero"/><path fill="#87a2b3" d="M 189.8125 270.300781 L 189.8125 273.453125 L 85.734375 213.328125 L 85.734375 210.171875 L 189.8125 270.300781 " fill-opacity="1" fill-rule="nonzero"/><path fill="#526e80" d="M 137.261719 206.015625 L 161.074219 219.722656 L 161.074219 223.019531 L 134.445312 207.644531 L 137.261719 206.015625 " fill-opacity="1" fill-rule="nonzero"/><path fill="#526e80" d="M 169.507812 224.636719 L 194.332031 238.949219 L 194.332031 242.246094 L 166.691406 226.265625 L 169.507812 224.636719 " fill-opacity="1" fill-rule="nonzero"/><path fill="#354450" d="M 169.503906 199.175781 L 169.503906 224.640625 L 166.6875 226.265625 L 166.6875 197.546875 L 169.503906 199.175781 " fill-opacity="1" fill-rule="nonzero"/><path fill="#ea2823" d="M 202.136719 196.207031 L 170.832031 229.0625 L 170.832031 224.515625 L 202.136719 191.660156 L 202.136719 196.207031 " fill-opacity="1" fill-rule="nonzero"/><g clip-path="url(#a891339095)"><path fill="#d01f27" d="M 98.058594 136.074219 L 66.757812 168.929688 L 66.757812 164.386719 L 98.058594 131.527344 L 98.058594 136.074219 " fill-opacity="1" fill-rule="nonzero"/></g><g clip-path="url(#e9a8e2744b)"><path fill="#d01f27" d="M 66.757812 168.933594 L 170.832031 229.0625 L 170.832031 224.515625 L 66.757812 164.390625 L 66.757812 168.933594 " fill-opacity="1" fill-rule="nonzero"/></g><g clip-path="url(#52d5190a51)"><path fill="#f04134" d="M 202.136719 191.664062 L 170.832031 224.511719 L 164.984375 221.136719 L 72.628906 167.777344 L 66.757812 164.390625 L 98.0625 131.527344 L 103.933594 134.925781 L 196.289062 188.289062 L 202.136719 191.664062 " fill-opacity="1" fill-rule="nonzero"/></g><g clip-path="url(#647a90c3f7)"><path fill="#f79389" d="M 103.933594 134.925781 L 72.628906 167.777344 L 66.757812 164.390625 L 98.0625 131.527344 L 103.933594 134.925781 " fill-opacity="1" fill-rule="nonzero"/></g><path fill="#f79389" d="M 116.210938 142.019531 L 84.902344 174.867188 L 79.035156 171.484375 L 110.339844 138.621094 L 116.210938 142.019531 " fill-opacity="1" fill-rule="nonzero"/><path fill="#f79389" d="M 128.488281 149.113281 L 97.179688 181.960938 L 91.3125 178.578125 L 122.617188 145.714844 L 128.488281 149.113281 " fill-opacity="1" fill-rule="nonzero"/><path fill="#f79389" d="M 140.761719 156.203125 L 109.453125 189.054688 L 103.589844 185.671875 L 134.898438 152.8125 L 140.761719 156.203125 " fill-opacity="1" fill-rule="nonzero"/><path fill="#f79389" d="M 153.035156 163.296875 L 121.730469 196.144531 L 115.871094 192.765625 L 147.175781 159.90625 L 153.035156 163.296875 " fill-opacity="1" fill-rule="nonzero"/><path fill="#f79389" d="M 165.3125 170.386719 L 134.003906 203.238281 L 128.148438 199.859375 L 159.457031 167 L 165.3125 170.386719 " fill-opacity="1" fill-rule="nonzero"/><path fill="#f79389" d="M 177.585938 177.476562 L 146.28125 210.328125 L 140.425781 206.953125 L 171.734375 174.097656 L 177.585938 177.476562 " fill-opacity="1" fill-rule="nonzero"/><path fill="#f79389" d="M 189.859375 184.570312 L 158.558594 217.421875 L 152.707031 214.042969 L 184.011719 181.191406 L 189.859375 184.570312 " fill-opacity="1" fill-rule="nonzero"/><path fill="#f79389" d="M 202.136719 191.664062 L 170.832031 224.511719 L 164.984375 221.136719 L 196.289062 188.289062 L 202.136719 191.664062 " fill-opacity="1" fill-rule="nonzero"/><path fill="#ea2823" d="M 209.539062 196.207031 L 240.84375 229.0625 L 240.84375 224.515625 L 209.539062 191.660156 L 209.539062 196.207031 " fill-opacity="1" fill-rule="nonzero"/><g clip-path="url(#1b9456fbb4)"><path fill="#d01f27" d="M 276.785156 157.359375 L 308.089844 190.214844 L 308.089844 185.671875 L 276.785156 152.8125 L 276.785156 157.359375 " fill-opacity="1" fill-rule="nonzero"/></g><g clip-path="url(#cd401d23ca)"><path fill="#d01f27" d="M 308.089844 190.21875 L 240.84375 229.0625 L 240.84375 224.515625 L 308.089844 185.675781 L 308.089844 190.21875 " fill-opacity="1" fill-rule="nonzero"/></g><g clip-path="url(#6e296a14f5)"><path fill="#f04134" d="M 209.539062 191.664062 L 240.84375 224.511719 L 246.691406 221.136719 L 302.214844 189.0625 L 308.089844 185.675781 L 276.78125 152.8125 L 270.910156 156.210938 L 215.386719 188.289062 L 209.539062 191.664062 " fill-opacity="1" fill-rule="nonzero"/></g><g clip-path="url(#9641b41376)"><path fill="#f79389" d="M 270.914062 156.203125 L 302.222656 189.054688 L 308.085938 185.671875 L 276.777344 152.8125 L 270.914062 156.203125 " fill-opacity="1" fill-rule="nonzero"/></g><path fill="#f79389" d="M 258.640625 163.296875 L 289.945312 196.144531 L 295.804688 192.765625 L 264.5 159.90625 L 258.640625 163.296875 " fill-opacity="1" fill-rule="nonzero"/><path fill="#f79389" d="M 246.363281 170.386719 L 277.671875 203.238281 L 283.527344 199.859375 L 252.222656 167 L 246.363281 170.386719 " fill-opacity="1" fill-rule="nonzero"/><path fill="#f79389" d="M 234.089844 177.476562 L 265.394531 210.328125 L 271.246094 206.953125 L 239.945312 174.097656 L 234.089844 177.476562 " fill-opacity="1" fill-rule="nonzero"/><path fill="#f79389" d="M 221.8125 184.570312 L 253.121094 217.421875 L 258.96875 214.042969 L 227.664062 181.191406 L 221.8125 184.570312 " fill-opacity="1" fill-rule="nonzero"/><path fill="#f79389" d="M 209.539062 191.664062 L 240.84375 224.511719 L 246.691406 221.136719 L 215.386719 188.289062 L 209.539062 191.664062 " fill-opacity="1" fill-rule="nonzero"/><path fill="#435e6e" d="M 164.054688 82.117188 L 164.054688 87.371094 L 268.679688 147.621094 L 273.058594 145.089844 L 164.054688 82.117188 " fill-opacity="1" fill-rule="nonzero"/><path fill="#435e6e" d="M 164.054688 87.371094 L 101.199219 123.480469 L 96.816406 120.941406 L 164.054688 82.117188 L 164.054688 87.371094 " fill-opacity="1" fill-rule="nonzero"/></svg>