<svg xmlns="http://www.w3.org/2000/svg" xmlns:xlink="http://www.w3.org/1999/xlink" width="500" zoomAndPan="magnify" viewBox="0 0 375 374.999991" height="500" preserveAspectRatio="xMidYMid meet" version="1.0"><path fill="#fefefe" d="M 102.796875 308.269531 L 191.804688 225.289062 C 180.195312 198.964844 191.59375 159.53125 221.914062 129.21875 L 278.078125 73.054688 L 263.320312 58.300781 L 169.535156 145.730469 C 181.140625 172.050781 169.734375 211.480469 139.421875 241.785156 C 118.441406 262.765625 93.085938 274.660156 70.722656 276.1875 Z M 102.796875 308.269531 " fill-opacity="1" fill-rule="nonzero"/><path fill="#ffffff" d="M 227.003906 164.269531 C 230.789062 168.054688 236.925781 168.054688 240.710938 164.269531 L 305.003906 99.976562 L 291.296875 86.277344 L 227.003906 150.570312 C 223.21875 154.347656 223.21875 160.484375 227.003906 164.269531 Z M 227.003906 164.269531 " fill-opacity="1" fill-rule="nonzero"/><path fill="#ffffff" d="M 276.34375 199.910156 C 272.558594 203.699219 272.558594 209.835938 276.34375 213.621094 C 280.128906 217.40625 286.265625 217.40625 290.050781 213.621094 L 354.265625 149.40625 C 353.765625 148.867188 353.3125 148.292969 352.789062 147.765625 L 340.636719 135.617188 Z M 276.34375 199.910156 " fill-opacity="1" fill-rule="nonzero"/><path fill="#ffffff" d="M 50.964844 153.328125 C 81.277344 123.015625 120.699219 111.609375 147.019531 123.214844 L 234.449219 29.429688 L 226.9375 21.917969 C 205.011719 -0.0117188 169.464844 -0.0117188 147.542969 21.917969 L 21.6875 147.765625 C 1.636719 167.816406 -0.015625 199.21875 16.597656 221.21875 C 18.359375 199.054688 30.238281 174.054688 50.964844 153.328125 Z M 50.964844 153.328125 " fill-opacity="1" fill-rule="nonzero"/><path fill="#ffffff" d="M 265.695312 189.261719 L 329.988281 124.96875 L 316.28125 111.261719 L 251.988281 175.554688 C 248.199219 179.339844 248.199219 185.476562 251.988281 189.261719 C 255.773438 193.046875 261.910156 193.046875 265.695312 189.261719 Z M 265.695312 189.261719 " fill-opacity="1" fill-rule="nonzero"/><path fill="#ffffff" d="M 310.375 217.675781 C 280.058594 247.996094 240.628906 259.394531 214.308594 247.78125 L 131.324219 336.792969 L 147.542969 353.011719 C 169.472656 374.9375 205.019531 374.9375 226.9375 353.011719 L 352.789062 227.160156 C 369.875 210.074219 373.578125 184.75 364.042969 164.007812 Z M 310.375 217.675781 " fill-opacity="1" fill-rule="nonzero"/></svg>