<svg xmlns="http://www.w3.org/2000/svg" xmlns:xlink="http://www.w3.org/1999/xlink" width="299" zoomAndPan="magnify" viewBox="0 0 224.25 374.999989" height="500" preserveAspectRatio="xMidYMid meet" version="1.0"><defs><clipPath id="a5d2bf16d2"><path d="M 0 149.71875 L 204.039062 149.71875 L 204.039062 353.757812 L 0 353.757812 Z M 0 149.71875 " clip-rule="nonzero"/></clipPath><clipPath id="0d46ada8e0"><path d="M 102.019531 149.71875 C 45.675781 149.71875 0 195.394531 0 251.738281 C 0 308.082031 45.675781 353.757812 102.019531 353.757812 C 158.363281 353.757812 204.039062 308.082031 204.039062 251.738281 C 204.039062 195.394531 158.363281 149.71875 102.019531 149.71875 Z M 102.019531 149.71875 " clip-rule="nonzero"/></clipPath><clipPath id="b46e8d2597"><path d="M 86 317 L 169 317 L 169 374.375 L 86 374.375 Z M 86 317 " clip-rule="nonzero"/></clipPath><clipPath id="1b947f78df"><path d="M 13.152344 136 L 70 136 L 70 189 L 13.152344 189 Z M 13.152344 136 " clip-rule="nonzero"/></clipPath><clipPath id="c69e49ec44"><path d="M 13.152344 149 L 21 149 L 21 161 L 13.152344 161 Z M 13.152344 149 " clip-rule="nonzero"/></clipPath><clipPath id="f4cfe11efb"><path d="M 92 0.625 L 113 0.625 L 113 45 L 92 45 Z M 92 0.625 " clip-rule="nonzero"/></clipPath><clipPath id="4615326968"><path d="M 189 60 L 223.199219 60 L 223.199219 78 L 189 78 Z M 189 60 " clip-rule="nonzero"/></clipPath></defs><g clip-path="url(#a5d2bf16d2)"><g clip-path="url(#0d46ada8e0)"><path fill="#627526" d="M 0 149.71875 L 204.039062 149.71875 L 204.039062 353.757812 L 0 353.757812 Z M 0 149.71875 " fill-opacity="1" fill-rule="nonzero"/></g></g><path fill="#e37748" d="M 201.828125 262 C 202.148438 257.644531 198.875 253.855469 194.523438 253.53125 C 190.167969 253.210938 186.378906 256.484375 186.0625 260.84375 C 185.742188 265.199219 189.011719 268.992188 193.367188 269.3125 C 197.71875 269.632812 201.507812 266.355469 201.828125 262 " fill-opacity="1" fill-rule="nonzero"/><path fill="#e37748" d="M 178.710938 203.324219 L 195.988281 201.964844 L 201.96875 263.144531 L 186.539062 263.597656 L 178.710938 203.324219 " fill-opacity="1" fill-rule="nonzero"/><path fill="#d5d2d9" d="M 192.8125 188.125 C 194.5625 193.820312 190.265625 200.195312 183.214844 202.363281 C 176.164062 204.53125 169.03125 201.675781 167.285156 195.980469 C 165.535156 190.285156 169.832031 183.910156 176.882812 181.746094 C 183.933594 179.574219 191.066406 182.433594 192.8125 188.125 " fill-opacity="1" fill-rule="nonzero"/><path fill="#d5d2d9" d="M 192.8125 188.125 L 167.285156 195.980469 L 185.425781 255.074219 L 210.957031 247.222656 L 192.8125 188.125 " fill-opacity="1" fill-rule="nonzero"/><path fill="#e37748" d="M 75.050781 233.15625 L 71.519531 276.023438 L 48.207031 275.960938 L 51.328125 228.46875 L 75.050781 233.15625 " fill-opacity="1" fill-rule="nonzero"/><path fill="#f3ac71" d="M 46.761719 275.046875 C 46.542969 280.566406 51.910156 285.261719 58.746094 285.53125 C 65.582031 285.804688 71.300781 281.542969 71.519531 276.023438 C 71.738281 270.5 66.371094 265.804688 59.535156 265.535156 C 52.699219 265.265625 46.980469 269.523438 46.761719 275.046875 " fill-opacity="1" fill-rule="nonzero"/><path fill="#d5d2d9" d="M 55.582031 190.191406 C 55.367188 195.714844 60.730469 200.410156 67.566406 200.683594 C 74.402344 200.949219 80.125 196.695312 80.34375 191.171875 C 80.558594 185.648438 75.195312 180.953125 68.359375 180.683594 C 61.523438 180.414062 55.800781 184.671875 55.582031 190.191406 " fill-opacity="1" fill-rule="nonzero"/><path fill="#d5d2d9" d="M 55.582031 190.191406 L 80.34375 191.171875 L 78.5 237.839844 L 53.742188 236.859375 L 55.582031 190.191406 " fill-opacity="1" fill-rule="nonzero"/><g clip-path="url(#b46e8d2597)"><path fill="#212d5a" d="M 165.90625 317.484375 L 89.539062 317.484375 C 88.101562 317.484375 86.925781 318.660156 86.925781 320.101562 L 86.925781 333.230469 C 86.925781 335.859375 87.1875 338.429688 87.667969 340.925781 L 87.851562 374.375 L 125.125 374.375 L 125.152344 373.972656 C 126 374.027344 126.859375 374.0625 127.722656 374.0625 C 128.640625 374.0625 129.546875 374.019531 130.449219 373.964844 L 130.476562 374.375 L 167.75 374.375 L 167.941406 340.035156 C 168.316406 337.820312 168.519531 335.550781 168.519531 333.230469 L 168.519531 320.101562 C 168.519531 318.660156 167.347656 317.484375 165.90625 317.484375 " fill-opacity="1" fill-rule="nonzero"/></g><path fill="#f3ac71" d="M 141.792969 183.609375 L 114.535156 183.609375 L 114.535156 140.792969 L 141.792969 140.792969 L 141.792969 183.609375 " fill-opacity="1" fill-rule="nonzero"/><path fill="#d6562b" d="M 141.792969 140.792969 L 118.457031 140.792969 C 117.433594 141.472656 116.429688 142.226562 115.433594 143.050781 C 115.128906 143.304688 114.832031 143.566406 114.535156 143.824219 L 114.535156 170.261719 C 114.6875 170.292969 114.839844 170.324219 114.992188 170.351562 C 119.257812 171.136719 123.710938 170.640625 127.988281 169.902344 C 132.75 169.085938 137.601562 167.882812 141.792969 165.890625 L 141.792969 140.792969 " fill-opacity="1" fill-rule="nonzero"/><path fill="#f5f3f7" d="M 186.644531 179.589844 L 150.644531 168.453125 L 132.539062 182.414062 L 126.585938 183.261719 L 120.628906 182.414062 L 102.527344 168.453125 L 66.523438 179.589844 L 82.234375 298.179688 C 82.234375 298.179688 75.6875 311.613281 81.582031 322.421875 C 81.582031 322.421875 90.507812 327.167969 120.203125 325.578125 L 120.203125 325.699219 L 121.769531 325.492188 C 123.316406 325.398438 124.925781 325.289062 126.585938 325.160156 C 128.246094 325.289062 129.847656 325.398438 131.402344 325.492188 L 132.96875 325.699219 L 132.96875 325.578125 C 162.664062 327.167969 171.589844 322.421875 171.589844 322.421875 C 177.484375 311.613281 170.933594 298.179688 170.933594 298.179688 L 186.644531 179.589844 " fill-opacity="1" fill-rule="nonzero"/><path fill="#736863" d="M 163.117188 95.835938 C 163.117188 116.09375 147.015625 132.519531 127.15625 132.519531 C 107.296875 132.519531 91.195312 116.09375 91.195312 95.835938 C 91.195312 75.574219 107.296875 59.152344 127.15625 59.152344 C 147.015625 59.152344 163.117188 75.574219 163.117188 95.835938 " fill-opacity="1" fill-rule="nonzero"/><path fill="#f3ac71" d="M 155.695312 91.925781 C 155.167969 76.328125 142.375 63.847656 126.664062 63.847656 C 110.953125 63.847656 98.15625 76.328125 97.632812 91.925781 L 97.613281 91.925781 L 97.613281 127.46875 L 97.714844 127.46875 C 98.941406 142.398438 111.433594 154.128906 126.664062 154.128906 C 141.894531 154.128906 154.382812 142.398438 155.613281 127.46875 L 155.714844 127.46875 L 155.714844 91.925781 L 155.695312 91.925781 " fill-opacity="1" fill-rule="nonzero"/><path fill="#f3ac71" d="M 162.722656 111.152344 C 159.027344 104.601562 153.316406 112.945312 153.316406 112.945312 L 151.46875 128.320312 C 161.207031 126.160156 166.414062 117.707031 162.722656 111.152344 " fill-opacity="1" fill-rule="nonzero"/><path fill="#e37748" d="M 153.820312 116.449219 C 153.820312 116.449219 156.675781 111.238281 159.363281 112.835938 C 162.046875 114.429688 161.460938 122.667969 153.234375 124.347656 L 153.820312 116.449219 " fill-opacity="1" fill-rule="nonzero"/><path fill="#f3ac71" d="M 89.527344 111.152344 C 93.222656 104.601562 98.933594 112.945312 98.933594 112.945312 L 100.78125 128.320312 C 91.039062 126.160156 85.832031 117.707031 89.527344 111.152344 " fill-opacity="1" fill-rule="nonzero"/><path fill="#e37748" d="M 98.429688 116.449219 C 98.429688 116.449219 95.574219 111.238281 92.886719 112.835938 C 90.199219 114.429688 90.789062 122.667969 99.015625 124.347656 L 98.429688 116.449219 " fill-opacity="1" fill-rule="nonzero"/><path fill="#35333f" d="M 135.679688 112.300781 C 135.679688 113.878906 136.761719 115.160156 138.097656 115.160156 C 139.433594 115.160156 140.515625 113.878906 140.515625 112.300781 C 140.515625 110.722656 139.433594 109.445312 138.097656 109.445312 C 136.761719 109.445312 135.679688 110.722656 135.679688 112.300781 " fill-opacity="1" fill-rule="nonzero"/><path fill="#35333f" d="M 115.183594 112.285156 C 115.183594 113.855469 114.101562 115.132812 112.765625 115.132812 C 111.433594 115.132812 110.351562 113.855469 110.351562 112.285156 C 110.351562 110.710938 111.433594 109.441406 112.765625 109.441406 C 114.101562 109.441406 115.183594 110.710938 115.183594 112.285156 " fill-opacity="1" fill-rule="nonzero"/><path fill="#442a2d" d="M 104.980469 99.152344 C 106.144531 96.648438 109.046875 95.019531 111.980469 95.105469 C 113.429688 95.203125 114.859375 95.585938 116.054688 96.332031 C 116.667969 96.65625 117.179688 97.148438 117.714844 97.566406 C 118.1875 98.070312 118.632812 98.585938 119.011719 99.152344 C 118.332031 98.964844 117.738281 98.703125 117.144531 98.476562 C 116.519531 98.296875 115.953125 98.039062 115.363281 97.886719 C 114.195312 97.539062 113.046875 97.339844 111.914062 97.289062 C 110.773438 97.222656 109.644531 97.417969 108.492188 97.71875 C 107.339844 98.042969 106.195312 98.53125 104.980469 99.152344 " fill-opacity="1" fill-rule="nonzero"/><path fill="#442a2d" d="M 131.175781 99.289062 C 132.339844 96.785156 135.238281 95.15625 138.171875 95.246094 C 139.625 95.335938 141.050781 95.726562 142.246094 96.464844 C 142.863281 96.792969 143.371094 97.285156 143.90625 97.707031 C 144.378906 98.207031 144.824219 98.726562 145.203125 99.289062 C 144.527344 99.105469 143.933594 98.839844 143.332031 98.609375 C 142.714844 98.433594 142.144531 98.179688 141.554688 98.027344 C 140.386719 97.675781 139.242188 97.476562 138.109375 97.429688 C 136.96875 97.363281 135.835938 97.558594 134.6875 97.855469 C 133.535156 98.179688 132.390625 98.667969 131.175781 99.289062 " fill-opacity="1" fill-rule="nonzero"/><path fill="#442a2d" d="M 150 77.558594 C 145.210938 85.691406 136.75 91.804688 127.210938 94.023438 C 129.753906 91.21875 132.304688 88.417969 134.851562 85.609375 C 126.34375 89.097656 117.5625 91.964844 108.601562 94.1875 C 111.066406 92.371094 112.894531 89.789062 113.734375 86.933594 C 106.628906 89.25 100.097656 93.152344 94.824219 98.238281 C 95.355469 94.945312 95.878906 91.648438 96.402344 88.351562 C 92.851562 90.269531 89.46875 92.472656 86.300781 94.925781 C 88.609375 87.0625 92.632812 79.761719 99.183594 74.46875 C 97.109375 74.605469 95.03125 74.738281 92.957031 74.875 C 100.824219 63.699219 115.378906 57.089844 129.492188 58.285156 C 135.046875 58.757812 140.613281 60.417969 144.9375 63.761719 C 149.261719 67.097656 152.722656 72.941406 150 77.558594 " fill-opacity="1" fill-rule="nonzero"/><path fill="#d6562b" d="M 126.421875 111.570312 C 126.578125 113.191406 126.578125 114.796875 126.535156 116.398438 C 126.488281 117.992188 126.382812 119.585938 126.238281 121.167969 L 126.125 122.355469 L 126 123.539062 L 125.964844 123.832031 L 125.953125 124.09375 C 125.945312 124.265625 125.921875 124.4375 125.941406 124.609375 C 125.960938 124.78125 125.945312 124.957031 125.988281 125.125 L 126.03125 125.382812 C 126.039062 125.425781 126.039062 125.472656 126.050781 125.511719 L 126.089844 125.640625 C 126.4375 127.003906 127.382812 128.289062 128.597656 129.351562 C 128.203125 129.242188 127.828125 129.066406 127.46875 128.863281 C 127.277344 128.765625 127.113281 128.644531 126.933594 128.53125 C 126.769531 128.402344 126.59375 128.28125 126.4375 128.140625 C 125.796875 127.585938 125.25 126.878906 124.898438 126.046875 C 124.726562 125.636719 124.601562 125.195312 124.539062 124.746094 C 124.492188 124.523438 124.492188 124.296875 124.484375 124.070312 L 124.476562 123.730469 L 124.488281 123.425781 C 124.5 123.023438 124.53125 122.621094 124.550781 122.222656 L 124.648438 121.023438 C 124.796875 119.429688 125.011719 117.84375 125.292969 116.265625 C 125.582031 114.691406 125.921875 113.121094 126.421875 111.570312 " fill-opacity="1" fill-rule="nonzero"/><path fill="#572916" d="M 115.445312 134.15625 L 138.703125 134.050781 C 138.703125 134.050781 139.527344 146.066406 127.503906 146.144531 C 115.480469 146.222656 115.445312 134.15625 115.445312 134.15625 " fill-opacity="1" fill-rule="nonzero"/><path fill="#cb4259" d="M 127.21875 137.144531 C 123.429688 137.144531 120.050781 138.925781 117.871094 141.691406 C 119.585938 144.117188 122.511719 146.175781 127.503906 146.144531 C 132.34375 146.113281 135.097656 144.152344 136.664062 141.816406 C 134.492188 138.976562 131.070312 137.144531 127.21875 137.144531 " fill-opacity="1" fill-rule="nonzero"/><path fill="#f3ac71" d="M 154.78125 169.796875 L 141.792969 165.890625 L 128.585938 175.671875 L 125.875 172.507812 L 114.957031 170.609375 L 114.8125 164.371094 L 102.527344 168.453125 C 102.527344 168.453125 98.554688 191.492188 129.039062 191.492188 C 158.5625 191.492188 154.78125 169.796875 154.78125 169.796875 " fill-opacity="1" fill-rule="nonzero"/><path fill="#304684" d="M 113.230469 351.507812 C 113.230469 351.507812 111.847656 303.707031 108.542969 261.492188 L 108.714844 261.554688 L 102.527344 168.453125 C 102.234375 168.453125 101.941406 168.546875 101.648438 168.726562 L 66.523438 179.589844 L 73.941406 239.859375 C 76.195312 241.214844 75.746094 351.507812 75.746094 351.507812 L 113.230469 351.507812 " fill-opacity="1" fill-rule="nonzero"/><path fill="#5e73a4" d="M 102.527344 165.285156 C 102.527344 165.285156 90.101562 173.695312 85.859375 188.242188 C 85.859375 188.242188 94.714844 184.257812 99.230469 187.421875 C 103.746094 190.589844 107.808594 256.582031 107.808594 256.582031 L 111.425781 161.660156 L 102.527344 165.285156 " fill-opacity="1" fill-rule="nonzero"/><path fill="#293f6d" d="M 99.679688 240.664062 L 79.359375 240.664062 L 79.359375 213.640625 L 99.679688 213.640625 L 99.679688 240.664062 " fill-opacity="1" fill-rule="nonzero"/><path fill="#304684" d="M 142.847656 351.507812 C 142.847656 351.507812 144.230469 303.707031 147.539062 261.492188 L 147.363281 261.554688 L 153.550781 168.453125 C 153.84375 168.453125 154.136719 168.546875 154.433594 168.726562 L 189.554688 179.589844 L 182.140625 239.859375 C 179.882812 241.214844 180.332031 351.507812 180.332031 351.507812 L 142.847656 351.507812 " fill-opacity="1" fill-rule="nonzero"/><path fill="#5e73a4" d="M 153.550781 165.285156 C 153.550781 165.285156 165.976562 173.695312 170.21875 188.242188 C 170.21875 188.242188 161.367188 184.257812 156.847656 187.421875 C 152.332031 190.589844 148.265625 256.582031 148.265625 256.582031 L 144.65625 161.660156 L 153.550781 165.285156 " fill-opacity="1" fill-rule="nonzero"/><path fill="#293f6d" d="M 156.398438 240.664062 L 176.722656 240.664062 L 176.722656 213.640625 L 156.398438 213.640625 L 156.398438 240.664062 " fill-opacity="1" fill-rule="nonzero"/><path fill="#f3ac71" d="M 200.054688 262.703125 C 199.675781 257.339844 195.023438 253.296875 189.664062 253.679688 C 184.304688 254.058594 180.269531 258.714844 180.644531 264.078125 C 181.027344 269.441406 185.675781 273.480469 191.035156 273.101562 C 196.398438 272.722656 200.433594 268.066406 200.054688 262.703125 " fill-opacity="1" fill-rule="nonzero"/><path fill="#f3ac71" d="M 162.027344 171.328125 L 177.261719 169.796875 L 199.066406 262.71875 L 180.335938 265.917969 L 162.027344 171.328125 " fill-opacity="1" fill-rule="nonzero"/><path fill="#6d7273" d="M 181.042969 195.609375 L 157.554688 194.71875 C 155.90625 194.65625 154.609375 193.425781 154.664062 191.980469 L 156.578125 141.039062 C 156.632812 139.597656 158.023438 138.464844 159.667969 138.527344 L 183.160156 139.414062 C 183.867188 139.441406 184.511719 139.683594 185.015625 140.070312 C 185.675781 140.582031 186.078125 141.332031 186.050781 142.152344 L 184.132812 193.09375 C 184.074219 194.535156 182.683594 195.667969 181.042969 195.609375 " fill-opacity="1" fill-rule="nonzero"/><path fill="#4e5254" d="M 179.359375 195.683594 L 155.867188 194.796875 C 154.226562 194.734375 152.925781 193.503906 152.976562 192.058594 L 154.894531 141.117188 C 154.953125 139.671875 156.339844 138.542969 157.984375 138.605469 L 181.472656 139.488281 C 182.183594 139.515625 182.832031 139.761719 183.332031 140.148438 C 183.988281 140.65625 184.398438 141.410156 184.363281 142.226562 L 182.449219 193.167969 C 182.394531 194.613281 181.003906 195.742188 179.359375 195.683594 " fill-opacity="1" fill-rule="nonzero"/><path fill="#ffffff" d="M 181.089844 189.453125 L 154.933594 188.46875 L 156.644531 142.96875 L 182.800781 143.953125 L 181.089844 189.453125 " fill-opacity="1" fill-rule="nonzero"/><path fill="#2c2f2f" d="M 170.433594 193.636719 L 164.960938 193.433594 C 164.210938 193.40625 163.621094 192.84375 163.648438 192.1875 L 163.664062 191.691406 C 163.691406 191.03125 164.324219 190.519531 165.070312 190.550781 L 170.542969 190.753906 C 170.855469 190.765625 171.140625 190.871094 171.363281 191.035156 C 171.675781 191.265625 171.871094 191.617188 171.855469 192 L 171.839844 192.496094 C 171.8125 193.152344 171.179688 193.667969 170.433594 193.636719 " fill-opacity="1" fill-rule="nonzero"/><path fill="#f3ac71" d="M 189.046875 168.042969 C 188.054688 167.078125 186.695312 166.851562 186.019531 167.539062 L 178.035156 175.734375 C 177.761719 176.019531 177.640625 176.410156 177.664062 176.84375 C 177.695312 177.472656 178.027344 178.179688 178.613281 178.75 C 179.601562 179.714844 180.964844 179.945312 181.636719 179.253906 L 189.621094 171.058594 C 190.035156 170.636719 190.097656 169.96875 189.859375 169.292969 C 189.707031 168.859375 189.429688 168.421875 189.046875 168.042969 " fill-opacity="1" fill-rule="nonzero"/><path fill="#f3ac71" d="M 189.230469 175.164062 C 188.238281 174.199219 186.988281 173.859375 186.445312 174.414062 L 180.035156 180.992188 C 179.8125 181.21875 179.746094 181.558594 179.808594 181.953125 C 179.902344 182.515625 180.265625 183.1875 180.855469 183.757812 C 181.847656 184.726562 183.097656 185.0625 183.636719 184.507812 L 190.046875 177.933594 C 190.378906 177.589844 190.371094 176.996094 190.089844 176.367188 C 189.90625 175.960938 189.617188 175.542969 189.230469 175.164062 " fill-opacity="1" fill-rule="nonzero"/><path fill="#f3ac71" d="M 188.074219 181.25 C 187.085938 180.28125 185.828125 179.945312 185.289062 180.5 L 178.878906 187.074219 C 178.660156 187.300781 178.589844 187.644531 178.652344 188.035156 C 178.742188 188.601562 179.113281 189.269531 179.695312 189.84375 C 180.6875 190.808594 181.941406 191.148438 182.480469 190.59375 L 188.894531 184.015625 C 189.21875 183.679688 189.214844 183.082031 188.929688 182.449219 C 188.75 182.046875 188.457031 181.625 188.074219 181.25 " fill-opacity="1" fill-rule="nonzero"/><path fill="#f3ac71" d="M 159.382812 173.238281 C 157.894531 171.789062 156.136719 171.152344 155.480469 171.828125 L 147.652344 179.863281 C 147.382812 180.136719 147.332031 180.59375 147.476562 181.132812 C 147.675781 181.914062 148.273438 182.875 149.15625 183.734375 C 150.640625 185.183594 152.398438 185.820312 153.058594 185.140625 L 160.886719 177.109375 C 161.289062 176.691406 161.195312 175.886719 160.722656 174.988281 C 160.417969 174.414062 159.960938 173.804688 159.382812 173.238281 " fill-opacity="1" fill-rule="nonzero"/><path fill="#f3ac71" d="M 186.15625 161.992188 C 185.066406 161.136719 183.621094 161.144531 182.9375 162.007812 L 174.835938 172.289062 C 174.558594 172.644531 174.449219 173.089844 174.492188 173.550781 C 174.550781 174.21875 174.929688 174.917969 175.570312 175.425781 C 176.65625 176.285156 178.105469 176.277344 178.789062 175.410156 L 186.890625 165.125 C 187.308594 164.597656 187.347656 163.867188 187.066406 163.183594 C 186.890625 162.746094 186.582031 162.328125 186.15625 161.992188 " fill-opacity="1" fill-rule="nonzero"/><path fill="#5d865f" d="M 50.351562 180.039062 L 53.605469 127.878906 L 78.683594 129.449219 L 75.425781 181.605469 L 50.351562 180.039062 " fill-opacity="1" fill-rule="nonzero"/><path fill="#7bb679" d="M 52.210938 178.492188 L 55.257812 129.644531 L 76.824219 130.988281 L 73.773438 179.84375 L 52.210938 178.492188 " fill-opacity="1" fill-rule="nonzero"/><path fill="#5d865f" d="M 75.605469 174.359375 C 71.625 174.109375 68.191406 177.140625 67.945312 181.125 C 67.945312 181.128906 67.945312 181.132812 67.945312 181.136719 L 75.425781 181.605469 L 75.875 174.390625 C 75.789062 174.378906 75.695312 174.363281 75.605469 174.359375 " fill-opacity="1" fill-rule="nonzero"/><path fill="#5d865f" d="M 53.449219 135.203125 C 57.429688 135.453125 60.859375 132.421875 61.105469 128.441406 C 61.105469 128.4375 61.105469 128.429688 61.105469 128.425781 L 53.628906 127.960938 L 53.179688 135.175781 C 53.269531 135.183594 53.355469 135.199219 53.449219 135.203125 " fill-opacity="1" fill-rule="nonzero"/><path fill="#5d865f" d="M 78.039062 136.664062 C 74.058594 136.417969 71.03125 132.980469 71.277344 128.996094 C 71.277344 128.996094 71.277344 128.988281 71.277344 128.984375 L 78.761719 129.453125 L 78.308594 136.667969 C 78.21875 136.667969 78.128906 136.671875 78.039062 136.664062 " fill-opacity="1" fill-rule="nonzero"/><path fill="#5d865f" d="M 51.097656 172.824219 C 55.082031 173.074219 58.109375 176.507812 57.859375 180.496094 C 57.859375 180.5 57.855469 180.5 57.855469 180.503906 L 50.378906 180.039062 L 50.828125 172.824219 C 50.917969 172.824219 51.007812 172.820312 51.097656 172.824219 " fill-opacity="1" fill-rule="nonzero"/><path fill="#5d865f" d="M 64.027344 162.359375 C 59.816406 162.097656 56.617188 158.464844 56.878906 154.25 C 57.144531 150.039062 60.769531 146.835938 64.980469 147.097656 C 69.191406 147.363281 72.390625 150.992188 72.128906 155.207031 C 71.867188 159.421875 68.238281 162.621094 64.027344 162.359375 " fill-opacity="1" fill-rule="nonzero"/><path fill="#98bf96" d="M 61.234375 156.957031 C 60.777344 156.453125 60.523438 155.761719 60.476562 154.882812 L 59.25 154.804688 L 59.328125 153.582031 L 60.539062 153.65625 C 60.609375 153.128906 60.722656 152.625 60.886719 152.144531 C 61.050781 151.65625 61.238281 151.226562 61.445312 150.84375 L 63.199219 151.53125 C 62.65625 152.5625 62.363281 153.445312 62.316406 154.179688 C 62.269531 154.933594 62.5 155.324219 63.011719 155.359375 C 63.195312 155.367188 63.339844 155.328125 63.445312 155.238281 C 63.550781 155.152344 63.640625 155.015625 63.714844 154.84375 C 63.792969 154.667969 63.886719 154.390625 64 154.019531 C 64.191406 153.40625 64.382812 152.910156 64.574219 152.542969 C 64.769531 152.171875 65.042969 151.882812 65.390625 151.675781 C 65.738281 151.464844 66.195312 151.378906 66.765625 151.417969 C 67.5625 151.464844 68.179688 151.730469 68.613281 152.210938 C 69.042969 152.691406 69.285156 153.355469 69.34375 154.207031 L 70.34375 154.269531 L 70.269531 155.496094 L 69.304688 155.4375 C 69.203125 156.277344 68.953125 157.046875 68.554688 157.753906 L 66.953125 157.027344 C 67.125 156.722656 67.261719 156.382812 67.371094 156 C 67.476562 155.617188 67.542969 155.265625 67.5625 154.949219 C 67.582031 154.613281 67.546875 154.351562 67.453125 154.15625 C 67.359375 153.964844 67.203125 153.859375 66.976562 153.84375 C 66.808594 153.832031 66.671875 153.882812 66.566406 153.988281 C 66.460938 154.09375 66.367188 154.230469 66.292969 154.402344 C 66.222656 154.578125 66.109375 154.882812 65.957031 155.3125 C 65.730469 155.960938 65.515625 156.460938 65.316406 156.808594 C 65.113281 157.160156 64.851562 157.417969 64.523438 157.589844 C 64.199219 157.761719 63.765625 157.832031 63.222656 157.796875 C 62.355469 157.742188 61.691406 157.464844 61.234375 156.957031 " fill-opacity="1" fill-rule="nonzero"/><path fill="#5d865f" d="M 47.859375 175.445312 L 67.597656 127.0625 L 90.859375 136.574219 L 71.117188 184.953125 L 47.859375 175.445312 " fill-opacity="1" fill-rule="nonzero"/><path fill="#7bb679" d="M 50.113281 174.578125 L 68.597656 129.265625 L 88.605469 137.441406 L 70.117188 182.753906 L 50.113281 174.578125 " fill-opacity="1" fill-rule="nonzero"/><path fill="#5d865f" d="M 73.601562 178.144531 C 69.90625 176.632812 65.691406 178.410156 64.183594 182.105469 C 64.179688 182.109375 64.179688 182.113281 64.179688 182.117188 L 71.117188 184.953125 L 73.847656 178.261719 C 73.765625 178.222656 73.6875 178.179688 73.601562 178.144531 " fill-opacity="1" fill-rule="nonzero"/><path fill="#5d865f" d="M 65.105469 133.957031 C 68.800781 135.46875 73.019531 133.691406 74.527344 129.992188 C 74.53125 129.992188 74.53125 129.988281 74.535156 129.984375 L 67.59375 127.148438 L 64.859375 133.839844 C 64.945312 133.878906 65.023438 133.917969 65.105469 133.957031 " fill-opacity="1" fill-rule="nonzero"/><path fill="#5d865f" d="M 87.945312 143.203125 C 84.25 141.695312 82.476562 137.476562 83.984375 133.777344 C 83.984375 133.773438 83.988281 133.769531 83.992188 133.765625 L 90.929688 136.601562 L 88.199219 143.296875 C 88.113281 143.261719 88.027344 143.242188 87.945312 143.203125 " fill-opacity="1" fill-rule="nonzero"/><path fill="#5d865f" d="M 50.871094 168.851562 C 54.5625 170.363281 56.335938 174.585938 54.828125 178.28125 C 54.824219 178.28125 54.820312 178.289062 54.820312 178.292969 L 47.882812 175.457031 L 50.613281 168.765625 C 50.699219 168.792969 50.785156 168.820312 50.871094 168.851562 " fill-opacity="1" fill-rule="nonzero"/><path fill="#5d865f" d="M 66.460938 163.070312 C 62.558594 161.472656 60.6875 157.007812 62.28125 153.101562 C 63.875 149.195312 68.332031 147.320312 72.238281 148.914062 C 76.144531 150.511719 78.019531 154.976562 76.421875 158.882812 C 74.828125 162.789062 70.367188 164.667969 66.460938 163.070312 " fill-opacity="1" fill-rule="nonzero"/><path fill="#98bf96" d="M 65.539062 157.058594 C 65.265625 156.429688 65.25 155.695312 65.484375 154.851562 L 64.34375 154.386719 L 64.8125 153.246094 L 65.9375 153.707031 C 66.167969 153.230469 66.441406 152.792969 66.746094 152.382812 C 67.058594 151.976562 67.375 151.628906 67.695312 151.332031 L 69.136719 152.546875 C 68.292969 153.351562 67.734375 154.09375 67.453125 154.773438 C 67.167969 155.472656 67.261719 155.917969 67.734375 156.109375 C 67.90625 156.179688 68.058594 156.1875 68.183594 156.136719 C 68.3125 156.089844 68.441406 155.992188 68.570312 155.847656 C 68.691406 155.707031 68.871094 155.476562 69.097656 155.160156 C 69.472656 154.636719 69.8125 154.230469 70.117188 153.945312 C 70.421875 153.65625 70.769531 153.46875 71.164062 153.382812 C 71.5625 153.292969 72.023438 153.359375 72.550781 153.574219 C 73.296875 153.878906 73.792969 154.328125 74.046875 154.921875 C 74.304688 155.511719 74.324219 156.222656 74.101562 157.042969 L 75.03125 157.425781 L 74.566406 158.5625 L 73.671875 158.195312 C 73.308594 158.960938 72.824219 159.613281 72.222656 160.152344 L 70.9375 158.953125 C 71.195312 158.722656 71.433594 158.445312 71.660156 158.113281 C 71.886719 157.785156 72.058594 157.472656 72.175781 157.179688 C 72.304688 156.871094 72.355469 156.605469 72.328125 156.394531 C 72.304688 156.179688 72.1875 156.03125 71.976562 155.945312 C 71.820312 155.878906 71.679688 155.882812 71.542969 155.949219 C 71.40625 156.015625 71.277344 156.121094 71.152344 156.257812 C 71.027344 156.394531 70.820312 156.648438 70.539062 157.007812 C 70.117188 157.554688 69.757812 157.957031 69.453125 158.222656 C 69.152344 158.488281 68.820312 158.652344 68.457031 158.710938 C 68.09375 158.769531 67.660156 158.695312 67.15625 158.492188 C 66.351562 158.160156 65.8125 157.683594 65.539062 157.058594 " fill-opacity="1" fill-rule="nonzero"/><path fill="#5d865f" d="M 51.945312 172.9375 L 85.898438 133.234375 L 104.984375 149.589844 L 71.03125 189.289062 L 51.945312 172.9375 " fill-opacity="1" fill-rule="nonzero"/><path fill="#7bb679" d="M 54.355469 172.824219 L 86.160156 135.640625 L 102.574219 149.703125 L 70.769531 186.886719 L 54.355469 172.824219 " fill-opacity="1" fill-rule="nonzero"/><path fill="#5d865f" d="M 75.53125 183.609375 C 72.5 181.011719 67.941406 181.363281 65.34375 184.398438 C 65.339844 184.402344 65.339844 184.40625 65.335938 184.40625 L 71.03125 189.289062 L 75.730469 183.796875 C 75.660156 183.734375 75.601562 183.667969 75.53125 183.609375 " fill-opacity="1" fill-rule="nonzero"/><path fill="#5d865f" d="M 81.371094 138.992188 C 84.402344 141.589844 88.960938 141.234375 91.554688 138.199219 C 91.558594 138.195312 91.5625 138.191406 91.5625 138.1875 L 85.867188 133.3125 L 81.171875 138.800781 C 81.238281 138.863281 81.296875 138.933594 81.371094 138.992188 " fill-opacity="1" fill-rule="nonzero"/><path fill="#5d865f" d="M 100.132812 154.964844 C 97.101562 152.367188 96.746094 147.800781 99.339844 144.773438 C 99.34375 144.769531 99.347656 144.765625 99.351562 144.757812 L 105.046875 149.636719 L 100.34375 155.132812 C 100.273438 155.074219 100.203125 155.023438 100.132812 154.964844 " fill-opacity="1" fill-rule="nonzero"/><path fill="#5d865f" d="M 56.878906 167.625 C 59.90625 170.222656 60.261719 174.789062 57.667969 177.820312 C 57.664062 177.824219 57.660156 177.828125 57.660156 177.832031 L 51.964844 172.953125 L 56.660156 167.460938 C 56.730469 167.515625 56.804688 167.566406 56.878906 167.625 " fill-opacity="1" fill-rule="nonzero"/><path fill="#5d865f" d="M 73.496094 167.050781 C 70.289062 164.304688 69.917969 159.476562 72.660156 156.273438 C 75.40625 153.0625 80.226562 152.691406 83.429688 155.4375 C 86.632812 158.179688 87.011719 163.007812 84.265625 166.214844 C 81.523438 169.421875 76.703125 169.796875 73.496094 167.050781 " fill-opacity="1" fill-rule="nonzero"/><path fill="#98bf96" d="M 74.511719 161.050781 C 74.449219 160.375 74.664062 159.667969 75.152344 158.941406 L 74.21875 158.140625 L 75.019531 157.207031 L 75.945312 158 C 76.308594 157.621094 76.707031 157.285156 77.128906 157 C 77.550781 156.710938 77.960938 156.476562 78.355469 156.300781 L 79.34375 157.90625 C 78.289062 158.402344 77.527344 158.929688 77.046875 159.488281 C 76.554688 160.0625 76.503906 160.511719 76.894531 160.847656 C 77.03125 160.96875 77.171875 161.023438 77.3125 161.011719 C 77.449219 161.007812 77.601562 160.953125 77.765625 160.855469 C 77.929688 160.761719 78.171875 160.601562 78.484375 160.378906 C 79.007812 159.996094 79.457031 159.71875 79.832031 159.539062 C 80.210938 159.363281 80.605469 159.292969 81.007812 159.339844 C 81.410156 159.382812 81.828125 159.589844 82.261719 159.957031 C 82.871094 160.480469 83.203125 161.0625 83.257812 161.703125 C 83.316406 162.351562 83.109375 163.023438 82.644531 163.738281 L 83.40625 164.394531 L 82.605469 165.328125 L 81.871094 164.699219 C 81.285156 165.308594 80.621094 165.777344 79.882812 166.101562 L 79.039062 164.550781 C 79.355469 164.417969 79.671875 164.226562 79.988281 163.984375 C 80.304688 163.746094 80.566406 163.5 80.773438 163.261719 C 80.992188 163.007812 81.121094 162.773438 81.164062 162.5625 C 81.203125 162.351562 81.144531 162.175781 80.972656 162.023438 C 80.84375 161.917969 80.707031 161.871094 80.554688 161.890625 C 80.40625 161.914062 80.25 161.96875 80.089844 162.0625 C 79.925781 162.15625 79.65625 162.332031 79.269531 162.585938 C 78.699219 162.96875 78.230469 163.234375 77.859375 163.394531 C 77.488281 163.550781 77.125 163.597656 76.761719 163.539062 C 76.398438 163.484375 76.007812 163.277344 75.59375 162.925781 C 74.933594 162.355469 74.574219 161.734375 74.511719 161.050781 " fill-opacity="1" fill-rule="nonzero"/><path fill="#5d865f" d="M 46.277344 184.171875 L 34.503906 133.257812 L 58.984375 127.585938 L 70.757812 178.5 L 46.277344 184.171875 " fill-opacity="1" fill-rule="nonzero"/><path fill="#7bb679" d="M 47.621094 182.160156 L 36.59375 134.472656 L 57.644531 129.59375 L 68.667969 177.285156 L 47.621094 182.160156 " fill-opacity="1" fill-rule="nonzero"/><path fill="#5d865f" d="M 68.859375 171.503906 C 64.972656 172.402344 62.550781 176.289062 63.449219 180.179688 C 63.449219 180.183594 63.453125 180.1875 63.453125 180.195312 L 70.757812 178.5 L 69.125 171.457031 C 69.039062 171.472656 68.949219 171.484375 68.859375 171.503906 " fill-opacity="1" fill-rule="nonzero"/><path fill="#5d865f" d="M 36.445312 140.324219 C 40.332031 139.421875 42.753906 135.539062 41.855469 131.648438 C 41.851562 131.640625 41.851562 131.636719 41.851562 131.636719 L 34.550781 133.324219 L 36.175781 140.371094 C 36.269531 140.351562 36.355469 140.34375 36.445312 140.324219 " fill-opacity="1" fill-rule="nonzero"/><path fill="#5d865f" d="M 60.425781 134.6875 C 56.539062 135.585938 52.660156 133.164062 51.757812 129.273438 C 51.757812 129.269531 51.757812 129.265625 51.753906 129.261719 L 59.058594 127.570312 L 60.6875 134.613281 C 60.601562 134.636719 60.515625 134.667969 60.425781 134.6875 " fill-opacity="1" fill-rule="nonzero"/><path fill="#5d865f" d="M 44.9375 177.046875 C 48.820312 176.144531 52.707031 178.566406 53.601562 182.460938 C 53.601562 182.464844 53.605469 182.46875 53.605469 182.472656 L 46.304688 184.164062 L 44.675781 177.121094 C 44.765625 177.097656 44.847656 177.066406 44.9375 177.046875 " fill-opacity="1" fill-rule="nonzero"/><path fill="#5d865f" d="M 54.339844 163.316406 C 50.230469 164.269531 46.125 161.707031 45.175781 157.59375 C 44.222656 153.480469 46.785156 149.371094 50.894531 148.421875 C 55.003906 147.46875 59.105469 150.03125 60.058594 154.144531 C 61.007812 158.257812 58.449219 162.367188 54.339844 163.316406 " fill-opacity="1" fill-rule="nonzero"/><path fill="#98bf96" d="M 50.117188 158.941406 C 49.53125 158.585938 49.09375 157.996094 48.800781 157.167969 L 47.601562 157.449219 L 47.324219 156.246094 L 48.511719 155.972656 C 48.421875 155.453125 48.390625 154.9375 48.410156 154.421875 C 48.429688 153.914062 48.484375 153.445312 48.574219 153.019531 L 50.453125 153.179688 C 50.230469 154.324219 50.199219 155.25 50.363281 155.96875 C 50.535156 156.703125 50.867188 157.011719 51.363281 156.898438 C 51.546875 156.855469 51.671875 156.777344 51.746094 156.664062 C 51.824219 156.546875 51.871094 156.394531 51.890625 156.203125 C 51.914062 156.011719 51.925781 155.726562 51.929688 155.335938 C 51.933594 154.691406 51.980469 154.164062 52.058594 153.753906 C 52.140625 153.34375 52.320312 152.988281 52.59375 152.6875 C 52.867188 152.390625 53.277344 152.175781 53.835938 152.046875 C 54.617188 151.867188 55.28125 151.945312 55.832031 152.277344 C 56.382812 152.617188 56.804688 153.183594 57.105469 153.984375 L 58.078125 153.753906 L 58.359375 154.957031 L 57.414062 155.171875 C 57.558594 156.011719 57.539062 156.820312 57.359375 157.609375 L 55.621094 157.371094 C 55.699219 157.03125 55.730469 156.664062 55.726562 156.265625 C 55.71875 155.871094 55.679688 155.515625 55.609375 155.207031 C 55.53125 154.882812 55.421875 154.636719 55.277344 154.476562 C 55.132812 154.316406 54.953125 154.261719 54.730469 154.3125 C 54.570312 154.351562 54.453125 154.4375 54.378906 154.570312 C 54.308594 154.703125 54.261719 154.863281 54.238281 155.046875 C 54.214844 155.230469 54.195312 155.554688 54.175781 156.015625 C 54.140625 156.703125 54.078125 157.238281 53.984375 157.628906 C 53.890625 158.023438 53.714844 158.347656 53.449219 158.605469 C 53.1875 158.863281 52.792969 159.054688 52.265625 159.175781 C 51.414062 159.375 50.703125 159.292969 50.117188 158.941406 " fill-opacity="1" fill-rule="nonzero"/><path fill="#5d865f" d="M 47.664062 186.203125 L 23.902344 139.667969 L 46.273438 128.226562 L 70.039062 174.757812 L 47.664062 186.203125 " fill-opacity="1" fill-rule="nonzero"/><path fill="#7bb679" d="M 48.480469 183.929688 L 26.21875 140.34375 L 45.460938 130.5 L 67.71875 174.085938 L 48.480469 183.929688 " fill-opacity="1" fill-rule="nonzero"/><path fill="#5d865f" d="M 66.5 168.433594 C 62.949219 170.25 61.542969 174.605469 63.355469 178.164062 C 63.355469 178.164062 63.359375 178.167969 63.363281 178.171875 L 70.039062 174.757812 L 66.75 168.320312 C 66.667969 168.359375 66.582031 168.390625 66.5 168.433594 " fill-opacity="1" fill-rule="nonzero"/><path fill="#5d865f" d="M 27.496094 146.054688 C 31.050781 144.238281 32.457031 139.878906 30.640625 136.324219 C 30.640625 136.320312 30.636719 136.316406 30.632812 136.3125 L 23.960938 139.726562 L 27.246094 146.164062 C 27.332031 146.128906 27.414062 146.09375 27.496094 146.054688 " fill-opacity="1" fill-rule="nonzero"/><path fill="#5d865f" d="M 49.394531 134.761719 C 45.84375 136.578125 41.488281 135.171875 39.675781 131.617188 C 39.671875 131.613281 39.671875 131.605469 39.667969 131.601562 L 46.34375 128.191406 L 49.632812 134.625 C 49.550781 134.671875 49.476562 134.722656 49.394531 134.761719 " fill-opacity="1" fill-rule="nonzero"/><path fill="#5d865f" d="M 44.636719 179.621094 C 48.191406 177.800781 52.539062 179.210938 54.359375 182.765625 C 54.359375 182.769531 54.363281 182.773438 54.363281 182.777344 L 47.6875 186.191406 L 44.402344 179.753906 C 44.480469 179.710938 44.554688 179.660156 44.636719 179.621094 " fill-opacity="1" fill-rule="nonzero"/><path fill="#5d865f" d="M 50.429688 164.015625 C 46.671875 165.9375 42.070312 164.445312 40.152344 160.6875 C 38.230469 156.929688 39.71875 152.320312 43.476562 150.402344 C 47.234375 148.480469 51.832031 149.96875 53.753906 153.730469 C 55.675781 157.488281 54.183594 162.09375 50.429688 164.015625 " fill-opacity="1" fill-rule="nonzero"/><path fill="#98bf96" d="M 45.273438 160.796875 C 44.621094 160.589844 44.050781 160.128906 43.566406 159.398438 L 42.472656 159.957031 L 41.910156 158.863281 L 42.996094 158.308594 C 42.785156 157.824219 42.628906 157.332031 42.523438 156.828125 C 42.417969 156.328125 42.355469 155.859375 42.34375 155.425781 L 44.203125 155.125 C 44.261719 156.289062 44.460938 157.199219 44.792969 157.851562 C 45.136719 158.523438 45.535156 158.742188 45.988281 158.511719 C 46.152344 158.425781 46.253906 158.320312 46.300781 158.1875 C 46.347656 158.058594 46.359375 157.894531 46.332031 157.707031 C 46.308594 157.519531 46.25 157.238281 46.15625 156.855469 C 46.007812 156.230469 45.921875 155.707031 45.902344 155.289062 C 45.878906 154.875 45.964844 154.484375 46.160156 154.128906 C 46.351562 153.773438 46.703125 153.464844 47.207031 153.203125 C 47.925781 152.839844 48.589844 152.753906 49.203125 152.945312 C 49.816406 153.140625 50.367188 153.585938 50.847656 154.289062 L 51.742188 153.832031 L 52.300781 154.925781 L 51.441406 155.367188 C 51.78125 156.144531 51.960938 156.933594 51.980469 157.746094 L 50.230469 157.933594 C 50.222656 157.589844 50.167969 157.226562 50.066406 156.839844 C 49.964844 156.453125 49.839844 156.125 49.695312 155.839844 C 49.542969 155.539062 49.375 155.332031 49.199219 155.210938 C 49.019531 155.09375 48.828125 155.082031 48.628906 155.1875 C 48.480469 155.261719 48.386719 155.375 48.347656 155.519531 C 48.308594 155.667969 48.304688 155.832031 48.328125 156.015625 C 48.351562 156.203125 48.40625 156.519531 48.496094 156.96875 C 48.632812 157.644531 48.707031 158.183594 48.707031 158.585938 C 48.710938 158.988281 48.617188 159.34375 48.425781 159.660156 C 48.234375 159.976562 47.898438 160.253906 47.414062 160.503906 C 46.640625 160.898438 45.925781 160.996094 45.273438 160.796875 " fill-opacity="1" fill-rule="nonzero"/><g clip-path="url(#1b947f78df)"><path fill="#5d865f" d="M 53.402344 188.988281 L 13.234375 155.601562 L 29.285156 136.253906 L 69.453125 169.640625 L 53.402344 188.988281 " fill-opacity="1" fill-rule="nonzero"/></g><path fill="#7bb679" d="M 53.253906 186.578125 L 15.628906 155.304688 L 29.433594 138.664062 L 67.058594 169.9375 L 53.253906 186.578125 " fill-opacity="1" fill-rule="nonzero"/><path fill="#5d865f" d="M 63.714844 165.222656 C 61.164062 168.296875 61.585938 172.855469 64.65625 175.40625 C 64.660156 175.410156 64.664062 175.410156 64.667969 175.410156 L 69.453125 169.640625 L 63.898438 165.023438 C 63.835938 165.089844 63.773438 165.152344 63.714844 165.222656 " fill-opacity="1" fill-rule="nonzero"/><g clip-path="url(#c69e49ec44)"><path fill="#5d865f" d="M 19.050781 160.050781 C 21.601562 156.976562 21.179688 152.417969 18.109375 149.867188 C 18.105469 149.867188 18.101562 149.863281 18.097656 149.859375 L 13.308594 155.628906 L 18.867188 160.25 C 18.929688 160.183594 18.992188 160.121094 19.050781 160.050781 " fill-opacity="1" fill-rule="nonzero"/></g><path fill="#5d865f" d="M 34.726562 141.035156 C 32.179688 144.105469 27.625 144.527344 24.554688 141.976562 C 24.554688 141.976562 24.550781 141.972656 24.546875 141.96875 L 29.335938 136.195312 L 34.890625 140.8125 C 34.835938 140.886719 34.785156 140.964844 34.726562 141.035156 " fill-opacity="1" fill-rule="nonzero"/><path fill="#5d865f" d="M 48.023438 184.132812 C 50.574219 181.058594 55.128906 180.636719 58.199219 183.1875 C 58.203125 183.191406 58.207031 183.195312 58.210938 183.199219 L 53.421875 188.96875 L 47.863281 184.351562 C 47.917969 184.277344 47.964844 184.199219 48.023438 184.132812 " fill-opacity="1" fill-rule="nonzero"/><path fill="#5d865f" d="M 47.203125 167.507812 C 44.507812 170.753906 39.691406 171.203125 36.445312 168.503906 C 33.203125 165.808594 32.753906 160.988281 35.449219 157.738281 C 38.144531 154.492188 42.960938 154.042969 46.207031 156.742188 C 49.449219 159.441406 49.898438 164.261719 47.203125 167.507812 " fill-opacity="1" fill-rule="nonzero"/><path fill="#98bf96" d="M 41.195312 166.582031 C 40.515625 166.65625 39.8125 166.449219 39.074219 165.96875 L 38.289062 166.917969 L 37.34375 166.132812 L 38.121094 165.195312 C 37.738281 164.832031 37.398438 164.441406 37.105469 164.023438 C 36.808594 163.605469 36.574219 163.199219 36.386719 162.808594 L 37.976562 161.796875 C 38.488281 162.839844 39.03125 163.597656 39.59375 164.070312 C 40.175781 164.550781 40.628906 164.59375 40.953125 164.203125 C 41.070312 164.058594 41.125 163.921875 41.113281 163.78125 C 41.105469 163.640625 41.050781 163.492188 40.953125 163.328125 C 40.855469 163.164062 40.6875 162.925781 40.460938 162.617188 C 40.070312 162.097656 39.789062 161.652344 39.601562 161.277344 C 39.421875 160.902344 39.347656 160.511719 39.382812 160.109375 C 39.421875 159.703125 39.621094 159.28125 39.984375 158.84375 C 40.5 158.226562 41.074219 157.882812 41.71875 157.816406 C 42.355469 157.753906 43.035156 157.945312 43.753906 158.40625 L 44.398438 157.628906 L 45.34375 158.417969 L 44.726562 159.160156 C 45.34375 159.738281 45.820312 160.398438 46.15625 161.132812 L 44.625 161.996094 C 44.480469 161.679688 44.289062 161.371094 44.039062 161.054688 C 43.792969 160.742188 43.550781 160.484375 43.308594 160.28125 C 43.050781 160.070312 42.816406 159.941406 42.601562 159.898438 C 42.390625 159.859375 42.210938 159.929688 42.070312 160.105469 C 41.964844 160.230469 41.921875 160.371094 41.945312 160.519531 C 41.964844 160.667969 42.023438 160.824219 42.117188 160.984375 C 42.214844 161.144531 42.394531 161.414062 42.652344 161.796875 C 43.046875 162.359375 43.320312 162.828125 43.484375 163.195312 C 43.644531 163.5625 43.699219 163.929688 43.644531 164.292969 C 43.59375 164.660156 43.394531 165.050781 43.050781 165.46875 C 42.492188 166.140625 41.875 166.507812 41.195312 166.582031 " fill-opacity="1" fill-rule="nonzero"/><path fill="#f3ac71" d="M 61.75 168.324219 C 61.757812 168.320312 61.769531 168.316406 61.78125 168.308594 C 63.621094 167.5 66.125 167.242188 68.109375 166.957031 C 70.238281 166.648438 72.417969 166.554688 74.546875 166.910156 C 76.175781 167.179688 78.097656 168.15625 78 169.808594 C 77.941406 170.855469 77.050781 171.648438 76.191406 172.25 C 73.703125 174.007812 70.875 175.273438 67.90625 175.964844 C 69.332031 177.410156 72.035156 177.402344 72.914062 179.238281 C 73.851562 181.191406 71.871094 183.238281 70.117188 184.511719 C 71.417969 184.742188 72.445312 186.035156 72.367188 187.355469 C 72.292969 188.675781 71.125 189.84375 69.808594 189.925781 C 70.628906 190.695312 70.382812 192.089844 69.765625 193.035156 C 69.144531 193.980469 68.230469 194.71875 67.734375 195.734375 C 67.109375 197.015625 67.25 198.519531 67 199.921875 C 66.523438 202.59375 64.496094 204.921875 61.925781 205.761719 C 59.347656 206.597656 56.339844 205.910156 54.382812 204.035156 C 52.496094 202.226562 51.683594 199.570312 51.261719 196.988281 C 50.539062 192.542969 49.941406 186.222656 52.816406 182.386719 C 53.851562 181.007812 54.398438 179.246094 55.191406 177.71875 C 56.097656 175.980469 57.097656 174.292969 58.191406 172.667969 C 59.082031 171.347656 60.308594 168.984375 61.75 168.324219 " fill-opacity="1" fill-rule="nonzero"/><path fill="#f3ac71" d="M 45.058594 275.710938 C 44.566406 270.253906 48.804688 265.515625 54.523438 265.132812 C 60.246094 264.742188 65.28125 268.847656 65.773438 274.304688 C 66.269531 279.761719 62.03125 284.496094 56.308594 284.886719 C 50.589844 285.273438 45.550781 281.164062 45.058594 275.710938 " fill-opacity="1" fill-rule="nonzero"/><path fill="#f3ac71" d="M 68.070312 200.207031 L 51.742188 200.566406 L 44.890625 277.140625 L 65.195312 277.75 L 68.070312 200.207031 " fill-opacity="1" fill-rule="nonzero"/><path fill="#7bb679" d="M 45.699219 47.300781 L 41.753906 54.246094 L 40.007812 57.234375 L 69.183594 71.769531 L 72.613281 68.507812 L 45.699219 47.300781 " fill-opacity="1" fill-rule="nonzero"/><path fill="#7bb679" d="M 48.035156 81.632812 L 45.96875 89.335938 L 45.042969 92.664062 L 69.257812 95.84375 L 71.433594 91.679688 L 48.035156 81.632812 " fill-opacity="1" fill-rule="nonzero"/><path fill="#7bb679" d="M 76.910156 28.671875 L 70.449219 33.335938 L 67.628906 35.332031 L 84.402344 53.105469 L 88.71875 51.25 L 76.910156 28.671875 " fill-opacity="1" fill-rule="nonzero"/><path fill="#7bb679" d="M 145.375 6.917969 L 137.554688 5.316406 L 134.175781 4.578125 L 129.390625 36.839844 L 133.554688 39.097656 L 145.375 6.917969 " fill-opacity="1" fill-rule="nonzero"/><g clip-path="url(#f4cfe11efb)"><path fill="#7bb679" d="M 103.410156 0.625 L 96.136719 4.46875 L 92.972656 6.078125 L 107.429688 44.230469 L 112.097656 43.691406 L 103.410156 0.625 " fill-opacity="1" fill-rule="nonzero"/></g><path fill="#7bb679" d="M 166.640625 33.335938 L 160.207031 28.632812 L 157.441406 26.5625 L 145.746094 48.027344 L 148.839844 51.558594 L 166.640625 33.335938 " fill-opacity="1" fill-rule="nonzero"/><g clip-path="url(#4615326968)"><path fill="#7bb679" d="M 223.085938 71.269531 L 220.515625 63.703125 L 219.449219 60.410156 L 189.210938 72.574219 L 189.371094 77.308594 L 223.085938 71.269531 " fill-opacity="1" fill-rule="nonzero"/></g><path fill="#7bb679" d="M 195.898438 50.203125 L 191.519531 43.542969 L 189.652344 40.632812 L 171.183594 56.640625 L 172.851562 61.03125 L 195.898438 50.203125 " fill-opacity="1" fill-rule="nonzero"/><path fill="#7bb679" d="M 211.046875 102.980469 L 211.855469 95.046875 L 212.242188 91.617188 L 187.828125 92.351562 L 186.34375 96.808594 L 211.046875 102.980469 " fill-opacity="1" fill-rule="nonzero"/></svg>