<svg xmlns="http://www.w3.org/2000/svg" xmlns:xlink="http://www.w3.org/1999/xlink" width="500" zoomAndPan="magnify" viewBox="0 0 375 374.999991" height="500" preserveAspectRatio="xMidYMid meet" version="1.0"><path fill="#1d1e20" d="M 27.753906 -0.152344 L -0.152344 27.753906 L 106.585938 134.496094 L 136.191406 104.890625 L 208.777344 177.476562 L 240.351562 147.871094 L 301.488281 209.011719 L 270.378906 240.773438 L 375 254.613281 L 359.195312 149.992188 L 329.089844 180.792969 L 241.238281 92.941406 L 209.664062 122.546875 L 136.191406 49.070312 L 106.585938 78.675781 Z M 0 118.421875 L 0 375 L 39.472656 375 L 39.472656 118.421875 Z M 78.949219 177.632812 L 78.949219 375 L 118.421875 375 L 118.421875 177.632812 Z M 157.894531 217.105469 L 157.894531 375 L 197.367188 375 L 197.367188 217.105469 Z M 236.84375 276.316406 L 236.84375 375 L 276.316406 375 L 276.316406 276.316406 Z M 315.789062 315.789062 L 315.789062 375 L 355.261719 375 L 355.261719 315.789062 Z M 315.789062 315.789062 " fill-opacity="1" fill-rule="nonzero"/></svg>