<svg xmlns="http://www.w3.org/2000/svg" xmlns:xlink="http://www.w3.org/1999/xlink" width="500" zoomAndPan="magnify" viewBox="0 0 375 374.999991" height="500" preserveAspectRatio="xMidYMid meet" version="1.0"><defs><clipPath id="ef779c8ce7"><path d="M 78.28125 0 L 296.53125 0 L 296.53125 375 L 78.28125 375 Z M 78.28125 0 " clip-rule="nonzero"/></clipPath></defs><g clip-path="url(#ef779c8ce7)"><path fill="#1d1e20" d="M 189.679688 191.679688 C 190.242188 200.796875 199.375 206.796875 206.722656 211.625 C 208.378906 212.707031 209.945312 213.738281 211.15625 214.644531 C 226.8125 226.425781 240.53125 237.570312 249.789062 254.71875 C 258.121094 270.128906 264.222656 288.613281 267.941406 309.65625 C 269.839844 320.367188 271.152344 331.425781 271.839844 342.519531 L 271.890625 343.28125 C 271.929688 343.867188 271.964844 344.46875 272.003906 345.054688 L 101.839844 345.054688 C 101.878906 344.46875 101.90625 343.882812 101.941406 343.296875 L 101.992188 342.519531 C 102.695312 331.425781 104.007812 320.367188 105.890625 309.65625 C 109.609375 288.613281 115.726562 270.128906 124.054688 254.71875 C 133.304688 237.570312 147.023438 226.425781 162.6875 214.644531 C 163.886719 213.738281 165.453125 212.707031 167.121094 211.625 C 174.460938 206.796875 183.605469 200.796875 184.152344 191.679688 L 184.179688 191.421875 L 184.152344 191.167969 C 183.605469 182.046875 174.460938 176.046875 167.121094 171.222656 C 165.453125 170.136719 163.886719 169.105469 162.6875 168.203125 C 147.023438 156.417969 133.304688 145.273438 124.054688 128.128906 C 115.726562 112.714844 109.609375 94.234375 105.890625 73.191406 C 104.007812 62.480469 102.695312 51.421875 101.992188 40.328125 L 101.941406 39.550781 C 101.75 36.390625 101.546875 33.15625 101.433594 29.945312 L 272.414062 29.945312 C 272.296875 33.167969 272.09375 36.40625 271.890625 39.5625 L 271.839844 40.328125 C 271.152344 51.421875 269.839844 62.480469 267.941406 73.191406 C 264.222656 94.234375 258.121094 112.714844 249.789062 128.128906 C 240.53125 145.273438 226.8125 156.417969 211.15625 168.203125 C 209.945312 169.105469 208.378906 170.136719 206.722656 171.222656 C 199.375 176.046875 190.242188 182.046875 189.679688 191.167969 L 189.667969 191.421875 Z M 211.257812 178.136719 C 213.027344 176.980469 214.710938 175.871094 216.125 174.800781 C 232.582031 162.433594 247.011719 150.675781 257.0625 132.066406 C 265.8125 115.863281 272.222656 96.539062 276.09375 74.628906 C 278.03125 63.613281 279.378906 52.25 280.105469 40.851562 L 280.144531 40.085938 C 280.359375 36.761719 280.566406 33.359375 280.679688 29.945312 L 281.519531 29.945312 C 289.710938 29.945312 296.410156 23.246094 296.410156 15.054688 L 296.410156 14.851562 C 296.410156 6.660156 289.710938 -0.0390625 281.519531 -0.0390625 L 93.152344 -0.0390625 C 84.964844 -0.0390625 78.261719 6.660156 78.261719 14.851562 L 78.261719 15.054688 C 78.261719 23.246094 84.964844 29.945312 93.152344 29.945312 L 93.167969 29.945312 C 93.269531 33.359375 93.484375 36.761719 93.6875 40.074219 L 93.738281 40.851562 C 94.453125 52.25 95.804688 63.613281 97.753906 74.628906 C 101.625 96.539062 108.019531 115.863281 116.769531 132.066406 C 126.832031 150.675781 141.265625 162.433594 157.707031 174.800781 C 159.136719 175.871094 160.804688 176.980469 162.574219 178.136719 C 167.976562 181.679688 175.351562 186.519531 175.871094 191.421875 C 175.351562 196.328125 167.976562 201.167969 162.574219 204.707031 C 160.804688 205.867188 159.136719 206.976562 157.707031 208.035156 C 141.265625 220.414062 126.832031 232.171875 116.769531 250.78125 C 108.019531 266.984375 101.625 286.308594 97.753906 308.214844 C 95.804688 319.234375 94.453125 330.597656 93.738281 341.996094 L 93.6875 342.773438 C 93.652344 343.523438 93.601562 344.289062 93.546875 345.054688 L 93.152344 345.054688 C 84.964844 345.054688 78.261719 351.753906 78.261719 359.945312 L 78.261719 360.148438 C 78.261719 368.339844 84.964844 375.039062 93.152344 375.039062 L 281.519531 375.039062 C 289.710938 375.039062 296.410156 368.339844 296.410156 360.148438 L 296.410156 359.945312 C 296.410156 351.753906 289.710938 345.054688 281.519531 345.054688 L 280.285156 345.054688 C 280.246094 344.289062 280.195312 343.511719 280.144531 342.761719 L 280.105469 341.996094 C 279.378906 330.597656 278.03125 319.234375 276.09375 308.214844 C 272.222656 286.308594 265.8125 266.984375 257.0625 250.78125 C 247.011719 232.171875 232.582031 220.414062 216.125 208.035156 C 214.710938 206.976562 213.027344 205.867188 211.257812 204.707031 C 205.859375 201.167969 198.496094 196.328125 197.960938 191.421875 C 198.496094 186.519531 205.859375 181.679688 211.257812 178.136719 " fill-opacity="1" fill-rule="nonzero"/></g><path fill="#1d1e20" d="M 210.976562 165.488281 C 225.195312 154.800781 237.84375 144.523438 246.453125 128.574219 C 254.808594 113.097656 259.980469 95.722656 263.023438 78.464844 C 263.023438 78.464844 218.351562 87.839844 187.335938 81.636719 C 129.316406 70.03125 107.523438 48.761719 107.523438 48.761719 C 108.132812 58.683594 109.316406 68.683594 111.039062 78.464844 C 114.09375 95.722656 119.265625 113.097656 127.621094 128.574219 C 136.234375 144.523438 148.882812 154.800781 163.097656 165.488281 C 168.6875 169.691406 185.605469 181.195312 186.089844 189.15625 L 187.988281 189.15625 C 188.46875 181.195312 205.386719 169.691406 210.976562 165.488281 " fill-opacity="1" fill-rule="nonzero"/><path fill="#1d1e20" d="M 130.515625 321.324219 C 124.742188 323.589844 118.261719 324.394531 112.820312 327.4375 C 107.332031 330.507812 107.597656 335.015625 106.886719 340.582031 L 266.871094 340.582031 C 266.808594 340.023438 266.746094 339.460938 266.691406 338.914062 C 266.375 335.730469 265.992188 332.734375 264.453125 330.429688 C 263.507812 329.003906 262.132812 327.84375 260.070312 327.054688 C 248.683594 322.75 237.28125 318.417969 225.742188 314.457031 C 214.558594 310.636719 202.355469 305.871094 190.355469 305.71875 C 184.332031 305.65625 178.011719 307.03125 172.179688 308.40625 C 158.089844 311.71875 143.992188 316.050781 130.515625 321.324219 " fill-opacity="1" fill-rule="nonzero"/></svg>