<svg xmlns="http://www.w3.org/2000/svg" xmlns:xlink="http://www.w3.org/1999/xlink" width="500" zoomAndPan="magnify" viewBox="0 0 375 374.999991" height="500" preserveAspectRatio="xMidYMid meet" version="1.0"><path fill="#b60e0e" d="M 187.5 0 C 83.839844 0 0 83.839844 0 187.5 C 0 291.160156 83.839844 375 187.5 375 C 291.160156 375 375 291.160156 375 187.5 C 375 83.839844 291.160156 0 187.5 0 Z M 187.5 365.855469 C 140.625 365.855469 97.5625 347.5625 65.929688 317.453125 C 67.074219 276.675781 99.847656 241.234375 148.246094 227.894531 C 128.8125 214.9375 116.234375 193.214844 116.234375 168.445312 C 116.234375 129.191406 148.246094 96.796875 187.882812 96.796875 C 227.515625 96.796875 259.144531 129.191406 259.144531 168.445312 C 259.144531 193.214844 246.1875 215.320312 227.132812 227.894531 C 275.152344 241.234375 307.925781 276.675781 309.070312 317.453125 C 277.4375 347.179688 234.375 365.855469 187.5 365.855469 Z M 187.5 365.855469 " fill-opacity="1" fill-rule="nonzero"/></svg>